<svg width="804" height="804" viewBox="0 0 804 804" fill="none" xmlns="http://www.w3.org/2000/svg">
<path d="M802 2H2.00049V802H802V2Z" fill="url(#paint0_radial_6_5920)"/>
<g opacity="0.2">
<path d="M222.98 3V474.31L2.00049 562.717" stroke="#C5BCFF" stroke-linecap="round" stroke-linejoin="round"/>
<path d="M258.771 3V474.31L2.00049 602.708" stroke="#C5BCFF" stroke-linecap="round" stroke-linejoin="round"/>
<path d="M294.561 3V474.31L2.00049 669.341" stroke="#C5BCFF" stroke-linecap="round" stroke-linejoin="round"/>
<path d="M330.357 3V474.31L2.17261 802.381" stroke="#C5BCFF" stroke-linecap="round" stroke-linejoin="round"/>
<path d="M366.144 3V474.31L201.911 802.381" stroke="#C5BCFF" stroke-linecap="round" stroke-linejoin="round"/>
<path d="M401.936 3V474.31L401.656 802.381" stroke="#C5BCFF" stroke-linecap="round" stroke-linejoin="round"/>
<path d="M437.729 3V474.31L601.396 802.381" stroke="#C5BCFF" stroke-linecap="round" stroke-linejoin="round"/>
<path d="M473.519 3V474.31L801.137 802.381" stroke="#C5BCFF" stroke-linecap="round" stroke-linejoin="round"/>
<path d="M509.314 3V474.31L802 669.647" stroke="#C5BCFF" stroke-linecap="round" stroke-linejoin="round"/>
<path d="M545.105 3V474.31L802.001 602.879" stroke="#C5BCFF" stroke-linecap="round" stroke-linejoin="round"/>
<path d="M580.894 3V474.31L801.997 562.828" stroke="#C5BCFF" stroke-linecap="round" stroke-linejoin="round"/>
<path d="M616.688 3V474.31L801.999 536.13" stroke="#C5BCFF" stroke-linecap="round" stroke-linejoin="round"/>
<path d="M652.477 3V474.31L801.997 517.063" stroke="#C5BCFF" stroke-linecap="round" stroke-linejoin="round"/>
<path d="M688.27 3V474.31L802 502.764" stroke="#C5BCFF" stroke-linecap="round" stroke-linejoin="round"/>
<path d="M724.064 3V474.31L802 491.642" stroke="#C5BCFF" stroke-linecap="round" stroke-linejoin="round"/>
<path d="M759.853 3V474.31L801.998 482.746" stroke="#C5BCFF" stroke-linecap="round" stroke-linejoin="round"/>
<path d="M795.643 3V474.31L801.999 475.465" stroke="#C5BCFF" stroke-linecap="round" stroke-linejoin="round"/>
<path d="M2.00049 517.005L151.396 474.31V3" stroke="#C5BCFF" stroke-linecap="round" stroke-linejoin="round"/>
<path d="M187.187 3V474.31L2.00049 536.054" stroke="#C5BCFF" stroke-linecap="round" stroke-linejoin="round"/>
<path d="M115.607 3V474.31L2.00049 502.722" stroke="#C5BCFF" stroke-linecap="round" stroke-linejoin="round"/>
<path d="M79.8133 3V474.31L2.0022 491.606" stroke="#C5BCFF" stroke-linecap="round" stroke-linejoin="round"/>
<path d="M44.0223 3V474.31L2.00049 482.715" stroke="#C5BCFF" stroke-linecap="round" stroke-linejoin="round"/>
<path d="M8.228 3V474.31L2.00049 475.443" stroke="#C5BCFF" stroke-linecap="round" stroke-linejoin="round"/>
<path d="M2.00049 438.548H801.999" stroke="#C5BCFF" stroke-linecap="round" stroke-linejoin="round"/>
<path d="M2.00049 402.782H801.999" stroke="#C5BCFF" stroke-linecap="round" stroke-linejoin="round"/>
<path d="M2.00049 367.019H801.999" stroke="#C5BCFF" stroke-linecap="round" stroke-linejoin="round"/>
<path d="M2.00049 331.257H801.999" stroke="#C5BCFF" stroke-linecap="round" stroke-linejoin="round"/>
<path d="M2.00049 295.49H801.999" stroke="#C5BCFF" stroke-linecap="round" stroke-linejoin="round"/>
<path d="M2.00049 259.727H801.999" stroke="#C5BCFF" stroke-linecap="round" stroke-linejoin="round"/>
<path d="M2.00049 223.965H801.999" stroke="#C5BCFF" stroke-linecap="round" stroke-linejoin="round"/>
<path d="M2.00049 188.198H801.999" stroke="#C5BCFF" stroke-linecap="round" stroke-linejoin="round"/>
<path d="M2.00049 152.436H801.999" stroke="#C5BCFF" stroke-linecap="round" stroke-linejoin="round"/>
<path d="M2.00049 116.673H801.999" stroke="#C5BCFF" stroke-linecap="round" stroke-linejoin="round"/>
<path d="M2.00049 80.9065H801.999" stroke="#C5BCFF" stroke-linecap="round" stroke-linejoin="round"/>
<path d="M2.00049 45.1443H801.999" stroke="#C5BCFF" stroke-linecap="round" stroke-linejoin="round"/>
<path d="M2.00049 9.37772H801.999" stroke="#C5BCFF" stroke-linecap="round" stroke-linejoin="round"/>
<path d="M801.999 631.656H2.00049" stroke="#C5BCFF" stroke-linecap="round" stroke-linejoin="round"/>
<path d="M801.999 604.012H2.00049" stroke="#C5BCFF" stroke-linecap="round" stroke-linejoin="round"/>
<path d="M801.999 582.327H2.00049" stroke="#C5BCFF" stroke-linecap="round" stroke-linejoin="round"/>
<path d="M801.999 668.096H2.00049" stroke="#C5BCFF" stroke-linecap="round" stroke-linejoin="round"/>
<path d="M801.999 564.857H2.00049" stroke="#C5BCFF" stroke-linecap="round" stroke-linejoin="round"/>
<path d="M801.999 550.484H2.00049" stroke="#C5BCFF" stroke-linecap="round" stroke-linejoin="round"/>
<path d="M801.999 477.525H2.00049" stroke="#C5BCFF" stroke-linecap="round" stroke-linejoin="round"/>
<path d="M801.999 474.311H2.00049" stroke="#C5BCFF" stroke-linecap="round" stroke-linejoin="round"/>
<path d="M801.999 484.903H2.00049" stroke="#C5BCFF" stroke-linecap="round" stroke-linejoin="round"/>
<path d="M801.999 481.041H2.00049" stroke="#C5BCFF" stroke-linecap="round" stroke-linejoin="round"/>
<path d="M801.999 519.44H2.00049" stroke="#C5BCFF" stroke-linecap="round" stroke-linejoin="round"/>
<path d="M801.999 538.45H2.00049" stroke="#C5BCFF" stroke-linecap="round" stroke-linejoin="round"/>
<path d="M801.999 718.337H2.00049" stroke="#C5BCFF" stroke-linecap="round" stroke-linejoin="round"/>
<path d="M801.999 493.898H2.00049" stroke="#C5BCFF" stroke-linecap="round" stroke-linejoin="round"/>
<path d="M801.999 489.167H2.00049" stroke="#C5BCFF" stroke-linecap="round" stroke-linejoin="round"/>
<path d="M801.999 511.803H2.00049" stroke="#C5BCFF" stroke-linecap="round" stroke-linejoin="round"/>
<path d="M801.999 505.098H2.00049" stroke="#C5BCFF" stroke-linecap="round" stroke-linejoin="round"/>
<path d="M801.999 499.174H2.00049" stroke="#C5BCFF" stroke-linecap="round" stroke-linejoin="round"/>
<path d="M801.999 528.229H2.00049" stroke="#C5BCFF" stroke-linecap="round" stroke-linejoin="round"/>
<path d="M801.14 802.381H2.1731" stroke="#C5BCFF" stroke-linecap="round" stroke-linejoin="round"/>
</g>
<rect x="1.00049" y="1" width="802" height="802" stroke="#3F4055" stroke-width="2"/>
<g opacity="0.6">
<path opacity="0.7" d="M131.51 215.377C131.51 216.321 131.157 216.792 130.452 216.792C129.747 216.792 129.395 216.321 129.395 215.377C129.395 214.434 129.747 213.962 130.452 213.962C130.805 213.962 131.51 214.434 131.51 215.377Z" fill="white"/>
<path opacity="0.7" d="M174.87 215.377C174.87 215.849 174.517 216.321 174.165 216.321C173.812 216.321 173.459 215.849 173.459 215.377C173.459 214.906 173.812 214.434 174.165 214.434C174.517 213.962 174.87 214.434 174.87 215.377Z" fill="white"/>
<path opacity="0.7" d="M89.2087 291.315C89.2087 291.787 88.8561 292.259 88.5036 292.259C88.1511 292.259 87.7986 291.787 87.7986 291.315C87.7986 290.844 88.1511 290.372 88.5036 290.372C88.8561 290.372 89.2087 290.844 89.2087 291.315Z" fill="white"/>
<path opacity="0.7" d="M577.8 233.772C577.8 234.244 577.448 234.716 577.095 234.716C576.743 234.716 576.39 234.244 576.39 233.772C576.39 233.301 576.743 232.829 577.095 232.829C577.448 232.829 577.8 233.301 577.8 233.772Z" fill="white"/>
<path opacity="0.7" d="M184.037 159.249C184.037 159.721 183.685 160.192 183.332 160.192C182.979 160.192 182.627 159.721 182.627 159.249C182.627 158.777 182.979 158.306 183.332 158.306C183.685 158.306 184.037 158.777 184.037 159.249Z" fill="white"/>
<path opacity="0.7" d="M182.625 190.85C182.625 191.322 182.273 191.793 181.92 191.793C181.568 191.793 181.215 191.322 181.215 190.85C181.215 190.378 181.568 189.907 181.92 189.907C182.273 189.907 182.625 190.378 182.625 190.85Z" fill="white"/>
<path opacity="0.7" d="M214.706 26.2397C214.706 27.183 214.353 27.6547 213.648 27.6547C212.943 27.6547 212.591 27.183 212.591 26.2397C212.591 25.2964 212.943 24.8247 213.648 24.8247C214.353 24.8247 214.706 25.768 214.706 26.2397Z" fill="white"/>
<path opacity="0.7" d="M218.582 248.393C218.582 249.337 217.877 250.28 217.172 250.28C216.467 250.28 215.762 249.337 215.762 248.393C215.762 247.45 216.467 246.507 217.172 246.507C218.229 246.507 218.582 247.45 218.582 248.393Z" fill="white"/>
<path opacity="0.7" d="M156.189 12.0903C156.189 13.0336 155.484 13.9769 154.779 13.9769C154.074 13.9769 153.369 13.0336 153.369 12.0903C153.369 11.1469 154.074 10.2036 154.779 10.2036C155.484 10.2036 156.189 10.6753 156.189 12.0903Z" fill="white"/>
<path opacity="0.7" d="M39.1517 168.683C39.1517 169.626 38.4466 170.569 37.7416 170.569C37.0366 170.569 36.3315 169.626 36.3315 168.683C36.3315 167.739 37.0366 166.796 37.7416 166.796C38.4466 166.796 39.1517 167.739 39.1517 168.683Z" fill="white"/>
<path opacity="0.7" d="M19.0574 317.257C19.0574 318.201 18.3524 319.144 17.6474 319.144C16.9423 319.144 16.2373 318.201 16.2373 317.257C16.2373 316.314 16.9423 315.371 17.6474 315.371C18.7049 315.371 19.0574 316.314 19.0574 317.257Z" fill="white"/>
<path opacity="0.7" d="M87.7987 179.059C87.7987 180.002 87.0936 180.946 86.3886 180.946C85.6836 180.946 84.9785 180.002 84.9785 179.059C84.9785 178.116 85.6836 177.172 86.3886 177.172C87.0936 177.172 87.7987 178.116 87.7987 179.059Z" fill="white"/>
<path opacity="0.7" d="M56.7777 305.936C56.7777 306.879 56.4252 307.351 55.7202 307.351C55.0151 307.351 54.6626 306.879 54.6626 305.936C54.6626 304.993 55.0151 304.521 55.7202 304.521C56.4252 304.521 56.7777 304.993 56.7777 305.936Z" fill="white"/>
<path opacity="0.7" d="M75.4613 117.271C75.4613 118.214 75.1088 118.686 74.4037 118.686C73.6987 118.686 73.3462 118.214 73.3462 117.271C73.3462 116.328 73.6987 115.856 74.4037 115.856C75.1088 115.856 75.4613 116.799 75.4613 117.271Z" fill="white"/>
<path opacity="0.7" d="M39.5043 3.12837C39.5043 3.60004 39.1518 4.0717 38.7993 4.0717C38.4468 4.0717 38.0942 3.60004 38.0942 3.12837C38.0942 2.6567 38.4468 2.18504 38.7993 2.18504C39.1518 1.71337 39.5043 2.18504 39.5043 3.12837Z" fill="white"/>
<path opacity="0.7" d="M452.302 80.0092C452.302 80.4809 451.949 80.9526 451.597 80.9526C451.244 80.9526 450.892 80.4809 450.892 80.0092C450.892 79.5376 451.244 79.0659 451.597 79.0659C451.949 79.0659 452.302 79.0659 452.302 80.0092Z" fill="white"/>
<path opacity="0.7" d="M130.102 63.0303C130.102 63.5019 129.75 63.9736 129.397 63.9736C129.045 63.9736 128.692 63.5019 128.692 63.0303C128.692 62.5586 129.045 62.0869 129.397 62.0869C129.75 62.0869 130.102 62.5586 130.102 63.0303Z" fill="white"/>
<path opacity="0.7" d="M361.353 336.129C361.353 336.601 361 337.073 360.648 337.073C360.295 337.073 359.943 336.601 359.943 336.129C359.943 335.658 360.295 335.186 360.648 335.186C361 335.186 361.353 335.658 361.353 336.129Z" fill="white"/>
<path opacity="0.7" d="M161.123 119.63C161.123 120.102 160.77 120.573 160.418 120.573C160.065 120.573 159.713 120.102 159.713 119.63C159.713 119.158 160.065 118.687 160.418 118.687C160.77 118.687 161.123 119.158 161.123 119.63Z" fill="white"/>
<path opacity="0.7" d="M104.366 329.521C104.366 329.992 104.014 330.464 103.661 330.464C103.309 330.464 102.956 329.992 102.956 329.521C102.956 329.049 103.309 328.577 103.661 328.577C104.014 328.577 104.366 329.049 104.366 329.521Z" fill="white"/>
<path opacity="0.7" d="M111.77 23.8818C111.77 24.8251 111.065 25.7685 110.36 25.7685C109.655 25.7685 108.949 24.8251 108.949 23.8818C108.949 22.9385 109.655 21.9951 110.36 21.9951C111.065 21.9951 111.77 22.9385 111.77 23.8818Z" fill="white"/>
<path opacity="0.7" d="M414.23 67.7455C414.23 68.6889 413.525 69.6322 412.819 69.6322C412.114 69.6322 411.409 68.6889 411.409 67.7455C411.409 66.8022 412.114 65.8589 412.819 65.8589C413.877 65.8589 414.23 66.3305 414.23 67.7455Z" fill="white"/>
<path opacity="0.7" d="M20.1154 290.372C20.1154 291.315 19.7628 291.787 19.0578 291.787C18.3528 291.787 18.0002 291.315 18.0002 290.372C18.0002 289.428 18.3528 288.957 19.0578 288.957C19.7628 288.957 20.1154 289.428 20.1154 290.372Z" fill="white"/>
<path opacity="0.7" d="M183.332 288.957C183.332 290.372 182.274 291.787 181.217 291.787C180.159 291.787 179.102 290.372 179.102 288.957C179.102 287.542 180.159 286.127 181.217 286.127C182.274 286.599 183.332 287.542 183.332 288.957Z" fill="white"/>
<path opacity="0.7" d="M120.23 240.374C120.23 240.846 119.877 241.318 119.525 241.318C119.172 241.318 118.82 240.846 118.82 240.374C118.82 239.903 119.172 239.431 119.525 239.431C119.877 238.959 120.23 239.431 120.23 240.374Z" fill="white"/>
<path opacity="0.7" d="M163.591 319.143C163.591 319.615 163.239 320.086 162.886 320.086C162.534 320.086 162.181 319.615 162.181 319.143C162.181 318.671 162.534 318.2 162.886 318.2C163.239 318.2 163.591 318.671 163.591 319.143Z" fill="white"/>
<path opacity="0.7" d="M504.122 212.075C504.122 212.547 503.77 213.018 503.417 213.018C503.065 213.018 502.712 212.547 502.712 212.075C502.712 211.604 503.065 211.132 503.417 211.132C503.77 211.132 504.122 211.604 504.122 212.075Z" fill="white"/>
<path opacity="0.7" d="M525.274 314.426C525.274 314.898 524.921 315.37 524.569 315.37C524.216 315.37 523.864 314.898 523.864 314.426C523.864 313.955 524.216 313.483 524.569 313.483C524.921 313.483 525.274 313.955 525.274 314.426Z" fill="white"/>
<path opacity="0.7" d="M418.813 308.295C418.813 308.767 418.46 309.239 418.108 309.239C417.755 309.239 417.403 308.767 417.403 308.295C417.403 307.824 417.755 307.352 418.108 307.352C418.46 307.352 418.813 307.824 418.813 308.295Z" fill="white"/>
<path opacity="0.7" d="M567.224 267.26C567.224 267.732 566.872 268.204 566.519 268.204C566.167 268.204 565.814 267.732 565.814 267.26C565.814 266.789 566.167 266.317 566.519 266.317C566.872 265.845 567.224 266.317 567.224 267.26Z" fill="white"/>
<path opacity="0.7" d="M506.944 275.278C506.944 276.222 506.239 277.165 505.534 277.165C504.829 277.165 504.124 276.222 504.124 275.278C504.124 274.335 504.829 273.392 505.534 273.392C506.239 273.392 506.944 274.335 506.944 275.278Z" fill="white"/>
<path opacity="0.7" d="M482.97 179.059C482.97 180.002 482.265 180.946 481.56 180.946C480.855 180.946 480.15 180.002 480.15 179.059C480.15 178.116 480.855 177.172 481.56 177.172C482.265 177.172 482.97 178.116 482.97 179.059Z" fill="white"/>
<path opacity="0.7" d="M506.591 324.804C506.591 325.275 506.239 325.747 505.886 325.747C505.534 325.747 505.181 325.275 505.181 324.804C505.181 324.332 505.534 323.86 505.886 323.86C506.239 323.86 506.591 324.332 506.591 324.804Z" fill="white"/>
<path opacity="0.7" d="M525.274 63.0303C525.274 63.5019 524.921 63.9736 524.569 63.9736C524.216 63.9736 523.864 63.5019 523.864 63.0303C523.864 62.5586 524.216 62.0869 524.569 62.0869C524.921 62.0869 525.274 62.5586 525.274 63.0303Z" fill="white"/>
<path opacity="0.7" d="M521.043 125.29C521.043 125.761 520.69 126.233 520.338 126.233C519.985 126.233 519.633 125.761 519.633 125.29C519.633 124.818 519.985 124.346 520.338 124.346C520.69 124.346 521.043 124.818 521.043 125.29Z" fill="white"/>
<path opacity="0.7" d="M484.383 40.3896C484.383 40.8612 484.03 41.3329 483.678 41.3329C483.325 41.3329 482.973 40.8612 482.973 40.3896C482.973 39.9179 483.325 39.4463 483.678 39.4463C484.03 38.9746 484.383 39.4463 484.383 40.3896Z" fill="white"/>
<path opacity="0.7" d="M506.944 23.8818C506.944 24.8251 506.239 25.7685 505.534 25.7685C504.829 25.7685 504.124 24.8251 504.124 23.8818C504.124 22.9385 504.829 21.9951 505.534 21.9951C506.239 21.9951 506.944 22.9385 506.944 23.8818Z" fill="white"/>
<path opacity="0.7" d="M447.719 165.852C447.719 166.795 447.014 167.739 446.308 167.739C445.603 167.739 444.898 166.795 444.898 165.852C444.898 164.909 445.603 163.965 446.308 163.965C447.014 163.965 447.719 164.909 447.719 165.852Z" fill="white"/>
<path opacity="0.7" d="M429.388 239.432C429.388 239.904 429.036 240.375 428.683 240.375C428.331 240.375 427.978 239.904 427.978 239.432C427.978 238.96 428.331 238.489 428.683 238.489C429.036 238.489 429.388 238.96 429.388 239.432Z" fill="white"/>
<path opacity="0.7" d="M43.0294 327.162C43.0294 328.105 42.6769 328.577 41.9719 328.577C41.2668 328.577 40.9143 328.105 40.9143 327.162C40.9143 326.218 41.2668 325.747 41.9719 325.747C42.6769 325.747 43.0294 326.218 43.0294 327.162Z" fill="white"/>
<path opacity="0.7" d="M320.814 216.32C320.814 217.735 319.756 219.15 318.699 219.15C317.641 219.15 316.583 217.735 316.583 216.32C316.583 214.905 317.641 213.49 318.699 213.49C319.756 213.962 320.814 214.905 320.814 216.32Z" fill="white"/>
<path opacity="0.7" d="M296.137 212.075C296.137 212.547 295.785 213.018 295.432 213.018C295.08 213.018 294.727 212.547 294.727 212.075C294.727 211.604 295.08 211.132 295.432 211.132C295.785 211.132 296.137 211.604 296.137 212.075Z" fill="white"/>
<path opacity="0.7" d="M252.778 99.8193C252.778 100.291 252.425 100.763 252.073 100.763C251.72 100.763 251.368 100.291 251.368 99.8193C251.368 99.3476 251.72 98.876 252.073 98.876C252.425 98.4043 252.778 98.8759 252.778 99.8193Z" fill="white"/>
<path opacity="0.7" d="M317.64 314.426C317.64 314.898 317.287 315.37 316.935 315.37C316.582 315.37 316.229 314.898 316.229 314.426C316.229 313.955 316.582 313.483 316.935 313.483C317.287 313.483 317.64 313.955 317.64 314.426Z" fill="white"/>
<path opacity="0.7" d="M276.749 291.315C276.749 291.787 276.396 292.259 276.044 292.259C275.691 292.259 275.339 291.787 275.339 291.315C275.339 290.844 275.691 290.372 276.044 290.372C276.396 290.372 276.749 290.844 276.749 291.315Z" fill="white"/>
<path opacity="0.7" d="M370.166 329.991C370.166 330.463 369.814 330.935 369.461 330.935C369.109 330.935 368.756 330.463 368.756 329.991C368.756 329.52 369.109 329.048 369.461 329.048C369.814 329.048 370.166 329.52 370.166 329.991Z" fill="white"/>
<path opacity="0.7" d="M257.712 268.675C257.712 269.146 257.359 269.618 257.007 269.618C256.654 269.618 256.302 269.146 256.302 268.675C256.302 268.203 256.654 267.731 257.007 267.731C257.359 267.26 257.712 267.731 257.712 268.675Z" fill="white"/>
<path opacity="0.7" d="M370.166 190.85C370.166 191.322 369.814 191.793 369.461 191.793C369.109 191.793 368.756 191.322 368.756 190.85C368.756 190.378 369.109 189.907 369.461 189.907C369.814 189.907 370.166 190.378 370.166 190.85Z" fill="white"/>
<path opacity="0.7" d="M290.849 165.852C290.849 166.324 290.497 166.795 290.144 166.795C289.791 166.795 289.439 166.324 289.439 165.852C289.439 165.38 289.791 164.909 290.144 164.909C290.497 164.909 290.849 165.38 290.849 165.852Z" fill="white"/>
<path opacity="0.7" d="M203.778 216.32C203.778 217.263 203.073 218.206 202.368 218.206C201.663 218.206 200.958 217.263 200.958 216.32C200.958 215.376 201.663 214.433 202.368 214.433C203.073 214.433 203.778 215.376 203.778 216.32Z" fill="white"/>
<path opacity="0.7" d="M218.231 190.851C218.231 191.794 217.526 192.737 216.821 192.737C216.116 192.737 215.411 191.794 215.411 190.851C215.411 189.907 216.116 188.964 216.821 188.964C217.526 188.964 218.231 189.907 218.231 190.851Z" fill="white"/>
<path opacity="0.7" d="M206.598 317.257C206.598 318.201 205.893 319.144 205.188 319.144C204.483 319.144 203.778 318.201 203.778 317.257C203.778 316.314 204.483 315.371 205.188 315.371C205.893 315.371 206.598 316.314 206.598 317.257Z" fill="white"/>
<path opacity="0.7" d="M274.984 179.059C274.984 180.002 274.279 180.946 273.574 180.946C272.869 180.946 272.164 180.002 272.164 179.059C272.164 178.116 272.869 177.172 273.574 177.172C274.279 177.172 274.984 178.116 274.984 179.059Z" fill="white"/>
<path opacity="0.7" d="M244.316 305.936C244.316 306.879 243.963 307.351 243.258 307.351C242.553 307.351 242.2 306.879 242.2 305.936C242.2 304.993 242.553 304.521 243.258 304.521C243.963 304.521 244.316 304.993 244.316 305.936Z" fill="white"/>
<path opacity="0.7" d="M346.899 251.695C346.899 253.11 345.841 254.525 344.784 254.525C343.726 254.525 342.668 253.11 342.668 251.695C342.668 250.28 343.726 248.865 344.784 248.865C346.194 248.865 346.899 249.809 346.899 251.695Z" fill="white"/>
<path opacity="0.7" d="M246.433 155.476C246.433 156.419 246.08 156.891 245.375 156.891C244.67 156.891 244.317 156.419 244.317 155.476C244.317 154.533 244.67 154.061 245.375 154.061C245.727 154.061 246.433 154.533 246.433 155.476Z" fill="white"/>
<path opacity="0.7" d="M227.045 3.12837C227.045 3.60004 226.693 4.0717 226.34 4.0717C225.988 4.0717 225.635 3.60004 225.635 3.12837C225.635 2.6567 225.988 2.18504 226.34 2.18504C226.693 1.71337 227.045 2.18504 227.045 3.12837Z" fill="white"/>
<path opacity="0.7" d="M227.747 100.763C227.747 101.235 227.395 101.706 227.042 101.706C226.69 101.706 226.337 101.235 226.337 100.763C226.337 100.291 226.69 99.8198 227.042 99.8198C227.395 99.8198 227.747 100.291 227.747 100.763Z" fill="white"/>
<path opacity="0.7" d="M317.64 63.0303C317.64 63.5019 317.287 63.9736 316.935 63.9736C316.582 63.9736 316.229 63.5019 316.229 63.0303C316.229 62.5586 316.582 62.0869 316.935 62.0869C317.287 62.0869 317.64 62.5586 317.64 63.0303Z" fill="white"/>
<path opacity="0.7" d="M313.412 125.29C313.412 125.761 313.059 126.233 312.706 126.233C312.354 126.233 312.001 125.761 312.001 125.29C312.001 124.818 312.354 124.346 312.706 124.346C313.059 124.346 313.412 124.818 313.412 125.29Z" fill="white"/>
<path opacity="0.7" d="M276.749 40.3896C276.749 40.8612 276.396 41.3329 276.044 41.3329C275.691 41.3329 275.339 40.8612 275.339 40.3896C275.339 39.9179 275.691 39.4463 276.044 39.4463C276.396 38.9746 276.749 39.4463 276.749 40.3896Z" fill="white"/>
<path opacity="0.7" d="M347.959 120.573C348.348 120.573 348.664 120.151 348.664 119.63C348.664 119.109 348.348 118.687 347.959 118.687C347.569 118.687 347.254 119.109 347.254 119.63C347.254 120.151 347.569 120.573 347.959 120.573Z" fill="white"/>
<path opacity="0.7" d="M258.066 17.2778C258.066 17.7494 257.713 18.2211 257.361 18.2211C257.008 18.2211 256.656 17.7494 256.656 17.2778C256.656 16.8061 257.008 16.3345 257.361 16.3345C257.713 16.3345 258.066 16.8061 258.066 17.2778Z" fill="white"/>
<path opacity="0.7" d="M22.2305 6.42959C22.2305 7.84458 21.1729 9.25958 20.1154 9.25958C19.0578 9.25958 18.0002 7.84458 18.0002 6.42959C18.0002 5.0146 19.0578 3.59961 20.1154 3.59961C21.5254 3.59961 22.2305 5.0146 22.2305 6.42959Z" fill="white"/>
<path opacity="0.7" d="M298.958 23.8818C298.958 24.8251 298.253 25.7685 297.548 25.7685C296.843 25.7685 296.138 24.8251 296.138 23.8818C296.138 22.9385 296.843 21.9951 297.548 21.9951C298.253 21.9951 298.958 22.9385 298.958 23.8818Z" fill="white"/>
<path opacity="0.7" d="M286.972 123.402C286.972 124.346 286.267 125.289 285.562 125.289C284.857 125.289 284.152 124.346 284.152 123.402C284.152 122.459 284.857 121.516 285.562 121.516C286.619 121.516 286.972 122.459 286.972 123.402Z" fill="white"/>
<path opacity="0.7" d="M263.352 98.4042C263.352 99.3476 262.647 100.291 261.942 100.291C261.237 100.291 260.532 99.3476 260.532 98.4042C260.532 97.4609 261.237 96.5176 261.942 96.5176C263 96.5176 263.352 96.9892 263.352 98.4042Z" fill="white"/>
<path opacity="0.7" d="M206.598 66.3315C206.598 67.2748 205.893 68.2182 205.188 68.2182C204.483 68.2182 203.778 67.2748 203.778 66.3315C203.778 65.3882 204.483 64.4448 205.188 64.4448C205.893 64.4448 206.598 64.9165 206.598 66.3315Z" fill="white"/>
<path opacity="0.7" d="M244.316 54.539C244.316 55.4824 243.963 55.954 243.258 55.954C242.553 55.954 242.2 55.4824 242.2 54.539C242.2 53.5957 242.553 53.124 243.258 53.124C243.963 53.124 244.316 54.0674 244.316 54.539Z" fill="white"/>
<path opacity="0.7" d="M226.338 121.988C226.338 122.931 225.986 123.403 225.281 123.403C224.576 123.403 224.223 122.931 224.223 121.988C224.223 121.044 224.576 120.573 225.281 120.573C225.633 120.573 226.338 121.044 226.338 121.988Z" fill="white"/>
<path opacity="0.7" d="M289.44 89.914C289.44 90.8574 289.088 91.329 288.383 91.329C287.678 91.329 287.325 90.8574 287.325 89.914C287.325 88.9707 287.678 88.499 288.383 88.499C288.735 88.499 289.44 88.9707 289.44 89.914Z" fill="white"/>
<path opacity="0.7" d="M202.366 115.856C202.366 117.271 201.309 118.686 200.251 118.686C199.194 118.686 198.136 117.271 198.136 115.856C198.136 114.441 199.194 113.026 200.251 113.026C201.661 113.026 202.366 114.441 202.366 115.856Z" fill="white"/>
<path opacity="0.7" d="M306.007 277.165C306.007 277.637 305.655 278.108 305.302 278.108C304.95 278.108 304.597 277.637 304.597 277.165C304.597 276.693 304.95 276.222 305.302 276.222C305.655 276.222 306.007 276.693 306.007 277.165Z" fill="white"/>
<path opacity="0.7" d="M230.215 327.162C230.215 328.105 229.863 328.577 229.158 328.577C228.453 328.577 228.1 328.105 228.1 327.162C228.1 326.218 228.453 325.747 229.158 325.747C229.863 325.747 230.215 326.218 230.215 327.162Z" fill="white"/>
<path opacity="0.7" d="M337.028 44.6342C337.028 45.1059 336.675 45.5776 336.323 45.5776C335.97 45.5776 335.618 45.1059 335.618 44.6342C335.618 44.1626 335.97 43.6909 336.323 43.6909C336.675 43.6909 337.028 44.1626 337.028 44.6342Z" fill="white"/>
<path opacity="0.7" d="M328.57 161.136C328.57 162.551 327.512 163.966 326.455 163.966C325.397 163.966 324.34 162.551 324.34 161.136C324.34 159.721 325.397 158.306 326.455 158.306C327.512 158.306 328.57 159.721 328.57 161.136Z" fill="white"/>
<path opacity="0.7" d="M348.311 117.743C348.311 118.686 347.606 119.629 346.901 119.629C346.196 119.629 345.491 118.686 345.491 117.743C345.491 116.799 346.196 115.856 346.901 115.856C347.958 115.856 348.311 116.799 348.311 117.743Z" fill="white"/>
<path opacity="0.7" d="M372.633 44.6347C372.633 45.578 371.928 46.5214 371.223 46.5214C370.518 46.5214 369.813 45.578 369.813 44.6347C369.813 43.6914 370.518 42.748 371.223 42.748C372.281 42.748 372.633 43.6914 372.633 44.6347Z" fill="white"/>
<path opacity="0.7" d="M361 171.512C361 172.455 360.295 173.399 359.59 173.399C358.885 173.399 358.18 172.455 358.18 171.512C358.18 170.569 358.885 169.625 359.59 169.625C360.295 169.625 361 170.569 361 171.512Z" fill="white"/>
<path opacity="0.7" d="M384.972 180.945C384.972 181.889 384.619 182.36 383.914 182.36C383.209 182.36 382.857 181.889 382.857 180.945C382.857 180.002 383.209 179.53 383.914 179.53C384.267 179.53 384.972 180.474 384.972 180.945Z" fill="white"/>
<path opacity="0.7" d="M487.555 126.233C487.555 125.761 487.907 125.29 488.26 125.29C488.612 125.29 488.965 125.761 488.965 126.233C488.965 126.705 488.612 127.176 488.26 127.176C487.907 127.648 487.555 127.176 487.555 126.233Z" fill="white"/>
<path opacity="0.7" d="M466.404 23.8818C466.404 23.4101 466.756 22.9385 467.109 22.9385C467.461 22.9385 467.814 23.4101 467.814 23.8818C467.814 24.3535 467.461 24.8251 467.109 24.8251C466.756 24.8251 466.404 24.8251 466.404 23.8818Z" fill="white"/>
<path opacity="0.7" d="M413.526 147.93C413.526 147.458 413.879 146.986 414.231 146.986C414.584 146.986 414.936 147.458 414.936 147.93C414.936 148.401 414.584 148.873 414.231 148.873C413.879 148.873 413.526 148.401 413.526 147.93Z" fill="white"/>
<path opacity="0.7" d="M422.339 31.4281C422.339 30.0131 423.396 28.5981 424.454 28.5981C425.512 28.5981 426.569 30.0131 426.569 31.4281C426.569 32.8431 425.512 34.2581 424.454 34.2581C423.396 34.2581 422.339 32.8431 422.339 31.4281Z" fill="white"/>
<path opacity="0.7" d="M484.736 63.5009C484.736 62.5576 485.441 61.6143 486.146 61.6143C486.851 61.6143 487.556 62.5576 487.556 63.5009C487.556 64.4442 486.851 65.3876 486.146 65.3876C485.441 65.3876 484.736 64.4442 484.736 63.5009Z" fill="white"/>
<path opacity="0.7" d="M470.635 213.49C470.635 213.019 470.987 212.547 471.34 212.547C471.692 212.547 472.045 213.019 472.045 213.49C472.045 213.962 471.692 214.434 471.34 214.434C470.987 214.434 470.635 213.962 470.635 213.49Z" fill="white"/>
<path opacity="0.7" d="M484.736 314.426C484.736 313.483 485.441 312.54 486.146 312.54C486.851 312.54 487.556 313.483 487.556 314.426C487.556 315.37 486.851 316.313 486.146 316.313C485.441 316.313 484.736 315.841 484.736 314.426Z" fill="white"/>
<path opacity="0.7" d="M158.656 49.8232C158.656 49.3516 159.009 48.8799 159.361 48.8799C159.714 48.8799 160.066 49.3516 160.066 49.8232C160.066 50.2949 159.714 50.7666 159.361 50.7666C159.009 50.7666 158.656 50.2949 158.656 49.8232Z" fill="white"/>
<path opacity="0.7" d="M424.102 83.7826C424.102 82.8393 424.807 81.896 425.512 81.896C426.217 81.896 426.922 82.8393 426.922 83.7826C426.922 84.726 426.217 85.6693 425.512 85.6693C424.807 85.6693 424.102 84.726 424.102 83.7826Z" fill="white"/>
<path opacity="0.7" d="M389.907 21.0512C389.907 20.1079 390.612 19.1646 391.317 19.1646C392.022 19.1646 392.727 20.1079 392.727 21.0512C392.727 21.9945 392.022 22.9379 391.317 22.9379C390.612 22.9379 389.907 21.9945 389.907 21.0512Z" fill="white"/>
<path opacity="0.7" d="M389.907 272.449C389.907 271.505 390.612 270.562 391.317 270.562C392.022 270.562 392.727 271.505 392.727 272.449C392.727 273.392 392.022 274.335 391.317 274.335C390.259 274.335 389.907 273.392 389.907 272.449Z" fill="white"/>
<path opacity="0.7" d="M394.138 222.924C394.138 221.509 395.196 220.094 396.253 220.094C397.311 220.094 398.368 221.509 398.368 222.924C398.368 224.339 397.311 225.754 396.253 225.754C394.843 225.283 394.138 224.339 394.138 222.924Z" fill="white"/>
<path opacity="0.7" d="M656.762 215.377C656.762 216.321 656.409 216.792 655.704 216.792C654.999 216.792 654.647 216.321 654.647 215.377C654.647 214.434 654.999 213.962 655.704 213.962C656.057 213.962 656.762 214.434 656.762 215.377Z" fill="white"/>
<path opacity="0.7" d="M634.203 212.075C634.203 212.547 633.851 213.018 633.498 213.018C633.146 213.018 632.793 212.547 632.793 212.075C632.793 211.604 633.146 211.132 633.498 211.132C633.851 211.132 634.203 211.604 634.203 212.075Z" fill="white"/>
<path opacity="0.7" d="M700.122 215.377C700.122 215.849 699.769 216.321 699.417 216.321C699.064 216.321 698.712 215.849 698.712 215.377C698.712 214.906 699.064 214.434 699.417 214.434C699.769 213.962 700.122 214.434 700.122 215.377Z" fill="white"/>
<path opacity="0.7" d="M655.354 314.426C655.354 314.898 655.002 315.37 654.649 315.37C654.297 315.37 653.944 314.898 653.944 314.426C653.944 313.955 654.297 313.483 654.649 313.483C655.002 313.483 655.354 313.955 655.354 314.426Z" fill="white"/>
<path opacity="0.7" d="M100.841 71.0478C100.841 71.5195 100.488 71.9911 100.136 71.9911C99.7834 71.9911 99.4309 71.5195 99.4309 71.0478C99.4309 70.5761 99.7834 70.1045 100.136 70.1045C100.488 69.6328 100.841 70.1045 100.841 71.0478Z" fill="white"/>
<path opacity="0.7" d="M786.843 251.696C786.843 252.167 786.49 252.639 786.138 252.639C785.785 252.639 785.433 252.167 785.433 251.696C785.433 251.224 785.785 250.752 786.138 250.752C786.49 250.281 786.843 250.752 786.843 251.696Z" fill="white"/>
<path opacity="0.7" d="M707.877 190.85C707.877 191.322 707.525 191.793 707.172 191.793C706.82 191.793 706.467 191.322 706.467 190.85C706.467 190.378 706.82 189.907 707.172 189.907C707.525 189.907 707.877 190.378 707.877 190.85Z" fill="white"/>
<path opacity="0.7" d="M628.915 165.852C628.915 166.324 628.563 166.795 628.21 166.795C627.858 166.795 627.505 166.324 627.505 165.852C627.505 165.38 627.858 164.909 628.21 164.909C628.563 164.909 628.915 165.38 628.915 165.852Z" fill="white"/>
<path opacity="0.7" d="M615.871 229.055C615.871 229.998 615.518 230.47 614.813 230.47C614.108 230.47 613.756 229.998 613.756 229.055C613.756 228.112 614.108 227.64 614.813 227.64C615.166 227.64 615.871 228.112 615.871 229.055Z" fill="white"/>
<path opacity="0.7" d="M6.71849 47.9364C6.71849 49.3514 5.66094 50.7664 4.60339 50.7664C3.54584 50.7664 2.48828 49.3514 2.48828 47.9364C2.48828 46.5214 3.54584 45.1064 4.60339 45.1064C6.01346 45.5781 6.71849 46.5214 6.71849 47.9364Z" fill="white"/>
<path opacity="0.7" d="M556.296 190.851C556.296 191.794 555.591 192.737 554.886 192.737C554.181 192.737 553.476 191.794 553.476 190.851C553.476 189.907 554.181 188.964 554.886 188.964C555.591 188.964 556.296 189.907 556.296 190.851Z" fill="white"/>
<path opacity="0.7" d="M613.05 179.059C613.05 180.002 612.345 180.946 611.64 180.946C610.935 180.946 610.23 180.002 610.23 179.059C610.23 178.116 610.935 177.172 611.64 177.172C612.345 177.172 613.05 178.116 613.05 179.059Z" fill="white"/>
<path opacity="0.7" d="M564.756 3.12837C564.756 3.60004 564.404 4.0717 564.051 4.0717C563.699 4.0717 563.346 3.60004 563.346 3.12837C563.346 2.6567 563.699 2.18504 564.051 2.18504C564.404 1.71337 564.756 2.18504 564.756 3.12837Z" fill="white"/>
<path opacity="0.7" d="M711.403 46.0493C711.403 46.5209 711.05 46.9926 710.697 46.9926C710.345 46.9926 709.992 46.5209 709.992 46.0493C709.992 45.5776 710.345 45.1059 710.697 45.1059C711.05 44.6343 711.403 45.1059 711.403 46.0493Z" fill="white"/>
<path opacity="0.7" d="M655.354 63.0303C655.354 63.5019 655.002 63.9736 654.649 63.9736C654.297 63.9736 653.944 63.5019 653.944 63.0303C653.944 62.5586 654.297 62.0869 654.649 62.0869C655.002 62.0869 655.354 62.5586 655.354 63.0303Z" fill="white"/>
<path opacity="0.7" d="M651.123 125.29C651.123 125.761 650.771 126.233 650.418 126.233C650.066 126.233 649.713 125.761 649.713 125.29C649.713 124.818 650.066 124.346 650.418 124.346C650.771 124.346 651.123 124.818 651.123 125.29Z" fill="white"/>
<path opacity="0.7" d="M614.461 40.3896C614.461 40.8612 614.108 41.3329 613.756 41.3329C613.403 41.3329 613.051 40.8612 613.051 40.3896C613.051 39.9179 613.403 39.4463 613.756 39.4463C614.108 38.9746 614.461 39.4463 614.461 40.3896Z" fill="white"/>
<path opacity="0.7" d="M686.375 119.63C686.375 120.102 686.022 120.573 685.67 120.573C685.317 120.573 684.965 120.102 684.965 119.63C684.965 119.158 685.317 118.687 685.67 118.687C686.022 118.687 686.375 119.158 686.375 119.63Z" fill="white"/>
<path opacity="0.7" d="M595.777 17.2778C595.777 17.7494 595.425 18.2211 595.072 18.2211C594.719 18.2211 594.367 17.7494 594.367 17.2778C594.367 16.8061 594.719 16.3345 595.072 16.3345C595.425 16.3345 595.777 16.8061 595.777 17.2778Z" fill="white"/>
<path opacity="0.7" d="M637.021 23.8818C637.021 24.8251 636.316 25.7685 635.611 25.7685C634.906 25.7685 634.201 24.8251 634.201 23.8818C634.201 22.9385 634.906 21.9951 635.611 21.9951C636.316 21.9951 637.021 22.9385 637.021 23.8818Z" fill="white"/>
<path opacity="0.7" d="M625.038 123.402C625.038 124.346 624.333 125.289 623.628 125.289C622.923 125.289 622.218 124.346 622.218 123.402C622.218 122.459 622.923 121.516 623.628 121.516C624.333 121.516 625.038 122.459 625.038 123.402Z" fill="white"/>
<path opacity="0.7" d="M601.418 98.4042C601.418 99.3476 600.713 100.291 600.008 100.291C599.303 100.291 598.598 99.3476 598.598 98.4042C598.598 97.4609 599.303 96.5176 600.008 96.5176C600.713 96.5176 601.418 96.9892 601.418 98.4042Z" fill="white"/>
<path opacity="0.7" d="M544.661 66.3315C544.661 67.2748 543.956 68.2182 543.251 68.2182C542.546 68.2182 541.841 67.2748 541.841 66.3315C541.841 65.3882 542.546 64.4448 543.251 64.4448C543.956 64.4448 544.661 64.9165 544.661 66.3315Z" fill="white"/>
<path opacity="0.7" d="M582.03 54.539C582.03 55.4824 581.678 55.954 580.973 55.954C580.268 55.954 579.915 55.4824 579.915 54.539C579.915 53.5957 580.268 53.124 580.973 53.124C581.678 53.124 582.03 54.0674 582.03 54.539Z" fill="white"/>
<path opacity="0.7" d="M645.481 240.374C645.481 240.846 645.129 241.318 644.776 241.318C644.424 241.318 644.071 240.846 644.071 240.374C644.071 239.903 644.424 239.431 644.776 239.431C645.129 238.959 645.481 239.431 645.481 240.374Z" fill="white"/>
<path opacity="0.7" d="M436.792 274.807C436.792 275.75 436.087 276.694 435.381 276.694C434.676 276.694 433.971 275.75 433.971 274.807C433.971 273.864 434.676 272.92 435.381 272.92C436.087 272.92 436.792 273.392 436.792 274.807Z" fill="white"/>
<path opacity="0.7" d="M711.403 317.257C711.403 317.728 711.05 318.2 710.697 318.2C710.345 318.2 709.992 317.728 709.992 317.257C709.992 316.785 710.345 316.313 710.697 316.313C711.05 316.313 711.403 316.785 711.403 317.257Z" fill="white"/>
<path opacity="0.7" d="M568.281 327.162C568.281 328.105 567.929 328.577 567.224 328.577C566.519 328.577 566.166 328.105 566.166 327.162C566.166 326.218 566.519 325.747 567.224 325.747C567.929 325.747 568.281 326.218 568.281 327.162Z" fill="white"/>
<path opacity="0.7" d="M778.03 99.8193C778.03 100.291 777.677 100.763 777.325 100.763C776.972 100.763 776.62 100.291 776.62 99.8193C776.62 99.3476 776.972 98.876 777.325 98.876C777.677 98.4043 778.03 98.8759 778.03 99.8193Z" fill="white"/>
<path opacity="0.7" d="M802 291.315C802 291.787 801.648 292.259 801.295 292.259C800.943 292.259 800.59 291.787 800.59 291.315C800.59 290.844 800.943 290.372 801.295 290.372C801.648 290.372 802 290.844 802 291.315Z" fill="white"/>
<path opacity="0.7" d="M729.03 216.32C729.03 217.263 728.325 218.206 727.62 218.206C726.915 218.206 726.21 217.263 726.21 216.32C726.21 215.376 726.915 214.433 727.62 214.433C728.325 214.433 729.03 215.376 729.03 216.32Z" fill="white"/>
<path opacity="0.7" d="M743.483 190.851C743.483 191.794 742.778 192.737 742.073 192.737C741.368 192.737 740.663 191.794 740.663 190.851C740.663 189.907 741.368 188.964 742.073 188.964C743.13 188.964 743.483 189.907 743.483 190.851Z" fill="white"/>
<path opacity="0.7" d="M731.85 317.257C731.85 318.201 731.145 319.144 730.44 319.144C729.735 319.144 729.03 318.201 729.03 317.257C729.03 316.314 729.735 315.371 730.44 315.371C731.145 315.371 731.85 316.314 731.85 317.257Z" fill="white"/>
<path opacity="0.7" d="M800.237 179.059C800.237 180.002 799.532 180.946 798.827 180.946C798.122 180.946 797.417 180.002 797.417 179.059C797.417 178.116 798.122 177.172 798.827 177.172C799.885 177.172 800.237 178.116 800.237 179.059Z" fill="white"/>
<path opacity="0.7" d="M769.568 305.936C769.568 306.879 769.216 307.351 768.511 307.351C767.806 307.351 767.453 306.879 767.453 305.936C767.453 304.993 767.806 304.521 768.511 304.521C769.216 304.521 769.568 304.993 769.568 305.936Z" fill="white"/>
<path opacity="0.7" d="M771.684 155.476C771.684 156.419 771.332 156.891 770.627 156.891C769.922 156.891 769.569 156.419 769.569 155.476C769.569 154.533 769.922 154.061 770.627 154.061C771.332 154.061 771.684 154.533 771.684 155.476Z" fill="white"/>
<path opacity="0.7" d="M786.843 502.577C786.843 503.048 786.49 503.52 786.138 503.52C785.785 503.52 785.433 503.048 785.433 502.577C785.433 502.105 785.785 501.633 786.138 501.633C786.49 501.162 786.843 501.633 786.843 502.577Z" fill="white"/>
<path opacity="0.7" d="M778.03 350.701C778.03 351.172 777.677 351.644 777.325 351.644C776.972 351.644 776.62 351.172 776.62 350.701C776.62 350.229 776.972 349.757 777.325 349.757C777.677 349.286 778.03 349.757 778.03 350.701Z" fill="white"/>
<path opacity="0.7" d="M729.03 467.201C729.03 468.144 728.325 469.088 727.62 469.088C726.915 469.088 726.21 468.144 726.21 467.201C726.21 466.258 726.915 465.314 727.62 465.314C728.325 465.314 729.03 466.258 729.03 467.201Z" fill="white"/>
<path opacity="0.7" d="M743.483 441.731C743.483 442.675 742.778 443.618 742.073 443.618C741.368 443.618 740.663 442.675 740.663 441.731C740.663 440.788 741.368 439.845 742.073 439.845C743.13 439.845 743.483 440.788 743.483 441.731Z" fill="white"/>
<path opacity="0.7" d="M800.237 429.94C800.237 430.884 799.532 431.827 798.827 431.827C798.122 431.827 797.417 430.884 797.417 429.94C797.417 428.997 798.122 428.054 798.827 428.054C799.885 428.054 800.237 428.997 800.237 429.94Z" fill="white"/>
<path opacity="0.7" d="M771.684 406.357C771.684 407.301 771.332 407.772 770.627 407.772C769.922 407.772 769.569 407.301 769.569 406.357C769.569 405.414 769.922 404.942 770.627 404.942C771.332 404.942 771.684 405.414 771.684 406.357Z" fill="white"/>
<path opacity="0.7" d="M752.297 3.12837C752.297 3.60004 751.944 4.0717 751.592 4.0717C751.239 4.0717 750.887 3.60004 750.887 3.12837C750.887 2.6567 751.239 2.18504 751.592 2.18504C751.944 1.71337 752.297 2.18504 752.297 3.12837Z" fill="white"/>
<path opacity="0.7" d="M802 40.3896C802 40.8612 801.648 41.3329 801.295 41.3329C800.943 41.3329 800.59 40.8612 800.59 40.3896C800.59 39.9179 800.943 39.4463 801.295 39.4463C801.648 38.9746 802 39.4463 802 40.3896Z" fill="white"/>
<path opacity="0.7" d="M783.318 17.2778C783.318 17.7494 782.965 18.2211 782.613 18.2211C782.26 18.2211 781.908 17.7494 781.908 17.2778C781.908 16.8061 782.26 16.3345 782.613 16.3345C782.965 16.3345 783.318 16.8061 783.318 17.2778Z" fill="white"/>
<path opacity="0.7" d="M349.721 292.259C349.721 293.674 348.663 295.089 347.606 295.089C346.548 295.089 345.491 293.674 345.491 292.259C345.491 290.844 346.548 289.429 347.606 289.429C349.016 289.9 349.721 290.844 349.721 292.259Z" fill="white"/>
<g opacity="0.7">
<path opacity="0.7" d="M389.556 81.4238L389.908 91.3288L397.664 92.2721L390.261 92.7438L389.556 103.12L388.851 92.7438L381.448 92.2721L388.851 91.3288L389.556 81.4238Z" fill="white"/>
<path opacity="0.7" d="M392.728 87.5562L390.261 91.8011L392.728 96.5178L389.555 92.7445L386.03 96.9895L388.85 92.2728L386.03 87.5562L389.555 91.3295L392.728 87.5562Z" fill="white"/>
</g>
<g opacity="0.7">
<path opacity="0.7" d="M309.534 61.1426L310.239 71.0475L317.642 71.9909L310.239 72.4625L309.534 82.8391L308.829 72.4625L301.426 71.9909L308.829 71.0475L309.534 61.1426Z" fill="white"/>
<path opacity="0.7" d="M312.706 67.2744L310.239 71.9911L312.706 76.236L309.534 72.9344L306.009 76.7077L309.181 71.9911L306.009 67.7461L309.534 71.0477L312.706 67.2744Z" fill="white"/>
</g>
<g opacity="0.7">
<path opacity="0.7" d="M360.649 321.502L361.002 328.106L366.29 329.049H361.002L360.649 336.596L360.297 329.049H355.009L360.297 328.106L360.649 321.502Z" fill="white"/>
<path opacity="0.7" d="M362.765 325.747L361.003 328.577L362.765 331.879L360.65 329.049L358.183 331.879L360.298 328.577L358.183 325.747L360.65 328.105L362.765 325.747Z" fill="white"/>
</g>
<g opacity="0.7">
<path opacity="0.7" d="M184.742 47.4644L185.094 54.0677L190.382 55.011H185.447L184.742 62.5576L184.389 55.011H179.102L184.389 54.0677L184.742 47.4644Z" fill="white"/>
<path opacity="0.7" d="M187.211 51.709L185.448 54.539L187.211 57.8406L184.743 55.4823L182.275 57.8406L184.39 55.0106L182.275 51.709L184.743 54.0673L187.211 51.709Z" fill="white"/>
</g>
<g opacity="0.7">
<path opacity="0.7" d="M512.584 39.9175L512.936 46.5208L518.224 47.4641H512.936L512.584 55.0107L512.231 47.4641H506.943L512.231 46.5208L512.584 39.9175Z" fill="white"/>
<path opacity="0.7" d="M515.052 44.1621L512.937 46.9921L515.052 50.2937L512.585 47.9354L510.117 50.2937L512.232 47.4638L510.117 44.1621L512.585 46.5204L515.052 44.1621Z" fill="white"/>
</g>
<g opacity="0.7">
<path opacity="0.7" d="M663.815 294.145L664.52 303.578L671.923 304.993H664.52L663.815 315.842L663.11 304.993H655.707L663.11 303.578L663.815 294.145Z" fill="white"/>
<path opacity="0.7" d="M666.987 299.805L664.519 304.521L666.987 309.238L663.814 305.465L660.289 309.238L663.462 304.521L660.289 300.276L663.814 303.578L666.987 299.805Z" fill="white"/>
</g>
<g opacity="0.7">
<path opacity="0.7" d="M714.931 47.4644L715.283 54.0677L720.571 55.011H715.283L714.931 62.5576L714.578 55.011H709.29L714.578 54.0677L714.931 47.4644Z" fill="white"/>
<path opacity="0.7" d="M717.047 51.709L715.284 54.539L717.047 57.8406L714.931 55.4823L712.464 57.8406L714.579 55.0106L712.464 51.709L714.931 54.0673L717.047 51.709Z" fill="white"/>
</g>
<g opacity="0.7">
<path opacity="0.7" d="M602.476 204.529L602.828 211.604L608.116 212.076L602.828 212.548L602.476 219.623L602.123 212.548L596.835 212.076L602.123 211.604L602.476 204.529Z" fill="white"/>
<path opacity="0.7" d="M604.592 208.774L602.829 212.076L604.592 215.377L602.477 212.547L600.009 215.377L602.124 212.076L600.009 209.246L602.477 211.604L604.592 208.774Z" fill="white"/>
</g>
<g opacity="0.7">
<path opacity="0.7" d="M527.741 248.394L528.093 255.469L533.381 255.941L528.093 256.412L527.741 263.487L527.388 256.412L522.101 255.941L527.388 255.469L527.741 248.394Z" fill="white"/>
<path opacity="0.7" d="M529.857 252.639L528.095 255.941L529.857 259.242L527.742 256.412L525.274 259.242L527.39 255.941L525.274 253.111L527.742 255.469L529.857 252.639Z" fill="white"/>
</g>
<g opacity="0.7">
<path opacity="0.7" d="M559.822 61.6143L560.527 68.2176L565.462 69.1609H560.527L559.822 76.7075L559.47 69.1609H554.182L559.47 68.2176L559.822 61.6143Z" fill="white"/>
<path opacity="0.7" d="M562.291 65.8589L560.529 68.6889L562.291 71.9905L560.176 69.6322L557.356 71.9905L559.471 69.1605L557.356 65.8589L559.824 68.2172L562.291 65.8589Z" fill="white"/>
</g>
<path opacity="0.7" d="M678.528 582.607C678.528 581.664 678.88 581.192 679.585 581.192C680.29 581.192 680.643 581.664 680.643 582.607C680.643 583.551 680.29 584.022 679.585 584.022C679.233 584.022 678.528 583.551 678.528 582.607Z" fill="white"/>
<path opacity="0.7" d="M635.227 579.471C635.227 579 635.58 578.528 635.932 578.528C636.285 578.528 636.637 579 636.637 579.471C636.637 579.943 636.285 580.415 635.932 580.415C635.58 580.886 635.227 580.415 635.227 579.471Z" fill="white"/>
<path opacity="0.7" d="M723.805 509.788C723.805 509.316 724.158 508.845 724.51 508.845C724.863 508.845 725.215 509.316 725.215 509.788C725.215 510.26 724.863 510.731 724.51 510.731C724.158 510.731 723.805 510.26 723.805 509.788Z" fill="white"/>
<path opacity="0.7" d="M233.614 532.198C233.614 531.727 233.966 531.255 234.319 531.255C234.671 531.255 235.024 531.727 235.024 532.198C235.024 532.67 234.671 533.142 234.319 533.142C233.966 533.142 233.614 532.67 233.614 532.198Z" fill="white"/>
<path opacity="0.7" d="M623.833 634.861C623.833 634.39 624.185 633.918 624.538 633.918C624.89 633.918 625.243 634.39 625.243 634.861C625.243 635.333 624.89 635.805 624.538 635.805C624.185 635.805 623.833 635.333 623.833 634.861Z" fill="white"/>
<path opacity="0.7" d="M626.505 603.407C626.505 602.935 626.858 602.463 627.21 602.463C627.563 602.463 627.916 602.935 627.916 603.407C627.916 603.878 627.563 604.35 627.21 604.35C626.858 604.35 626.505 603.878 626.505 603.407Z" fill="white"/>
<path opacity="0.7" d="M587.89 765.505C587.89 764.562 588.242 764.09 588.947 764.09C589.652 764.09 590.005 764.562 590.005 765.505C590.005 766.449 589.652 766.92 588.947 766.92C588.242 766.92 587.89 765.977 587.89 765.505Z" fill="white"/>
<path opacity="0.7" d="M592.901 543.417C592.901 542.474 593.606 541.53 594.311 541.53C595.016 541.53 595.721 542.474 595.721 543.417C595.721 544.36 595.016 545.304 594.311 545.304C593.253 545.304 592.901 544.36 592.901 543.417Z" fill="white"/>
<path opacity="0.7" d="M645.757 783.857C645.757 782.914 646.462 781.971 647.167 781.971C647.872 781.971 648.577 782.914 648.577 783.857C648.577 784.801 647.872 785.744 647.167 785.744C646.462 785.744 645.757 785.272 645.757 783.857Z" fill="white"/>
<path opacity="0.7" d="M768.886 635.885C768.886 634.942 769.591 633.999 770.296 633.999C771.002 633.999 771.707 634.942 771.707 635.885C771.707 636.829 771.002 637.772 770.296 637.772C769.591 637.772 768.886 636.829 768.886 635.885Z" fill="white"/>
<path opacity="0.7" d="M794.891 488.966C794.891 488.023 795.596 487.079 796.301 487.079C797.006 487.079 797.711 488.023 797.711 488.966C797.711 489.909 797.006 490.853 796.301 490.853C795.244 490.853 794.891 489.909 794.891 488.966Z" fill="white"/>
<path opacity="0.7" d="M720.724 622.034C720.724 621.091 721.429 620.148 722.134 620.148C722.839 620.148 723.544 621.091 723.544 622.034C723.544 622.978 722.839 623.921 722.134 623.921C721.429 623.921 720.724 622.978 720.724 622.034Z" fill="white"/>
<path opacity="0.7" d="M756.773 497.539C756.773 496.595 757.126 496.124 757.831 496.124C758.536 496.124 758.888 496.595 758.888 497.539C758.888 498.482 758.536 498.954 757.831 498.954C757.126 498.954 756.773 498.482 756.773 497.539Z" fill="white"/>
<path opacity="0.7" d="M730.574 684.594C730.574 683.65 730.926 683.179 731.631 683.179C732.336 683.179 732.689 683.65 732.689 684.594C732.689 685.537 732.336 686.009 731.631 686.009C730.926 686.009 730.574 685.065 730.574 684.594Z" fill="white"/>
<path opacity="0.7" d="M352.785 694.743C352.785 694.272 353.137 693.8 353.49 693.8C353.842 693.8 354.195 694.272 354.195 694.743C354.195 695.215 353.842 695.687 353.49 695.687C353.137 695.687 352.785 695.687 352.785 694.743Z" fill="white"/>
<path opacity="0.7" d="M673.843 734.812C673.843 734.34 674.196 733.868 674.548 733.868C674.901 733.868 675.253 734.34 675.253 734.812C675.253 735.283 674.901 735.755 674.548 735.755C674.196 735.755 673.843 735.283 673.843 734.812Z" fill="white"/>
<path opacity="0.7" d="M645.129 676.068C645.129 675.596 645.482 675.125 645.835 675.125C646.187 675.125 646.54 675.596 646.54 676.068C646.54 676.54 646.187 677.011 645.835 677.011C645.482 677.011 645.129 676.54 645.129 676.068Z" fill="white"/>
<path opacity="0.7" d="M710.197 470.55C710.197 470.078 710.549 469.606 710.902 469.606C711.254 469.606 711.607 470.078 711.607 470.55C711.607 471.021 711.254 471.493 710.902 471.493C710.549 471.493 710.197 471.021 710.197 470.55Z" fill="white"/>
<path opacity="0.7" d="M690.583 775.27C690.583 774.326 691.288 773.383 691.993 773.383C692.698 773.383 693.403 774.326 693.403 775.27C693.403 776.213 692.698 777.156 691.993 777.156C691.288 777.156 690.583 776.213 690.583 775.27Z" fill="white"/>
<path opacity="0.7" d="M390.311 709.771C390.311 708.828 391.016 707.884 391.721 707.884C392.426 707.884 393.131 708.828 393.131 709.771C393.131 710.714 392.426 711.658 391.721 711.658C390.664 711.658 390.311 711.186 390.311 709.771Z" fill="white"/>
<path opacity="0.7" d="M792.761 515.712C792.761 514.769 793.113 514.297 793.818 514.297C794.523 514.297 794.876 514.769 794.876 515.712C794.876 516.655 794.523 517.127 793.818 517.127C793.113 517.127 792.761 516.655 792.761 515.712Z" fill="white"/>
<path opacity="0.7" d="M629.72 505.491C629.72 504.076 630.778 502.661 631.836 502.661C632.893 502.661 633.951 504.076 633.951 505.491C633.951 506.906 632.893 508.321 631.836 508.321C630.778 507.85 629.72 506.906 629.72 505.491Z" fill="white"/>
<path opacity="0.7" d="M690.788 558.429C690.788 557.958 691.141 557.486 691.493 557.486C691.846 557.486 692.198 557.958 692.198 558.429C692.198 558.901 691.846 559.373 691.493 559.373C691.141 559.844 690.788 559.373 690.788 558.429Z" fill="white"/>
<path opacity="0.7" d="M650.642 476.664C650.642 476.192 650.994 475.72 651.347 475.72C651.699 475.72 652.052 476.192 652.052 476.664C652.052 477.135 651.699 477.607 651.347 477.607C650.994 477.607 650.642 477.135 650.642 476.664Z" fill="white"/>
<path opacity="0.7" d="M306.319 559.149C306.319 558.678 306.671 558.206 307.024 558.206C307.376 558.206 307.729 558.678 307.729 559.149C307.729 559.621 307.376 560.093 307.024 560.093C306.671 560.093 306.319 559.621 306.319 559.149Z" fill="white"/>
<path opacity="0.7" d="M289.29 455.428C289.29 454.956 289.642 454.484 289.995 454.484C290.347 454.484 290.7 454.956 290.7 455.428C290.7 455.899 290.347 456.371 289.995 456.371C289.642 456.371 289.29 455.899 289.29 455.428Z" fill="white"/>
<path opacity="0.7" d="M395.353 469.187C395.353 468.715 395.705 468.244 396.058 468.244C396.41 468.244 396.763 468.715 396.763 469.187C396.763 469.659 396.41 470.13 396.058 470.13C395.705 470.13 395.353 469.659 395.353 469.187Z" fill="white"/>
<path opacity="0.7" d="M245.51 499.517C245.51 499.045 245.863 498.573 246.215 498.573C246.568 498.573 246.92 499.045 246.92 499.517C246.92 499.988 246.568 500.46 246.215 500.46C245.863 500.932 245.51 500.46 245.51 499.517Z" fill="white"/>
<path opacity="0.7" d="M306.027 495.885C306.027 494.942 306.732 493.999 307.437 493.999C308.142 493.999 308.847 494.942 308.847 495.885C308.847 496.829 308.142 497.772 307.437 497.772C306.732 497.772 306.027 496.829 306.027 495.885Z" fill="white"/>
<path opacity="0.7" d="M326.119 593.686C326.119 592.743 326.824 591.799 327.529 591.799C328.234 591.799 328.939 592.743 328.939 593.686C328.939 594.629 328.234 595.573 327.529 595.573C326.824 595.573 326.119 594.629 326.119 593.686Z" fill="white"/>
<path opacity="0.7" d="M308.36 446.406C308.36 445.934 308.713 445.462 309.065 445.462C309.418 445.462 309.771 445.934 309.771 446.406C309.771 446.877 309.418 447.349 309.065 447.349C308.713 447.349 308.36 446.877 308.36 446.406Z" fill="white"/>
<path opacity="0.7" d="M279.239 706.463C279.239 705.992 279.591 705.52 279.944 705.52C280.296 705.52 280.649 705.992 280.649 706.463C280.649 706.935 280.296 707.407 279.944 707.407C279.591 707.407 279.239 706.935 279.239 706.463Z" fill="white"/>
<path opacity="0.7" d="M285.953 644.597C285.953 644.125 286.305 643.653 286.658 643.653C287.01 643.653 287.363 644.125 287.363 644.597C287.363 645.068 287.01 645.54 286.658 645.54C286.305 645.54 285.953 645.068 285.953 644.597Z" fill="white"/>
<path opacity="0.7" d="M319.162 732.005C319.162 731.533 319.515 731.062 319.867 731.062C320.22 731.062 320.572 731.533 320.572 732.005C320.572 732.477 320.22 732.948 319.867 732.948C319.515 733.42 319.162 732.948 319.162 732.005Z" fill="white"/>
<path opacity="0.7" d="M295.976 746.921C295.976 745.978 296.681 745.034 297.386 745.034C298.091 745.034 298.796 745.978 298.796 746.921C298.796 747.864 298.091 748.808 297.386 748.808C296.681 748.808 295.976 747.864 295.976 746.921Z" fill="white"/>
<path opacity="0.7" d="M360.793 609.403C360.793 608.46 361.498 607.516 362.203 607.516C362.908 607.516 363.613 608.46 363.613 609.403C363.613 610.346 362.908 611.29 362.203 611.29C361.498 611.29 360.793 610.346 360.793 609.403Z" fill="white"/>
<path opacity="0.7" d="M382.039 537.193C382.039 536.721 382.392 536.25 382.744 536.25C383.097 536.25 383.449 536.721 383.449 537.193C383.449 537.665 383.097 538.136 382.744 538.136C382.392 538.136 382.039 537.665 382.039 537.193Z" fill="white"/>
<path opacity="0.7" d="M771.351 477.33C771.351 476.387 771.703 475.915 772.408 475.915C773.113 475.915 773.466 476.387 773.466 477.33C773.466 478.273 773.113 478.745 772.408 478.745C771.703 478.745 771.351 478.273 771.351 477.33Z" fill="white"/>
<path opacity="0.7" d="M489.531 568.162C489.531 566.747 490.589 565.332 491.647 565.332C492.704 565.332 493.762 566.747 493.762 568.162C493.762 569.577 492.704 570.992 491.647 570.992C490.589 570.52 489.531 569.577 489.531 568.162Z" fill="white"/>
<path opacity="0.7" d="M514.005 574.069C514.005 573.598 514.358 573.126 514.71 573.126C515.063 573.126 515.416 573.598 515.416 574.069C515.416 574.541 515.063 575.013 514.71 575.013C514.358 575.013 514.005 574.541 514.005 574.069Z" fill="white"/>
<path opacity="0.7" d="M552.811 689.274C552.811 688.803 553.163 688.331 553.516 688.331C553.868 688.331 554.221 688.803 554.221 689.274C554.221 689.746 553.868 690.218 553.516 690.218C553.163 690.689 552.811 690.218 552.811 689.274Z" fill="white"/>
<path opacity="0.7" d="M496.626 470.323C496.626 469.851 496.978 469.379 497.331 469.379C497.683 469.379 498.036 469.851 498.036 470.323C498.036 470.794 497.683 471.266 497.331 471.266C496.978 471.266 496.626 470.794 496.626 470.323Z" fill="white"/>
<path opacity="0.7" d="M536.534 496.334C536.534 495.862 536.887 495.391 537.239 495.391C537.592 495.391 537.944 495.862 537.944 496.334C537.944 496.806 537.592 497.277 537.239 497.277C536.887 497.277 536.534 496.806 536.534 496.334Z" fill="white"/>
<path opacity="0.7" d="M444.797 451.012C444.797 450.54 445.149 450.068 445.502 450.068C445.855 450.068 446.207 450.54 446.207 451.012C446.207 451.483 445.855 451.955 445.502 451.955C445.149 451.955 444.797 451.483 444.797 451.012Z" fill="white"/>
<path opacity="0.7" d="M554.635 520.308C554.635 519.836 554.987 519.364 555.34 519.364C555.692 519.364 556.045 519.836 556.045 520.308C556.045 520.779 555.692 521.251 555.34 521.251C554.987 521.723 554.635 521.251 554.635 520.308Z" fill="white"/>
<path opacity="0.7" d="M439.234 589.953C439.234 589.481 439.587 589.01 439.939 589.01C440.292 589.01 440.644 589.481 440.644 589.953C440.644 590.425 440.292 590.896 439.939 590.896C439.587 590.896 439.234 590.425 439.234 589.953Z" fill="white"/>
<path opacity="0.7" d="M517.438 620.606C517.438 620.134 517.79 619.663 518.143 619.663C518.495 619.663 518.848 620.134 518.848 620.606C518.848 621.078 518.495 621.549 518.143 621.549C517.79 621.549 517.438 621.078 517.438 620.606Z" fill="white"/>
<path opacity="0.7" d="M606.4 576.507C606.4 575.564 607.105 574.62 607.81 574.62C608.515 574.62 609.22 575.564 609.22 576.507C609.22 577.45 608.515 578.394 607.81 578.394C607.105 578.394 606.4 577.45 606.4 576.507Z" fill="white"/>
<path opacity="0.7" d="M590.95 600.903C590.95 599.96 591.655 599.017 592.36 599.017C593.065 599.017 593.771 599.96 593.771 600.903C593.771 601.847 593.065 602.79 592.36 602.79C591.655 602.79 590.95 601.847 590.95 600.903Z" fill="white"/>
<path opacity="0.7" d="M607.62 475.512C607.62 474.569 608.325 473.626 609.03 473.626C609.735 473.626 610.44 474.569 610.44 475.512C610.44 476.456 609.735 477.399 609.03 477.399C608.325 477.399 607.62 476.456 607.62 475.512Z" fill="white"/>
<path opacity="0.7" d="M533.807 608.606C533.807 607.663 534.512 606.719 535.217 606.719C535.922 606.719 536.627 607.663 536.627 608.606C536.627 609.549 535.922 610.493 535.217 610.493C534.512 610.493 533.807 609.549 533.807 608.606Z" fill="white"/>
<path opacity="0.7" d="M569.505 484.085C569.505 483.142 569.857 482.671 570.562 482.671C571.267 482.671 571.62 483.142 571.62 484.085C571.62 485.029 571.267 485.5 570.562 485.5C569.857 485.5 569.505 485.029 569.505 484.085Z" fill="white"/>
<path opacity="0.7" d="M464.899 530.966C464.899 529.551 465.956 528.136 467.014 528.136C468.071 528.136 469.129 529.551 469.129 530.966C469.129 532.381 468.071 533.796 467.014 533.796C465.604 533.796 464.899 532.853 464.899 530.966Z" fill="white"/>
<path opacity="0.7" d="M561.375 634.178C561.375 633.235 561.728 632.763 562.433 632.763C563.138 632.763 563.49 633.235 563.49 634.178C563.49 635.122 563.138 635.593 562.433 635.593C562.08 635.593 561.375 635.122 561.375 634.178Z" fill="white"/>
<path opacity="0.7" d="M574.641 787.673C574.641 787.201 574.993 786.73 575.346 786.73C575.699 786.73 576.051 787.201 576.051 787.673C576.051 788.145 575.699 788.616 575.346 788.616C574.993 789.088 574.641 788.616 574.641 787.673Z" fill="white"/>
<path opacity="0.7" d="M577.847 690.128C577.847 689.656 578.2 689.185 578.552 689.185C578.905 689.185 579.257 689.656 579.257 690.128C579.257 690.6 578.905 691.071 578.552 691.071C578.2 691.071 577.847 690.6 577.847 690.128Z" fill="white"/>
<path opacity="0.7" d="M486.575 721.358C486.575 720.887 486.927 720.415 487.28 720.415C487.632 720.415 487.985 720.887 487.985 721.358C487.985 721.83 487.632 722.302 487.28 722.302C486.927 722.302 486.575 721.83 486.575 721.358Z" fill="white"/>
<path opacity="0.7" d="M493.286 659.492C493.286 659.02 493.638 658.548 493.991 658.548C494.344 658.548 494.696 659.02 494.696 659.492C494.696 659.963 494.344 660.435 493.991 660.435C493.638 660.435 493.286 659.963 493.286 659.492Z" fill="white"/>
<path opacity="0.7" d="M526.499 746.9C526.499 746.428 526.851 745.957 527.204 745.957C527.556 745.957 527.909 746.428 527.909 746.9C527.909 747.372 527.556 747.843 527.204 747.843C526.851 748.315 526.499 747.843 526.499 746.9Z" fill="white"/>
<path opacity="0.7" d="M458.563 661.671C458.174 661.671 457.858 662.093 457.858 662.614C457.858 663.135 458.174 663.558 458.563 663.558C458.953 663.558 459.268 663.135 459.268 662.614C459.268 662.093 458.953 661.671 458.563 661.671Z" fill="white"/>
<path opacity="0.7" d="M544.234 771.318C544.234 770.847 544.586 770.375 544.939 770.375C545.291 770.375 545.644 770.847 545.644 771.318C545.644 771.79 545.291 772.262 544.939 772.262C544.586 772.262 544.234 771.79 544.234 771.318Z" fill="white"/>
<path opacity="0.7" d="M779.295 799.17C779.295 797.755 780.352 796.34 781.41 796.34C782.467 796.34 783.525 797.755 783.525 799.17C783.525 800.585 782.467 802 781.41 802C780 802 779.295 800.585 779.295 799.17Z" fill="white"/>
<path opacity="0.7" d="M503.663 761.841C503.663 760.898 504.368 759.955 505.073 759.955C505.778 759.955 506.483 760.898 506.483 761.841C506.483 762.785 505.778 763.728 505.073 763.728C504.368 763.728 503.663 762.785 503.663 761.841Z" fill="white"/>
<path opacity="0.7" d="M519.611 663.323C519.611 662.38 520.317 661.437 521.022 661.437C521.727 661.437 522.432 662.38 522.432 663.323C522.432 664.267 521.727 665.21 521.022 665.21C519.964 665.21 519.611 664.267 519.611 663.323Z" fill="white"/>
<path opacity="0.7" d="M542.197 689.98C542.197 689.037 542.902 688.093 543.608 688.093C544.313 688.093 545.018 689.037 545.018 689.98C545.018 690.923 544.313 691.867 543.608 691.867C542.55 691.867 542.197 691.395 542.197 689.98Z" fill="white"/>
<path opacity="0.7" d="M597.588 726.078C597.588 725.134 598.293 724.191 598.998 724.191C599.703 724.191 600.408 725.134 600.408 726.078C600.408 727.021 599.703 727.964 598.998 727.964C598.293 727.964 597.588 727.493 597.588 726.078Z" fill="white"/>
<path opacity="0.7" d="M559.454 735.122C559.454 734.179 559.806 733.707 560.511 733.707C561.216 733.707 561.569 734.179 561.569 735.122C561.569 736.065 561.216 736.537 560.511 736.537C559.806 736.537 559.454 735.594 559.454 735.122Z" fill="white"/>
<path opacity="0.7" d="M580.102 669.06C580.102 668.117 580.455 667.645 581.16 667.645C581.865 667.645 582.217 668.117 582.217 669.06C582.217 670.003 581.865 670.475 581.16 670.475C580.807 670.475 580.102 670.003 580.102 669.06Z" fill="white"/>
<path opacity="0.7" d="M515.808 696.561C515.808 695.618 516.161 695.146 516.866 695.146C517.571 695.146 517.923 695.618 517.923 696.561C517.923 697.504 517.571 697.976 516.866 697.976C516.513 697.976 515.808 697.504 515.808 696.561Z" fill="white"/>
<path opacity="0.7" d="M603.793 676.979C603.793 675.564 604.851 674.149 605.908 674.149C606.966 674.149 608.023 675.564 608.023 676.979C608.023 678.394 606.966 679.809 605.908 679.809C604.498 679.809 603.793 678.394 603.793 676.979Z" fill="white"/>
<path opacity="0.7" d="M506.752 508.365C506.752 507.894 507.105 507.422 507.457 507.422C507.81 507.422 508.162 507.894 508.162 508.365C508.162 508.837 507.81 509.309 507.457 509.309C507.105 509.309 506.752 508.837 506.752 508.365Z" fill="white"/>
<path opacity="0.7" d="M584.434 463.902C584.434 462.959 584.786 462.487 585.491 462.487C586.196 462.487 586.549 462.959 586.549 463.902C586.549 464.846 586.196 465.317 585.491 465.317C584.786 465.317 584.434 464.846 584.434 463.902Z" fill="white"/>
<path opacity="0.7" d="M466.479 738.336C466.479 737.865 466.831 737.393 467.184 737.393C467.536 737.393 467.889 737.865 467.889 738.336C467.889 738.808 467.536 739.28 467.184 739.28C466.831 739.28 466.479 738.808 466.479 738.336Z" fill="white"/>
<path opacity="0.7" d="M479.58 622.71C479.58 621.295 480.638 619.88 481.695 619.88C482.753 619.88 483.811 621.295 483.811 622.71C483.811 624.125 482.753 625.54 481.695 625.54C480.638 625.54 479.58 624.125 479.58 622.71Z" fill="white"/>
<path opacity="0.7" d="M458.134 664.575C458.134 663.632 458.839 662.689 459.544 662.689C460.249 662.689 460.954 663.632 460.954 664.575C460.954 665.519 460.249 666.462 459.544 666.462C458.486 666.462 458.134 665.519 458.134 664.575Z" fill="white"/>
<path opacity="0.7" d="M430.924 735.833C430.924 734.89 431.629 733.946 432.334 733.946C433.039 733.946 433.744 734.89 433.744 735.833C433.744 736.776 433.039 737.72 432.334 737.72C431.276 737.72 430.924 736.776 430.924 735.833Z" fill="white"/>
<path opacity="0.7" d="M447.612 609.972C447.612 609.029 448.317 608.086 449.023 608.086C449.728 608.086 450.433 609.029 450.433 609.972C450.433 610.916 449.728 611.859 449.023 611.859C448.317 611.859 447.612 610.916 447.612 609.972Z" fill="white"/>
<path opacity="0.7" d="M424.053 598.807C424.053 597.864 424.406 597.392 425.111 597.392C425.816 597.392 426.168 597.864 426.168 598.807C426.168 599.75 425.816 600.222 425.111 600.222C424.758 600.222 424.053 599.279 424.053 598.807Z" fill="white"/>
<path opacity="0.7" d="M319.436 645.957C319.436 646.428 319.084 646.9 318.731 646.9C318.379 646.9 318.026 646.428 318.026 645.957C318.026 645.485 318.379 645.013 318.731 645.013C319.084 644.542 319.436 645.013 319.436 645.957Z" fill="white"/>
<path opacity="0.7" d="M336.461 749.678C336.461 750.149 336.108 750.621 335.756 750.621C335.403 750.621 335.051 750.149 335.051 749.678C335.051 749.206 335.403 748.734 335.756 748.734C336.108 748.734 336.461 748.734 336.461 749.678Z" fill="white"/>
<path opacity="0.7" d="M394.222 629.601C394.222 630.073 393.87 630.544 393.517 630.544C393.165 630.544 392.812 630.073 392.812 629.601C392.812 629.129 393.165 628.658 393.517 628.658C393.87 628.658 394.222 629.129 394.222 629.601Z" fill="white"/>
<path opacity="0.7" d="M380.767 745.202C380.767 746.617 379.709 748.032 378.651 748.032C377.594 748.032 376.536 746.617 376.536 745.202C376.536 743.787 377.594 742.372 378.651 742.372C379.709 742.372 380.767 743.787 380.767 745.202Z" fill="white"/>
<path opacity="0.7" d="M319.74 708.75C319.74 709.693 319.035 710.636 318.33 710.636C317.625 710.636 316.92 709.693 316.92 708.75C316.92 707.806 317.625 706.863 318.33 706.863C319.035 706.863 319.74 707.806 319.74 708.75Z" fill="white"/>
<path opacity="0.7" d="M339.817 560.038C339.817 560.509 339.465 560.981 339.112 560.981C338.759 560.981 338.407 560.509 338.407 560.038C338.407 559.566 338.759 559.094 339.112 559.094C339.465 559.094 339.817 559.566 339.817 560.038Z" fill="white"/>
<path opacity="0.7" d="M329.773 458.184C329.773 459.127 329.068 460.07 328.363 460.07C327.658 460.07 326.953 459.127 326.953 458.184C326.953 457.24 327.658 456.297 328.363 456.297C329.068 456.297 329.773 456.769 329.773 458.184Z" fill="white"/>
<path opacity="0.7" d="M644.804 745.85C644.804 746.322 644.452 746.793 644.099 746.793C643.747 746.793 643.394 746.322 643.394 745.85C643.394 745.378 643.747 744.907 644.099 744.907C644.452 744.907 644.804 745.378 644.804 745.85Z" fill="white"/>
<path opacity="0.7" d="M381.098 692.847C381.098 693.79 380.393 694.733 379.688 694.733C378.983 694.733 378.278 693.79 378.278 692.847C378.278 691.903 378.983 690.96 379.688 690.96C380.393 690.96 381.098 691.903 381.098 692.847Z" fill="white"/>
<path opacity="0.7" d="M412.736 757.941C412.736 758.884 412.031 759.828 411.326 759.828C410.621 759.828 409.916 758.884 409.916 757.941C409.916 756.998 410.621 756.054 411.326 756.054C412.031 756.054 412.736 756.998 412.736 757.941Z" fill="white"/>
<path opacity="0.7" d="M422.787 506.904C422.787 507.848 422.082 508.791 421.377 508.791C420.672 508.791 419.967 507.848 419.967 506.904C419.967 505.961 420.672 505.018 421.377 505.018C422.435 505.018 422.787 505.961 422.787 506.904Z" fill="white"/>
<path opacity="0.7" d="M416.583 556.004C416.583 557.419 415.525 558.834 414.468 558.834C413.41 558.834 412.353 557.419 412.353 556.004C412.353 554.589 413.41 553.174 414.468 553.174C415.878 553.646 416.583 554.589 416.583 556.004Z" fill="white"/>
<path opacity="0.7" d="M154.03 544.928C154.03 543.984 154.382 543.513 155.088 543.513C155.793 543.513 156.145 543.984 156.145 544.928C156.145 545.871 155.793 546.343 155.088 546.343C154.735 546.343 154.03 545.871 154.03 544.928Z" fill="white"/>
<path opacity="0.7" d="M176.425 549.818C176.425 549.346 176.777 548.875 177.13 548.875C177.482 548.875 177.835 549.346 177.835 549.818C177.835 550.29 177.482 550.761 177.13 550.761C176.777 550.761 176.425 550.29 176.425 549.818Z" fill="white"/>
<path opacity="0.7" d="M110.729 541.792C110.729 541.32 111.081 540.848 111.434 540.848C111.786 540.848 112.139 541.32 112.139 541.792C112.139 542.263 111.786 542.735 111.434 542.735C111.081 543.207 110.729 542.735 110.729 541.792Z" fill="white"/>
<path opacity="0.7" d="M159.396 446.096C159.396 445.625 159.749 445.153 160.101 445.153C160.454 445.153 160.806 445.625 160.806 446.096C160.806 446.568 160.454 447.04 160.101 447.04C159.749 447.04 159.396 446.568 159.396 446.096Z" fill="white"/>
<path opacity="0.7" d="M703.379 728.904C703.379 728.432 703.732 727.961 704.084 727.961C704.437 727.961 704.789 728.432 704.789 728.904C704.789 729.376 704.437 729.847 704.084 729.847C703.732 730.319 703.379 729.847 703.379 728.904Z" fill="white"/>
<path opacity="0.7" d="M25.5841 499.305C25.5841 498.833 25.9367 498.361 26.2892 498.361C26.6417 498.361 26.9941 498.833 26.9941 499.305C26.9941 499.776 26.6417 500.248 26.2892 500.248C25.9367 500.72 25.5841 500.248 25.5841 499.305Z" fill="white"/>
<path opacity="0.7" d="M102.008 565.728C102.008 565.256 102.36 564.784 102.713 564.784C103.065 564.784 103.418 565.256 103.418 565.728C103.418 566.199 103.065 566.671 102.713 566.671C102.36 566.671 102.008 566.199 102.008 565.728Z" fill="white"/>
<path opacity="0.7" d="M179.857 596.354C179.857 595.882 180.209 595.411 180.562 595.411C180.915 595.411 181.267 595.882 181.267 596.354C181.267 596.826 180.915 597.297 180.562 597.297C180.209 597.297 179.857 596.826 179.857 596.354Z" fill="white"/>
<path opacity="0.7" d="M195.409 534.203C195.409 533.259 195.761 532.788 196.466 532.788C197.171 532.788 197.524 533.259 197.524 534.203C197.524 535.146 197.171 535.618 196.466 535.618C196.114 535.618 195.409 535.146 195.409 534.203Z" fill="white"/>
<path opacity="0.7" d="M796.445 758.836C796.445 757.421 797.502 756.006 798.56 756.006C799.617 756.006 800.675 757.421 800.675 758.836C800.675 760.251 799.617 761.666 798.56 761.666C797.15 761.194 796.445 760.251 796.445 758.836Z" fill="white"/>
<path opacity="0.7" d="M253.37 576.651C253.37 575.708 254.075 574.765 254.78 574.765C255.485 574.765 256.19 575.708 256.19 576.651C256.19 577.595 255.485 578.538 254.78 578.538C254.075 578.538 253.37 577.595 253.37 576.651Z" fill="white"/>
<path opacity="0.7" d="M196.226 584.355C196.226 583.411 196.931 582.468 197.636 582.468C198.341 582.468 199.046 583.411 199.046 584.355C199.046 585.298 198.341 586.241 197.636 586.241C196.931 586.241 196.226 585.298 196.226 584.355Z" fill="white"/>
<path opacity="0.7" d="M237.414 763.447C237.414 762.975 237.767 762.503 238.119 762.503C238.472 762.503 238.824 762.975 238.824 763.447C238.824 763.918 238.472 764.39 238.119 764.39C237.767 764.862 237.414 764.39 237.414 763.447Z" fill="white"/>
<path opacity="0.7" d="M92.6944 710.068C92.6944 709.596 93.0469 709.125 93.3994 709.125C93.752 709.125 94.1045 709.596 94.1045 710.068C94.1045 710.54 93.752 711.011 93.3994 711.011C93.0469 711.483 92.6944 711.011 92.6944 710.068Z" fill="white"/>
<path opacity="0.7" d="M149.345 697.132C149.345 696.661 149.698 696.189 150.05 696.189C150.403 696.189 150.755 696.661 150.755 697.132C150.755 697.604 150.403 698.076 150.05 698.076C149.698 698.076 149.345 697.604 149.345 697.132Z" fill="white"/>
<path opacity="0.7" d="M156.058 635.265C156.058 634.793 156.411 634.322 156.763 634.322C157.116 634.322 157.469 634.793 157.469 635.265C157.469 635.737 157.116 636.208 156.763 636.208C156.411 636.208 156.058 635.737 156.058 635.265Z" fill="white"/>
<path opacity="0.7" d="M189.271 722.673C189.271 722.202 189.624 721.73 189.976 721.73C190.329 721.73 190.681 722.202 190.681 722.673C190.681 723.145 190.329 723.617 189.976 723.617C189.624 724.088 189.271 723.617 189.271 722.673Z" fill="white"/>
<path opacity="0.7" d="M120.631 638.388C120.631 637.917 120.984 637.445 121.336 637.445C121.689 637.445 122.042 637.917 122.042 638.388C122.042 638.86 121.689 639.332 121.336 639.332C120.984 639.332 120.631 638.86 120.631 638.388Z" fill="white"/>
<path opacity="0.7" d="M207.007 747.092C207.007 746.621 207.36 746.149 207.712 746.149C208.065 746.149 208.417 746.621 208.417 747.092C208.417 747.564 208.065 748.036 207.712 748.036C207.36 748.036 207.007 747.564 207.007 747.092Z" fill="white"/>
<path opacity="0.7" d="M166.085 737.59C166.085 736.647 166.79 735.703 167.495 735.703C168.2 735.703 168.906 736.647 168.906 737.59C168.906 738.533 168.2 739.477 167.495 739.477C166.79 739.477 166.085 738.533 166.085 737.59Z" fill="white"/>
<path opacity="0.7" d="M182.03 639.072C182.03 638.129 182.735 637.186 183.441 637.186C184.146 637.186 184.851 638.129 184.851 639.072C184.851 640.016 184.146 640.959 183.441 640.959C182.735 640.959 182.03 640.016 182.03 639.072Z" fill="white"/>
<path opacity="0.7" d="M204.617 665.729C204.617 664.785 205.322 663.842 206.027 663.842C206.732 663.842 207.437 664.785 207.437 665.729C207.437 666.672 206.732 667.615 206.027 667.615C205.322 667.615 204.617 667.144 204.617 665.729Z" fill="white"/>
<path opacity="0.7" d="M260.01 701.827C260.01 700.883 260.715 699.94 261.42 699.94C262.125 699.94 262.83 700.883 262.83 701.827C262.83 702.77 262.125 703.713 261.42 703.713C260.715 703.713 260.01 703.242 260.01 701.827Z" fill="white"/>
<path opacity="0.7" d="M222.223 710.896C222.223 709.953 222.576 709.481 223.281 709.481C223.986 709.481 224.339 709.953 224.339 710.896C224.339 711.839 223.986 712.311 223.281 712.311C222.576 712.311 222.223 711.368 222.223 710.896Z" fill="white"/>
<path opacity="0.7" d="M166.29 520.75C166.29 520.278 166.643 519.806 166.995 519.806C167.348 519.806 167.7 520.278 167.7 520.75C167.7 521.221 167.348 521.693 166.995 521.693C166.643 522.165 166.29 521.693 166.29 520.75Z" fill="white"/>
<path opacity="0.7" d="M376.06 501.388C376.06 500.445 376.765 499.502 377.47 499.502C378.175 499.502 378.88 500.445 378.88 501.388C378.88 502.332 378.175 503.275 377.47 503.275C376.765 503.275 376.06 502.803 376.06 501.388Z" fill="white"/>
<path opacity="0.7" d="M103.541 439.25C103.541 438.778 103.893 438.306 104.246 438.306C104.598 438.306 104.951 438.778 104.951 439.25C104.951 439.721 104.598 440.193 104.246 440.193C103.893 440.193 103.541 439.721 103.541 439.25Z" fill="white"/>
<path opacity="0.7" d="M246.853 439.651C246.853 438.708 247.205 438.236 247.91 438.236C248.615 438.236 248.968 438.708 248.968 439.651C248.968 440.594 248.615 441.066 247.91 441.066C247.205 441.066 246.853 440.594 246.853 439.651Z" fill="white"/>
<path opacity="0.7" d="M28.3125 651.595C28.3125 651.124 28.6651 650.652 29.0176 650.652C29.3701 650.652 29.7227 651.124 29.7227 651.595C29.7227 652.067 29.3701 652.539 29.0176 652.539C28.6651 653.01 28.3125 652.539 28.3125 651.595Z" fill="white"/>
<path opacity="0.7" d="M12.0363 458.655C12.0363 458.183 12.3888 457.711 12.7413 457.711C13.0938 457.711 13.4463 458.183 13.4463 458.655C13.4463 459.126 13.0938 459.598 12.7413 459.598C12.3888 459.598 12.0363 459.126 12.0363 458.655Z" fill="white"/>
<path opacity="0.7" d="M81.9021 538.828C81.9021 537.884 82.6071 536.941 83.3121 536.941C84.0171 536.941 84.7222 537.884 84.7222 538.828C84.7222 539.771 84.0171 540.714 83.3121 540.714C82.6071 540.714 81.9021 539.771 81.9021 538.828Z" fill="white"/>
<path opacity="0.7" d="M66.4525 563.223C66.4525 562.28 67.1576 561.337 67.8626 561.337C68.5677 561.337 69.2727 562.28 69.2727 563.223C69.2727 564.167 68.5677 565.11 67.8626 565.11C66.8051 565.11 66.4525 564.167 66.4525 563.223Z" fill="white"/>
<path opacity="0.7" d="M83.1222 437.833C83.1222 436.889 83.8272 435.946 84.5323 435.946C85.2373 435.946 85.9424 436.889 85.9424 437.833C85.9424 438.776 85.2373 439.719 84.5323 439.719C83.8272 439.719 83.1222 438.776 83.1222 437.833Z" fill="white"/>
<path opacity="0.7" d="M9.30815 570.927C9.30815 569.983 10.0131 569.04 10.7182 569.04C11.4232 569.04 12.1282 569.983 12.1282 570.927C12.1282 571.87 11.4232 572.813 10.7182 572.813C9.66064 572.813 9.30815 571.87 9.30815 570.927Z" fill="white"/>
<path opacity="0.7" d="M45.0063 446.406C45.0063 445.462 45.3588 444.991 46.0638 444.991C46.7689 444.991 47.1213 445.462 47.1213 446.406C47.1213 447.349 46.7689 447.821 46.0638 447.821C45.3588 447.821 45.0063 447.349 45.0063 446.406Z" fill="white"/>
<path opacity="0.7" d="M36.8771 596.499C36.8771 595.556 37.2296 595.084 37.9346 595.084C38.6397 595.084 38.9922 595.556 38.9922 596.499C38.9922 597.442 38.6397 597.914 37.9346 597.914C37.2296 597.914 36.8771 597.442 36.8771 596.499Z" fill="white"/>
<path opacity="0.7" d="M50.1431 749.993C50.1431 749.522 50.4956 749.05 50.8482 749.05C51.2007 749.05 51.5532 749.522 51.5532 749.993C51.5532 750.465 51.2007 750.937 50.8482 750.937C50.4956 751.408 50.1431 750.937 50.1431 749.993Z" fill="white"/>
<path opacity="0.7" d="M2.00039 709.22C2.00039 708.749 2.35289 708.277 2.7054 708.277C3.0579 708.277 3.4104 708.749 3.4104 709.22C3.4104 709.692 3.0579 710.164 2.7054 710.164C2.35289 710.635 2.00039 710.164 2.00039 709.22Z" fill="white"/>
<path opacity="0.7" d="M19.7362 733.639C19.7362 733.167 20.0887 732.695 20.4412 732.695C20.7937 732.695 21.1462 733.167 21.1462 733.639C21.1462 734.11 20.7937 734.582 20.4412 734.582C20.0887 734.582 19.7362 734.11 19.7362 733.639Z" fill="white"/>
<path opacity="0.7" d="M463.702 490.258C463.702 488.843 464.76 487.428 465.817 487.428C466.875 487.428 467.932 488.843 467.932 490.258C467.932 491.673 466.875 493.088 465.817 493.088C464.407 492.617 463.702 491.673 463.702 490.258Z" fill="white"/>
<g opacity="0.7">
<path opacity="0.7" d="M415.932 697.797L415.579 687.892L407.824 686.949L415.227 686.477L415.932 676.1L416.637 686.477L424.04 686.949L416.637 687.892L415.932 697.797Z" fill="white"/>
<path opacity="0.7" d="M412.76 691.665L415.227 687.42L412.76 682.703L415.932 686.477L419.458 682.232L416.637 686.948L419.458 691.665L415.932 687.892L412.76 691.665Z" fill="white"/>
</g>
<g opacity="0.7">
<path opacity="0.7" d="M495.028 723.79L494.323 713.885L486.92 712.941L494.323 712.47L495.028 702.093L495.733 712.47L503.136 712.941L495.733 713.885L495.028 723.79Z" fill="white"/>
<path opacity="0.7" d="M491.856 717.658L494.323 712.941L491.856 708.696L495.029 711.998L498.554 708.224L495.381 712.941L498.554 717.186L495.029 713.884L491.856 717.658Z" fill="white"/>
</g>
<g opacity="0.7">
<path opacity="0.7" d="M454.264 460.132L453.911 453.529L448.623 452.586H453.911L454.264 445.039L454.616 452.586H459.904L454.616 453.529L454.264 460.132Z" fill="white"/>
<path opacity="0.7" d="M452.147 455.887L453.91 453.057L452.147 449.756L454.262 452.586L456.73 449.756L454.615 453.057L456.73 455.887L454.262 453.529L452.147 455.887Z" fill="white"/>
</g>
<g opacity="0.7">
<path opacity="0.7" d="M618.962 746.396L618.61 739.792L613.322 738.849H618.257L618.962 731.302L619.315 738.849H624.603L619.315 739.792L618.962 746.396Z" fill="white"/>
<path opacity="0.7" d="M616.493 742.151L618.256 739.321L616.493 736.019L618.961 738.378L621.429 736.019L619.314 738.849L621.429 742.151L618.961 739.793L616.493 742.151Z" fill="white"/>
</g>
<g opacity="0.7">
<path opacity="0.7" d="M291.289 730.414L290.937 723.811L285.649 722.867H290.937L291.289 715.321L291.642 722.867H296.929L291.642 723.811L291.289 730.414Z" fill="white"/>
<path opacity="0.7" d="M288.82 726.169L290.936 723.339L288.82 720.037L291.288 722.396L293.756 720.037L291.641 722.867L293.756 726.169L291.288 723.811L288.82 726.169Z" fill="white"/>
</g>
<g opacity="0.7">
<path opacity="0.7" d="M150.572 465.707L149.867 456.273L142.464 454.858H149.867L150.572 444.01L151.277 454.858H158.679L151.277 456.273L150.572 465.707Z" fill="white"/>
<path opacity="0.7" d="M147.4 460.047L149.867 455.33L147.4 450.614L150.572 454.387L154.097 450.614L150.925 455.33L154.097 459.575L150.572 456.274L147.4 460.047Z" fill="white"/>
</g>
<g opacity="0.7">
<path opacity="0.7" d="M89.5345 708.362L89.182 701.759L83.8942 700.815H89.182L89.5345 693.269L89.887 700.815H95.1748L89.887 701.759L89.5345 708.362Z" fill="white"/>
<path opacity="0.7" d="M87.4182 704.117L89.1808 701.287L87.4182 697.986L89.5334 700.344L92.001 697.986L89.8858 700.816L92.001 704.117L89.5334 701.759L87.4182 704.117Z" fill="white"/>
</g>
<g opacity="0.7">
<path opacity="0.7" d="M208.107 559.59L207.755 552.515L202.467 552.043L207.755 551.572L208.107 544.497L208.46 551.572L213.748 552.043L208.46 552.515L208.107 559.59Z" fill="white"/>
<path opacity="0.7" d="M205.991 555.345L207.754 552.044L205.991 548.742L208.106 551.572L210.574 548.742L208.459 552.044L210.574 554.874L208.106 552.515L205.991 555.345Z" fill="white"/>
</g>
<g opacity="0.7">
<path opacity="0.7" d="M284.489 521.149L284.136 514.074L278.848 513.602L284.136 513.131L284.489 506.056L284.841 513.131L290.129 513.602L284.841 514.074L284.489 521.149Z" fill="white"/>
<path opacity="0.7" d="M282.372 516.904L284.135 513.603L282.372 510.301L284.487 513.131L286.955 510.301L284.84 513.603L286.955 516.433L284.487 514.074L282.372 516.904Z" fill="white"/>
</g>
<path opacity="0.7" d="M678.528 402.286C678.528 401.343 678.88 400.871 679.585 400.871C680.29 400.871 680.643 401.343 680.643 402.286C680.643 403.23 680.29 403.701 679.585 403.701C679.233 403.701 678.528 403.23 678.528 402.286Z" fill="white"/>
<path opacity="0.7" d="M635.227 399.15C635.227 398.679 635.58 398.207 635.932 398.207C636.285 398.207 636.637 398.679 636.637 399.15C636.637 399.622 636.285 400.094 635.932 400.094C635.58 400.565 635.227 400.094 635.227 399.15Z" fill="white"/>
<path opacity="0.7" d="M233.614 351.878C233.614 351.406 233.966 350.935 234.319 350.935C234.671 350.935 235.024 351.406 235.024 351.878C235.024 352.35 234.671 352.821 234.319 352.821C233.966 352.821 233.614 352.35 233.614 351.878Z" fill="white"/>
<path opacity="0.7" d="M626.505 423.086C626.505 422.614 626.858 422.143 627.21 422.143C627.563 422.143 627.916 422.614 627.916 423.086C627.916 423.558 627.563 424.029 627.21 424.029C626.858 424.029 626.505 423.558 626.505 423.086Z" fill="white"/>
<path opacity="0.7" d="M592.901 363.097C592.901 362.153 593.606 361.21 594.311 361.21C595.016 361.21 595.721 362.153 595.721 363.097C595.721 364.04 595.016 364.983 594.311 364.983C593.253 364.983 592.901 364.04 592.901 363.097Z" fill="white"/>
<path opacity="0.7" d="M720.724 441.714C720.724 440.771 721.429 439.827 722.134 439.827C722.839 439.827 723.544 440.771 723.544 441.714C723.544 442.657 722.839 443.601 722.134 443.601C721.429 443.601 720.724 442.657 720.724 441.714Z" fill="white"/>
<path opacity="0.7" d="M690.788 378.109C690.788 377.637 691.141 377.166 691.493 377.166C691.846 377.166 692.198 377.637 692.198 378.109C692.198 378.581 691.846 379.052 691.493 379.052C691.141 379.524 690.788 379.052 690.788 378.109Z" fill="white"/>
<path opacity="0.7" d="M306.319 378.829C306.319 378.357 306.671 377.885 307.024 377.885C307.376 377.885 307.729 378.357 307.729 378.829C307.729 379.3 307.376 379.772 307.024 379.772C306.671 379.772 306.319 379.3 306.319 378.829Z" fill="white"/>
<path opacity="0.7" d="M326.119 413.366C326.119 412.422 326.824 411.479 327.529 411.479C328.234 411.479 328.939 412.422 328.939 413.366C328.939 414.309 328.234 415.252 327.529 415.252C326.824 415.252 326.119 414.309 326.119 413.366Z" fill="white"/>
<path opacity="0.7" d="M360.793 429.082C360.793 428.139 361.498 427.195 362.203 427.195C362.908 427.195 363.613 428.139 363.613 429.082C363.613 430.025 362.908 430.969 362.203 430.969C361.498 430.969 360.793 430.025 360.793 429.082Z" fill="white"/>
<path opacity="0.7" d="M382.039 356.872C382.039 356.4 382.392 355.929 382.744 355.929C383.097 355.929 383.449 356.4 383.449 356.872C383.449 357.344 383.097 357.815 382.744 357.815C382.392 357.815 382.039 357.344 382.039 356.872Z" fill="white"/>
<path opacity="0.7" d="M489.531 387.841C489.531 386.426 490.589 385.011 491.647 385.011C492.704 385.011 493.762 386.426 493.762 387.841C493.762 389.256 492.704 390.671 491.647 390.671C490.589 390.199 489.531 389.256 489.531 387.841Z" fill="white"/>
<path opacity="0.7" d="M514.005 393.749C514.005 393.277 514.358 392.805 514.71 392.805C515.063 392.805 515.416 393.277 515.416 393.749C515.416 394.22 515.063 394.692 514.71 394.692C514.358 394.692 514.005 394.22 514.005 393.749Z" fill="white"/>
<path opacity="0.7" d="M554.635 339.987C554.635 339.515 554.987 339.044 555.34 339.044C555.692 339.044 556.045 339.515 556.045 339.987C556.045 340.459 555.692 340.93 555.34 340.93C554.987 341.402 554.635 340.93 554.635 339.987Z" fill="white"/>
<path opacity="0.7" d="M439.234 409.633C439.234 409.161 439.587 408.69 439.939 408.69C440.292 408.69 440.644 409.161 440.644 409.633C440.644 410.104 440.292 410.576 439.939 410.576C439.587 410.576 439.234 410.104 439.234 409.633Z" fill="white"/>
<path opacity="0.7" d="M517.438 440.285C517.438 439.814 517.79 439.342 518.143 439.342C518.495 439.342 518.848 439.814 518.848 440.285C518.848 440.757 518.495 441.229 518.143 441.229C517.79 441.229 517.438 440.757 517.438 440.285Z" fill="white"/>
<path opacity="0.7" d="M606.4 396.186C606.4 395.243 607.105 394.299 607.81 394.299C608.515 394.299 609.22 395.243 609.22 396.186C609.22 397.129 608.515 398.073 607.81 398.073C607.105 398.073 606.4 397.129 606.4 396.186Z" fill="white"/>
<path opacity="0.7" d="M590.95 420.583C590.95 419.639 591.655 418.696 592.36 418.696C593.065 418.696 593.771 419.639 593.771 420.583C593.771 421.526 593.065 422.469 592.36 422.469C591.655 422.469 590.95 421.526 590.95 420.583Z" fill="white"/>
<path opacity="0.7" d="M533.807 428.285C533.807 427.342 534.512 426.399 535.217 426.399C535.922 426.399 536.627 427.342 536.627 428.285C536.627 429.229 535.922 430.172 535.217 430.172C534.512 430.172 533.807 429.229 533.807 428.285Z" fill="white"/>
<path opacity="0.7" d="M464.899 350.646C464.899 349.231 465.956 347.816 467.014 347.816C468.071 347.816 469.129 349.231 469.129 350.646C469.129 352.061 468.071 353.476 467.014 353.476C465.604 353.476 464.899 352.532 464.899 350.646Z" fill="white"/>
<path opacity="0.7" d="M479.58 442.39C479.58 440.975 480.638 439.56 481.695 439.56C482.753 439.56 483.811 440.975 483.811 442.39C483.811 443.805 482.753 445.22 481.695 445.22C480.638 445.22 479.58 443.805 479.58 442.39Z" fill="white"/>
<path opacity="0.7" d="M447.612 429.651C447.612 428.708 448.317 427.765 449.023 427.765C449.728 427.765 450.433 428.708 450.433 429.651C450.433 430.595 449.728 431.538 449.023 431.538C448.317 431.538 447.612 430.595 447.612 429.651Z" fill="white"/>
<path opacity="0.7" d="M424.053 418.487C424.053 417.544 424.406 417.072 425.111 417.072C425.816 417.072 426.168 417.544 426.168 418.487C426.168 419.43 425.816 419.902 425.111 419.902C424.758 419.902 424.053 418.959 424.053 418.487Z" fill="white"/>
<path opacity="0.7" d="M394.222 449.281C394.222 449.752 393.87 450.224 393.517 450.224C393.165 450.224 392.812 449.752 392.812 449.281C392.812 448.809 393.165 448.337 393.517 448.337C393.87 448.337 394.222 448.809 394.222 449.281Z" fill="white"/>
<path opacity="0.7" d="M339.817 379.717C339.817 380.189 339.465 380.66 339.112 380.66C338.759 380.66 338.407 380.189 338.407 379.717C338.407 379.245 338.759 378.773 339.112 378.773C339.465 378.773 339.817 379.245 339.817 379.717Z" fill="white"/>
<path opacity="0.7" d="M416.583 375.683C416.583 377.098 415.525 378.513 414.468 378.513C413.41 378.513 412.353 377.098 412.353 375.683C412.353 374.268 413.41 372.853 414.468 372.853C415.878 373.325 416.583 374.268 416.583 375.683Z" fill="white"/>
<path opacity="0.7" d="M154.03 364.607C154.03 363.664 154.382 363.192 155.088 363.192C155.793 363.192 156.145 363.664 156.145 364.607C156.145 365.55 155.793 366.022 155.088 366.022C154.735 366.022 154.03 365.55 154.03 364.607Z" fill="white"/>
<path opacity="0.7" d="M176.425 369.497C176.425 369.025 176.777 368.554 177.13 368.554C177.482 368.554 177.835 369.025 177.835 369.497C177.835 369.969 177.482 370.44 177.13 370.44C176.777 370.44 176.425 369.969 176.425 369.497Z" fill="white"/>
<path opacity="0.7" d="M110.729 361.471C110.729 361 111.081 360.528 111.434 360.528C111.786 360.528 112.139 361 112.139 361.471C112.139 361.943 111.786 362.415 111.434 362.415C111.081 362.886 110.729 362.415 110.729 361.471Z" fill="white"/>
<path opacity="0.7" d="M102.008 385.407C102.008 384.935 102.36 384.463 102.713 384.463C103.065 384.463 103.418 384.935 103.418 385.407C103.418 385.878 103.065 386.35 102.713 386.35C102.36 386.35 102.008 385.878 102.008 385.407Z" fill="white"/>
<path opacity="0.7" d="M179.857 416.034C179.857 415.562 180.209 415.09 180.562 415.09C180.915 415.09 181.267 415.562 181.267 416.034C181.267 416.505 180.915 416.977 180.562 416.977C180.209 416.977 179.857 416.505 179.857 416.034Z" fill="white"/>
<path opacity="0.7" d="M195.409 353.882C195.409 352.939 195.761 352.467 196.466 352.467C197.171 352.467 197.524 352.939 197.524 353.882C197.524 354.826 197.171 355.297 196.466 355.297C196.114 355.297 195.409 354.826 195.409 353.882Z" fill="white"/>
<path opacity="0.7" d="M253.37 396.331C253.37 395.387 254.075 394.444 254.78 394.444C255.485 394.444 256.19 395.387 256.19 396.331C256.19 397.274 255.485 398.217 254.78 398.217C254.075 398.217 253.37 397.274 253.37 396.331Z" fill="white"/>
<path opacity="0.7" d="M196.226 404.034C196.226 403.091 196.931 402.148 197.636 402.148C198.341 402.148 199.046 403.091 199.046 404.034C199.046 404.978 198.341 405.921 197.636 405.921C196.931 405.921 196.226 404.978 196.226 404.034Z" fill="white"/>
<path opacity="0.7" d="M166.29 340.429C166.29 339.958 166.643 339.486 166.995 339.486C167.348 339.486 167.7 339.958 167.7 340.429C167.7 340.901 167.348 341.373 166.995 341.373C166.643 341.844 166.29 341.373 166.29 340.429Z" fill="white"/>
<path opacity="0.7" d="M81.9021 358.507C81.9021 357.564 82.6071 356.62 83.3121 356.62C84.0171 356.62 84.7222 357.564 84.7222 358.507C84.7222 359.45 84.0171 360.394 83.3121 360.394C82.6071 360.394 81.9021 359.45 81.9021 358.507Z" fill="white"/>
<path opacity="0.7" d="M66.4525 382.903C66.4525 381.96 67.1576 381.016 67.8626 381.016C68.5677 381.016 69.2727 381.96 69.2727 382.903C69.2727 383.846 68.5677 384.79 67.8626 384.79C66.8051 384.79 66.4525 383.846 66.4525 382.903Z" fill="white"/>
<path opacity="0.7" d="M9.30815 390.606C9.30815 389.663 10.0131 388.719 10.7182 388.719C11.4232 388.719 12.1282 389.663 12.1282 390.606C12.1282 391.549 11.4232 392.493 10.7182 392.493C9.66064 392.493 9.30815 391.549 9.30815 390.606Z" fill="white"/>
<path opacity="0.7" d="M36.8771 416.178C36.8771 415.235 37.2296 414.763 37.9346 414.763C38.6397 414.763 38.9922 415.235 38.9922 416.178C38.9922 417.122 38.6397 417.593 37.9346 417.593C37.2296 417.593 36.8771 417.122 36.8771 416.178Z" fill="white"/>
<g opacity="0.7">
<path opacity="0.7" d="M208.107 379.269L207.755 372.194L202.467 371.722L207.755 371.251L208.107 364.176L208.46 371.251L213.748 371.722L208.46 372.194L208.107 379.269Z" fill="white"/>
<path opacity="0.7" d="M205.991 375.024L207.754 371.723L205.991 368.421L208.106 371.251L210.574 368.421L208.459 371.723L210.574 374.553L208.106 372.194L205.991 375.024Z" fill="white"/>
</g>
<g opacity="0.7">
<path opacity="0.7" d="M284.489 340.828L284.136 333.753L278.848 333.282L284.136 332.81L284.489 325.735L284.841 332.81L290.129 333.282L284.841 333.753L284.489 340.828Z" fill="white"/>
<path opacity="0.7" d="M282.372 336.583L284.135 333.282L282.372 329.98L284.487 332.81L286.955 329.98L284.84 333.282L286.955 336.112L284.487 333.754L282.372 336.583Z" fill="white"/>
</g>
<g opacity="0.7">
<path opacity="0.7" d="M244.986 705.358L244.281 698.755L239.346 697.812H244.281L244.986 690.265L245.338 697.812H250.626L245.338 698.755L244.986 705.358Z" fill="white"/>
<path opacity="0.7" d="M242.517 701.114L244.28 698.284L242.517 694.982L244.632 697.34L247.452 694.982L245.337 697.812L247.452 701.114L244.985 698.755L242.517 701.114Z" fill="white"/>
</g>
</g>
<defs>
<radialGradient id="paint0_radial_6_5920" cx="0" cy="0" r="1" gradientUnits="userSpaceOnUse" gradientTransform="translate(649.145 98.0938) rotate(68.4169) scale(724.561 675.2)">
<stop stop-color="#1A000E"/>
<stop offset="0.5056" stop-color="#540048"/>
<stop offset="1" stop-color="#000027"/>
</radialGradient>
</defs>
</svg>