<svg width="122" height="122" viewBox="0 0 122 122" fill="none" xmlns="http://www.w3.org/2000/svg">
<path opacity="0.92" fill-rule="evenodd" clip-rule="evenodd" d="M121.904 60.8922C121.904 78.5126 114.473 94.335 102.486 105.483C96.7323 110.757 90.0198 115.072 82.588 117.829C75.8755 120.346 68.5637 121.784 61.0121 121.784C58.2551 121.784 55.6181 121.545 52.981 121.305C50.5837 120.945 48.1864 120.586 45.9089 119.986C40.395 118.548 35.2408 116.39 30.4461 113.633C27.4494 111.835 24.5726 109.918 21.8157 107.64C15.4628 102.366 10.3085 95.7734 6.59266 88.4615C4.19533 83.7867 2.5172 78.8722 1.31853 73.5981C0.479464 69.5226 0 65.3273 0 61.0121C0 49.0254 3.47613 37.758 9.46946 28.2885C11.9867 24.3329 14.9833 20.617 18.4594 17.2608C29.4872 6.59265 44.4705 0 60.8922 0C62.2107 0 63.5293 -1.09759e-05 64.8478 0.119856C71.8001 0.599322 78.3927 2.15759 84.5059 4.67479C85.5847 5.15425 86.6635 5.63372 87.6224 6.11318C92.0575 8.27078 96.133 10.9078 99.8488 14.1442C101.167 15.223 102.366 16.3019 103.445 17.3806C103.924 17.7402 104.284 18.2197 104.643 18.6992C115.431 29.607 121.904 44.4705 121.904 60.8922Z" fill="url(#paint0_radial_6_4989)"/>
<path fill-rule="evenodd" clip-rule="evenodd" d="M117.709 60.8919C117.709 77.3137 110.757 92.0573 99.6091 102.486C94.335 107.4 87.982 111.356 81.1496 113.993C74.9166 116.39 68.0842 117.709 61.0121 117.709C58.4949 117.709 55.9777 117.589 53.5803 117.229C51.3029 116.989 49.1453 116.51 46.9877 115.911C41.8334 114.592 37.0387 112.554 32.6037 110.037C29.7269 108.359 27.0898 106.561 24.5726 104.404C18.6992 99.489 13.7846 93.3758 10.3085 86.5434C8.15091 82.2282 6.47278 77.5534 5.39398 72.6389C4.55491 68.8031 4.19531 64.9674 4.19531 60.8919C4.19531 49.6245 7.43171 39.1961 13.0654 30.4458C15.4628 26.73 18.2197 23.2538 21.4561 20.1373C31.6448 10.1884 45.6691 4.0752 61.0121 4.0752C62.2107 4.0752 63.5292 4.0752 64.7279 4.19507C71.2007 4.67454 77.3139 6.11292 82.9476 8.51025C83.9066 8.86985 84.8655 9.34933 85.8244 9.82879C89.8999 11.8665 93.7356 14.3837 97.3316 17.2605C98.5303 18.2194 99.6091 19.2983 100.688 20.3771C101.047 20.7367 101.527 21.0963 101.887 21.5757C111.716 31.7644 117.709 45.6689 117.709 60.8919Z" fill="url(#paint1_radial_6_4989)"/>
<path opacity="0.4" fill-rule="evenodd" clip-rule="evenodd" d="M117.709 60.8924C117.709 77.3141 110.757 92.0577 99.6093 102.486C94.3352 107.401 87.9823 111.356 81.1499 113.993C74.9168 116.391 68.0844 117.709 61.0123 117.709C58.4951 117.709 55.9779 117.589 53.5806 117.23C46.029 116.271 38.9568 113.754 32.6039 110.038C34.5218 109.558 36.3198 108.959 38.2376 108.479C42.7926 107.281 47.1078 105.962 51.6627 105.483C53.4607 105.243 56.4574 104.524 56.4574 102.246C56.4574 101.647 56.3375 101.407 56.6971 101.048C57.1766 100.688 57.656 100.808 58.1355 100.688C59.454 100.448 60.5328 99.01 61.3719 98.051C62.6904 96.4928 64.2487 94.9345 65.8069 93.616C68.8036 90.9789 72.8791 89.6604 74.7969 85.8247C75.2764 84.7459 75.3963 83.6671 75.636 82.5883C75.8757 81.2697 76.8347 80.4307 78.0333 79.8314C79.3519 78.9923 80.9101 78.7525 82.1088 77.6737C83.3075 76.7148 83.7869 75.1565 84.2664 73.7181C84.9856 71.4407 84.8657 69.0434 85.2253 66.646C85.3452 65.4474 85.7048 64.2487 85.8247 63.05C85.8247 61.8514 85.4651 61.0123 84.9856 59.9335C84.3863 58.1355 83.4273 56.2176 82.7081 54.4196C82.4684 53.7004 81.9889 53.221 81.3896 52.7415C80.5505 52.0223 79.9512 51.1832 79.1121 50.464C78.5128 49.9846 77.7936 49.625 77.3141 49.1455C76.8347 48.7859 76.4751 48.1866 76.1155 47.7071C75.3963 46.9879 74.6771 46.1488 73.7181 45.5495C71.4407 44.3508 70.1221 42.0734 67.4851 41.5939C64.2487 40.9946 61.6116 37.6383 58.2553 38.837C56.0978 39.5562 53.9402 40.3952 51.5428 40.9946C50.1044 41.3542 48.4263 41.3542 46.9879 41.8336C46.1488 42.1932 45.1899 42.9124 44.5906 43.6316C43.6316 44.7104 43.272 46.1488 42.433 47.2276C41.8336 48.0667 41.474 48.9058 40.8747 49.8647C39.9158 51.6627 39.9158 53.4607 39.9158 55.4984C39.9158 56.5772 39.7959 57.7759 39.9158 58.8547C40.0356 60.1732 40.635 61.1322 41.474 62.211C41.9535 62.8103 42.3131 63.8891 42.9124 64.3685C43.272 64.6083 43.5118 64.4884 43.8714 64.7282C44.4707 64.9679 44.7104 65.2076 45.1899 65.5672C46.6283 66.646 48.1866 67.7248 49.9846 68.0844C50.9435 68.3241 51.7826 68.444 52.6216 68.8036C53.3408 69.1632 54.1799 69.2831 55.019 69.4029C56.9368 69.6427 58.6149 68.9235 60.0533 67.7248C61.0123 67.0056 61.6116 66.4063 62.3308 65.4474C62.6904 64.9679 62.9301 64.6083 63.5295 64.2487C63.8891 64.009 64.2487 63.7692 64.7281 63.8891C65.0877 63.8891 65.4473 64.3686 65.9268 64.1288C66.2864 63.8891 66.5261 62.8103 66.646 62.5705C66.8857 61.9712 67.0056 61.252 67.2453 60.7725C67.7248 59.8136 68.444 60.0534 69.4029 60.0534C70.0023 60.0534 70.8413 59.9335 71.3208 59.454C71.6804 58.8547 71.5605 57.7759 71.3208 57.1765C70.8413 56.3375 69.7625 55.6183 69.1632 55.019C68.6837 54.5395 68.3241 53.9402 67.8447 53.3408C67.1255 52.262 66.7659 50.1044 65.2076 49.8647C64.6083 49.7448 63.7692 49.8647 63.1699 49.8647C62.4507 49.8647 61.9712 49.7448 61.252 49.5051C60.1732 49.2654 59.2143 48.9058 58.0156 48.9058C56.5772 48.9058 55.3786 49.2654 54.06 49.8647C53.4607 50.1044 53.1011 49.9846 52.5018 50.1044C51.9024 50.3442 50.9435 51.5428 50.8236 52.262C50.5839 53.5806 51.0634 54.7792 52.3819 55.3785C52.7415 55.4984 53.7004 55.6183 54.06 55.9779C54.4196 56.4573 54.1799 57.0567 53.9402 57.5362C53.4607 58.8547 53.7004 60.413 55.2587 60.6527C56.3375 60.7726 57.4163 60.1732 58.2553 59.6937C58.9745 59.3341 60.2931 59.2143 60.2931 58.2554C60.1732 58.7348 59.454 58.4951 59.0944 58.4951C58.2554 58.4951 57.7759 58.4951 57.1765 58.0156C56.5772 57.5362 56.4574 57.0567 56.2176 56.4574C56.0978 56.2176 55.9779 55.7382 55.7382 55.4984C55.6183 55.2587 55.1388 55.0189 55.1388 54.7792C54.6594 53.7004 58.2553 53.1011 58.8547 52.9812C60.2931 52.8613 61.3719 53.8203 62.2109 54.8991C62.5705 55.3786 63.2897 56.0978 63.2897 56.6971C63.2897 57.2964 62.8103 58.2554 62.5705 58.8547C62.3308 59.454 62.2109 59.9335 61.9712 60.5328C61.7315 61.252 61.3719 61.3719 60.7725 61.7315C60.1732 62.0911 59.6938 62.5706 59.2143 63.05C58.615 63.5295 57.8957 63.6493 57.1765 63.7692C56.0977 64.0089 55.1388 63.4096 54.06 63.5295C53.1011 63.5295 52.3819 64.1288 51.5428 64.1288C49.625 64.2487 48.0667 64.0089 47.3475 61.9712C47.1078 61.1321 47.3475 60.7725 47.827 60.1732C48.4263 59.5739 48.1866 59.0944 47.9468 58.3752C47.5872 57.5361 47.2276 56.8169 47.1078 55.9779C46.9879 55.1388 47.4674 54.1799 47.5872 53.221C47.7071 52.5018 47.3475 51.423 47.5872 50.8236C47.827 50.2243 49.0256 49.625 49.625 49.1455C50.3442 48.666 51.1832 48.4263 52.0223 47.9468C52.9812 47.4674 53.7004 47.5872 54.6594 47.4674C55.4984 47.3475 55.858 46.7482 56.5772 46.3886C57.4163 46.029 58.4951 46.2687 59.3341 46.2687C60.2931 46.2687 60.7725 46.6283 61.6116 46.9879C62.4507 47.3475 63.05 47.9468 64.0089 48.0667C65.0877 48.1866 66.1665 47.9468 67.2453 48.0667C68.3241 48.1866 68.6837 48.666 69.5228 49.2654C70.3619 49.8647 70.9612 50.2243 71.6804 51.1832C72.04 51.6627 72.1599 52.1422 72.5195 52.5018C72.8791 52.9812 73.1188 53.221 73.3585 53.8203C73.5983 54.5395 74.0777 55.2587 74.3175 56.0978C74.4373 56.5772 74.5572 56.9368 74.5572 57.4163C74.4373 58.0156 74.1976 58.615 74.1976 59.2143C74.1976 60.6527 73.5983 61.7315 72.9989 63.05C72.3996 64.3686 71.8003 65.6871 71.2009 67.0056C70.8413 67.8447 70.7215 69.6427 69.5228 69.8824C68.9235 70.0023 68.3241 69.8824 67.7248 70.242C67.1255 70.6016 67.0056 71.3208 66.5261 71.6804C66.0467 72.1599 65.4473 71.9202 64.848 71.9202C63.8891 71.9202 63.05 72.04 62.2109 72.3996C61.1321 72.8791 60.4129 73.838 59.454 74.4374C58.6149 74.797 57.656 75.2764 56.6971 75.3963C55.9779 75.5161 55.3786 75.3963 54.6594 75.636C53.1011 76.1155 51.9024 77.0744 50.3442 77.6737C49.1455 78.0333 47.7071 78.3929 46.5084 78.2731C46.029 78.2731 45.5495 78.0333 45.07 77.9135C44.3508 77.6737 43.5118 77.6738 42.6727 77.434C42.0734 77.3142 41.474 77.0744 40.8747 76.8347C40.2754 76.595 39.9158 76.1155 39.3164 75.8757C37.9979 75.2764 36.6794 75.2764 35.4807 74.3175C33.9224 73.1188 32.6039 71.6804 30.9258 70.6016C30.2066 70.1221 29.847 69.5228 29.3675 68.9235C29.0079 68.3242 28.5284 67.9645 28.049 67.4851C27.3298 66.7659 26.9702 65.8069 26.6106 64.9679C26.0112 63.5295 25.292 62.0911 24.6927 60.5328C23.9735 58.3752 23.0146 56.3375 22.5351 54.06C22.1755 52.1422 22.655 50.464 22.655 48.666C22.655 48.1866 22.7749 47.7071 22.655 47.2276C22.5351 46.5084 21.9358 46.029 21.4563 45.5495C20.0179 43.8714 18.6994 42.1932 17.8603 40.0356C17.0213 37.878 16.6617 35.241 17.261 32.9635C17.8603 30.9258 19.1789 29.847 20.857 28.5284C22.4153 27.3298 24.3331 26.3708 26.1311 25.5318C26.9702 25.0523 27.6894 24.5728 28.5285 24.2132C29.3675 23.8536 30.4463 23.7338 31.4052 23.4941C32.2443 23.2543 32.8436 23.2543 33.5628 22.655C34.282 22.1755 35.1211 21.5762 35.7204 20.9769C36.5595 20.2577 37.1588 19.4186 38.3575 19.1789C39.7959 18.8193 41.474 18.3398 42.9124 17.9802C44.8303 17.6206 47.1078 18.1001 49.0256 18.3398C50.9435 18.5795 52.7415 18.5795 54.6594 18.5795C56.2176 18.5795 57.7759 18.3398 59.3341 18.2199C59.9335 18.2199 60.5328 18.3398 61.1321 18.2199C62.0911 18.2199 62.9301 17.7405 63.8891 17.5007C65.6871 17.0213 67.2453 16.1822 69.0433 15.5829C70.3619 15.1034 71.6804 15.2233 72.9989 14.9835C74.4373 14.7438 75.8757 14.2643 77.434 14.1445C78.7525 14.1445 80.0711 13.665 81.2697 14.2643C83.4273 15.5829 84.7459 17.8603 86.9035 19.1789C89.1809 20.4974 91.6981 21.4563 94.0955 22.4152C94.9345 22.7748 95.8934 22.2954 96.6126 22.655C96.9723 22.7749 97.4517 23.3742 97.6915 23.7338C98.051 23.494 97.9312 23.0146 97.9312 22.655C97.9312 22.0557 98.2908 21.5762 98.2908 20.9769C98.2908 20.2577 98.4107 19.4186 98.2908 18.6994C98.1709 18.3398 97.6915 17.5007 97.6915 16.9014C98.8901 17.8603 99.9689 18.9391 101.048 20.0179C111.236 30.686 117.709 45.07 117.709 60.8924Z" fill="url(#paint2_radial_6_4989)"/>
<path opacity="0.3" fill-rule="evenodd" clip-rule="evenodd" d="M23.1342 78.1536C22.7746 79.3522 22.6548 80.6708 22.5349 81.9893C22.8945 81.8695 23.374 82.7085 23.7336 82.8284C24.4528 83.0681 25.0521 83.0681 25.6514 83.4277C26.2508 83.7873 26.8501 84.6264 27.4494 84.7462C27.809 84.8661 28.4084 84.7462 28.8878 84.7462C29.8468 84.7462 30.6858 84.7463 31.5249 84.986C32.4838 85.2257 33.6825 85.4654 34.6414 85.3456C35.2407 85.2257 36.3195 84.986 36.799 84.5065C37.2785 84.0271 37.5182 82.8284 37.6381 82.1092C37.7579 80.0715 36.1997 78.0337 34.6414 76.8351C33.8024 76.2357 32.9633 76.2357 32.0043 75.7562C30.9255 75.1569 29.9666 74.9172 28.768 74.5576C28.0488 74.3179 27.0898 74.0781 26.3706 74.0781C25.6514 74.0781 24.8124 74.5576 24.213 74.6775C23.4938 74.9172 22.8945 74.9172 22.415 75.5165C21.9356 76.3556 22.1753 77.3145 23.1342 78.1536Z" fill="url(#paint3_linear_6_4989)"/>
<path opacity="0.3" fill-rule="evenodd" clip-rule="evenodd" d="M39.1962 85.3447C38.8366 85.8242 35.4803 88.701 37.1585 89.8997C37.2783 90.0195 37.9975 90.1394 38.1174 90.1394C38.5969 90.2593 38.7167 90.1394 39.1962 89.8997C40.0352 89.4202 40.1551 88.5812 39.9154 87.6222C39.9154 87.3825 39.6756 86.903 39.5558 86.6633C39.4359 86.3037 39.0763 86.3037 38.9564 85.8242L39.1962 85.3447Z" fill="url(#paint4_linear_6_4989)"/>
<path opacity="0.3" fill-rule="evenodd" clip-rule="evenodd" d="M58.4949 11.7471C59.0942 11.3875 61.0121 10.3087 62.0909 10.1888C62.4505 10.1888 62.93 10.3087 63.2895 10.3087C64.1286 10.3087 64.8478 10.1888 65.4471 10.7881C65.9266 11.2676 66.1663 11.7471 65.8067 12.3464C65.3273 13.1855 64.1286 13.7848 63.2895 14.1444C61.4916 15.2232 59.0942 16.1821 56.9366 15.9424C55.2585 15.8225 53.7002 14.504 52.142 13.6649C51.0632 13.0656 49.0254 11.9868 50.344 10.6683C51.4228 9.58947 53.1009 8.99013 54.6592 8.87027C55.3784 8.87027 57.0565 8.63054 57.536 8.99014C58.1353 9.46961 57.536 11.3875 58.7346 11.2676L58.4949 11.7471Z" fill="url(#paint5_linear_6_4989)"/>
<path fill-rule="evenodd" clip-rule="evenodd" d="M3.3566 49.385C4.19566 61.012 31.2855 42.193 57.5363 33.9222C88.342 24.0932 111.716 45.5493 115.072 44.3506C120.466 42.5526 98.5306 0.119847 63.4097 0.71918C23.8538 1.19865 1.9182 30.6858 3.3566 49.385Z" fill="url(#paint6_linear_6_4989)"/>
<path opacity="0.5" fill-rule="evenodd" clip-rule="evenodd" d="M0.599365 69.4033L2.51723 78.2734C2.51723 78.2734 13.0655 84.5065 37.6381 82.229C62.2108 79.9516 67.9644 67.9649 77.5537 61.0126C87.143 54.0604 105.722 48.5465 110.517 43.0326C115.312 37.6387 111.236 26.7308 111.236 26.7308L109.318 24.0938C109.318 24.0938 112.794 33.4433 108.599 40.2757C104.524 47.1081 86.1841 50.3445 76.2352 59.0948C66.2862 67.845 46.0288 74.5575 28.6481 74.6774C11.6271 74.7973 0.599365 69.4033 0.599365 69.4033Z" fill="#BDFFE8" fill-opacity="0.5"/>
<path opacity="0.5" fill-rule="evenodd" clip-rule="evenodd" d="M8.75073 92.4174L12.5865 98.0511C12.5865 98.0511 30.2068 103.205 56.6974 98.0511C83.1879 92.8968 103.206 77.9135 112.435 69.403C121.785 60.8925 120.586 49.0257 120.586 49.0257L119.747 45.4297C119.747 45.4297 118.069 57.7759 107.76 69.403C97.452 81.03 80.1912 91.5783 55.3788 95.8935C30.6863 100.329 8.75073 92.4174 8.75073 92.4174Z" fill="#BDFFE8" fill-opacity="0.5"/>
<path opacity="0.5" fill-rule="evenodd" clip-rule="evenodd" d="M4.19531 38.8361C4.19531 38.8361 38.8367 50.7029 65.567 45.4288C92.2972 40.2745 99.4892 23.0137 99.9687 14.1436L95.0542 10.4277C95.0542 10.4277 95.174 28.168 78.2728 38.956C61.3717 49.6241 17.98 43.2712 6.35291 34.0414L4.19531 38.8361Z" fill="#BDFFE8" fill-opacity="0.5"/>
<path fill-rule="evenodd" clip-rule="evenodd" d="M7.91145 59.6936C8.27105 61.8512 13.0657 58.8546 16.7816 51.6626C20.3776 44.4706 21.0968 29.4873 19.1789 28.2886C17.3809 26.8502 5.27438 44.95 7.91145 59.6936Z" fill="white"/>
<path fill-rule="evenodd" clip-rule="evenodd" d="M8.27087 62.8099C5.75367 63.2893 5.87354 68.2039 7.4318 70.2416C8.99007 72.2793 11.0278 71.3204 11.1477 67.0052C11.2675 64.488 10.3086 62.4503 8.27087 62.8099Z" fill="white"/>
<path fill-rule="evenodd" clip-rule="evenodd" d="M80.1907 5.87305C80.1907 5.87305 82.588 6.47238 83.3072 9.70877C83.3072 9.82864 80.9099 9.10944 80.1907 5.87305Z" fill="white"/>
<path fill-rule="evenodd" clip-rule="evenodd" d="M35.96 6.95194C35.96 6.95194 37.758 4.79435 41.354 3.83542C44.2308 3.11622 45.9089 3.23608 46.5082 3.11621C46.5082 3.11621 40.395 7.31154 35.96 6.95194Z" fill="white"/>
<defs>
<radialGradient id="paint0_radial_6_4989" cx="0" cy="0" r="1" gradientUnits="userSpaceOnUse" gradientTransform="translate(60.9566 60.9092) scale(60.9395 60.9396)">
<stop stop-color="#004858"/>
<stop offset="1" stop-color="#008BAB"/>
</radialGradient>
<radialGradient id="paint1_radial_6_4989" cx="0" cy="0" r="1" gradientUnits="userSpaceOnUse" gradientTransform="translate(44.8637 44.7989) scale(83.2989)">
<stop offset="0.00558659" stop-color="#00CEC0"/>
<stop offset="0.2576" stop-color="#00CCC0"/>
<stop offset="0.3833" stop-color="#00C4C1"/>
<stop offset="0.4811" stop-color="#00B7C2"/>
<stop offset="0.5645" stop-color="#00A4C4"/>
<stop offset="0.6387" stop-color="#008CC6"/>
<stop offset="0.7054" stop-color="#006EC8"/>
<stop offset="0.7179" stop-color="#0068C9"/>
<stop offset="0.7438" stop-color="#0767CB"/>
<stop offset="0.7813" stop-color="#1A66CF"/>
<stop offset="0.8259" stop-color="#3A63D6"/>
<stop offset="0.8759" stop-color="#6660E0"/>
<stop offset="0.9304" stop-color="#9E5BEC"/>
<stop offset="0.9879" stop-color="#E255FC"/>
<stop offset="1" stop-color="#F154FF"/>
</radialGradient>
<radialGradient id="paint2_radial_6_4989" cx="0" cy="0" r="1" gradientUnits="userSpaceOnUse" gradientTransform="translate(67.2766 65.987) scale(51.0919 51.0919)">
<stop stop-color="#1372B3"/>
<stop offset="1" stop-color="white"/>
</radialGradient>
<linearGradient id="paint3_linear_6_4989" x1="22.2075" y1="79.7711" x2="37.6562" y2="79.7711" gradientUnits="userSpaceOnUse">
<stop stop-color="#B8C2FF"/>
<stop offset="1" stop-color="#7D72B3"/>
</linearGradient>
<linearGradient id="paint4_linear_6_4989" x1="36.6348" y1="87.7825" x2="39.8176" y2="87.7825" gradientUnits="userSpaceOnUse">
<stop stop-color="#B8C2FF"/>
<stop offset="1" stop-color="#7D72B3"/>
</linearGradient>
<linearGradient id="paint5_linear_6_4989" x1="50.0147" y1="12.5116" x2="66.0122" y2="12.5116" gradientUnits="userSpaceOnUse">
<stop stop-color="#B8C2FF"/>
<stop offset="1" stop-color="#7D72B3"/>
</linearGradient>
<linearGradient id="paint6_linear_6_4989" x1="26.0117" y1="9.62351" x2="85.7047" y2="86.184" gradientUnits="userSpaceOnUse">
<stop offset="0.0167598" stop-color="#B1FDF9"/>
<stop offset="1" stop-color="#37C7D1" stop-opacity="0"/>
</linearGradient>
</defs>
</svg>
