<svg width="107" height="122" viewBox="0 0 107 122" fill="none" xmlns="http://www.w3.org/2000/svg">
<path fill-rule="evenodd" clip-rule="evenodd" d="M7.66284 40.6086C7.66284 40.6086 8.29261 35.3606 8.71245 32.5266C8.71245 32.5266 12.2811 27.4885 17.949 23.395L25.5062 23.8149C25.5062 23.8149 10.1819 36.0953 7.66284 40.6086Z" fill="url(#paint0_linear_6_510)"/>
<path fill-rule="evenodd" clip-rule="evenodd" d="M17.9495 23.395C17.9495 23.395 17.9495 27.5935 14.066 30.9522C10.1824 34.311 8.50299 33.1564 8.50299 33.1564L7.55835 39.8739L25.4017 23.8149L17.9495 23.395Z" fill="url(#paint1_linear_6_510)"/>
<path fill-rule="evenodd" clip-rule="evenodd" d="M99.3981 67.3736C99.3981 72.0969 98.7684 76.8201 97.5089 81.1235C94.9898 89.9403 90.0566 97.7074 83.549 103.795C78.9307 108.099 73.3678 111.562 67.28 113.871C61.8221 115.971 55.8393 117.125 49.6466 117.125C48.8069 117.125 47.8623 117.125 47.0226 117.02C45.763 116.915 44.3985 116.81 43.139 116.705C33.5875 115.446 24.7708 111.457 17.7384 105.475C15.1144 103.27 12.7003 100.751 10.4961 98.0223C8.92169 95.923 7.45223 93.8238 6.1927 91.5147C5.87782 90.9899 5.56294 90.3601 5.24806 89.8353C5.24806 89.8353 5.24806 89.8353 5.24806 89.7304C4.93317 89.1006 4.61827 88.5758 4.40835 87.946C3.56866 86.0567 2.83392 84.0625 2.20416 82.0682C1.78431 80.5987 1.36449 79.1293 1.04961 77.6598C0.839689 76.6102 0.629767 75.5606 0.524806 74.406C0.209922 72.0969 0 69.7877 0 67.3736C0 66.0091 -1.92221e-05 64.6447 0.209903 63.2802C0.314864 62.4405 0.419844 61.6008 0.524806 60.7611C1.15457 55.8279 2.51905 51.2096 4.51331 46.9062C5.45796 44.807 6.61255 42.7078 7.87208 40.8185C9.97131 37.5647 12.3854 34.5208 15.2194 31.7918C24.1411 23.0801 36.4215 17.7271 49.8565 17.7271C50.3813 17.7271 50.9061 17.7271 51.4309 17.7271C51.9557 17.7271 52.5855 17.727 53.1103 17.832C55.9442 18.0419 58.7782 18.4618 61.5072 19.0915C63.0816 19.5114 64.656 19.9312 66.1255 20.456C67.1751 20.7709 68.1198 21.1908 69.1694 21.6106C69.9041 21.9255 70.6388 22.2404 71.3736 22.5553C71.4785 22.6602 71.5835 22.6602 71.7934 22.7652C76.6216 25.0743 81.03 28.2232 84.8086 32.0018C85.3334 32.5266 85.8582 33.0514 86.383 33.6811C86.6979 34.101 87.1177 34.4159 87.4326 34.8357C88.0624 35.4655 88.5872 36.2002 89.112 36.83C91.1062 39.349 92.7856 42.078 94.2551 44.912C95.9344 48.2707 97.2989 51.8394 98.2436 55.513C98.8733 59.1867 99.3981 63.1752 99.3981 67.3736Z" fill="url(#paint2_radial_6_510)"/>
<path fill-rule="evenodd" clip-rule="evenodd" d="M71.4785 22.6598C71.2686 22.6598 71.1636 22.6598 70.9537 22.7648C70.4289 22.8697 69.9041 22.7648 69.3793 22.6598C68.9594 22.5548 68.7495 22.3449 68.2247 22.3449C67.5949 22.24 67.0701 22.03 66.4404 21.9251C65.8106 21.8201 65.2858 21.6102 64.656 21.4003C64.1312 21.1904 63.9213 21.2953 63.5015 21.4003C63.0816 21.5052 62.7667 21.2953 62.3469 21.1904C61.927 20.9804 61.4022 20.9804 60.9824 20.8755C59.7228 20.6656 58.4633 20.2457 57.2038 19.9308C56.4691 19.7209 55.7343 19.7209 54.8946 19.7209C54.2649 19.7209 53.7401 19.9308 53.1103 19.9308C52.6904 19.9308 52.3756 19.8259 51.9557 19.8259C51.5359 19.7209 51.116 19.8259 50.6962 19.8259C50.0664 19.7209 49.7515 19.6159 49.1218 19.8259C48.597 19.9308 48.2821 19.9308 47.7573 20.0358C47.2325 20.0358 46.6027 20.2457 46.0779 20.3507C45.1333 20.5606 44.0836 20.7705 43.139 20.7705C42.5092 20.7705 41.6695 20.5606 41.1447 20.7705C40.8298 20.8755 40.6199 21.2953 40.3051 21.5052C39.7803 22.03 39.2555 22.4499 38.8356 22.9747C38.4158 23.4995 37.9959 24.1293 37.9959 24.864C37.9959 25.4938 38.3108 26.2285 38.6257 26.7533C38.9406 27.3831 39.0455 27.9079 38.4157 28.3277C37.681 28.8525 36.7364 29.2724 35.8967 29.5872C35.2669 29.7972 34.7421 29.9021 34.3223 29.4823C34.1123 29.3773 34.0074 29.0624 33.7975 28.8525C33.5875 28.7476 33.2727 28.8525 33.0627 28.9575C32.433 29.1674 31.8032 29.3773 31.1734 29.4823C30.7536 29.5872 30.4387 29.7972 30.0188 29.7972C29.599 29.9021 29.2841 29.5872 28.7593 29.6922C28.1296 29.7972 27.3948 30.1121 26.7651 30.1121C26.2403 30.1121 25.6105 29.9021 25.1907 29.6922C24.9807 29.5872 24.8758 29.3773 24.5609 29.4823C24.351 29.4823 24.0361 29.7972 23.9311 30.0071C23.7212 30.217 23.7212 30.5319 23.5113 30.7418C23.3014 31.0567 23.1964 31.2666 22.9865 31.5815C22.6716 32.1063 22.3567 32.6311 22.0418 33.1559C21.8319 33.4708 21.622 33.9956 21.3071 34.3105C21.2021 34.5204 20.8872 34.6254 20.6773 34.7303C20.1525 35.0452 19.6277 35.4651 19.1029 35.7799C18.1583 36.5147 17.2136 37.3544 16.269 38.0891C15.5342 38.6139 14.4846 38.9288 13.6449 39.3486C13.1201 39.5585 12.5953 39.7685 12.0705 39.9784C11.8606 40.0834 11.5457 40.0834 11.4408 40.2933C11.2308 40.5032 11.1259 40.7131 11.0209 41.028C10.6011 41.5528 10.0763 42.1826 9.76137 42.8123C9.55145 43.2322 9.44649 43.5471 9.23656 43.9669C9.02664 44.4917 8.71175 45.0165 8.60679 45.6463C8.18695 46.8009 8.18695 48.0604 7.66215 49.215C7.45223 49.8447 7.03239 50.4745 6.7175 51.1043C6.1927 52.1539 6.08772 53.4134 5.98276 54.568C5.8778 55.1978 5.98277 56.0374 6.08773 56.6672C6.19269 57.4019 6.1927 58.1367 6.1927 58.8714C6.1927 59.6061 5.6679 60.4458 5.24805 60.9706C4.82821 61.4954 4.09348 61.7053 3.56867 62.2301C3.14883 62.65 2.62401 63.0698 2.41409 63.6996C2.30913 63.9095 2.41409 64.2244 2.41409 64.5393C2.30913 65.1691 2.09922 65.6939 2.09922 66.3236C1.99426 67.0584 1.99425 67.7931 1.99425 68.6328C1.99425 69.0526 1.99425 69.3675 1.99425 69.7873C1.99425 70.2072 2.0992 70.5221 2.20416 70.837C2.20416 71.0469 2.20416 71.3618 2.20416 71.5717C2.20416 71.8866 2.41409 72.2015 2.41409 72.4114C2.62401 73.1461 2.72897 73.7759 2.83393 74.5106C2.93889 75.1404 3.25377 75.7701 3.35874 76.3999C3.67362 77.2396 3.77859 78.0793 3.98851 79.0239C4.09347 79.6537 4.09348 80.3884 4.19844 81.0182C4.3034 81.543 4.40835 82.0678 4.40835 82.5926C4.40835 83.4323 4.19844 84.167 4.19844 85.0067C4.19844 86.3712 4.72324 87.7357 5.03812 89.1002C5.14308 89.52 5.24803 89.8349 5.35299 90.2548C1.88927 83.5372 0 75.8751 0 67.7931C0 57.9267 2.83394 48.7951 7.76711 41.133C9.86634 37.8792 12.2804 34.8353 15.1144 32.2113C24.0361 23.4995 36.3165 18.1465 49.7516 18.1465C50.8012 18.1465 51.9557 18.1465 53.0054 18.2514C59.5129 18.1465 65.8106 19.8259 71.4785 22.6598Z" fill="url(#paint3_linear_6_510)"/>
<path opacity="0.1" fill-rule="evenodd" clip-rule="evenodd" d="M52.7961 90.6752C52.7961 90.6752 57.4144 97.4977 63.6071 103.061C69.7998 108.624 70.6395 112.402 70.6395 112.402C70.6395 112.402 82.2902 107.574 90.5821 96.0283C98.8741 84.5875 52.7961 90.6752 52.7961 90.6752Z" fill="black"/>
<path opacity="0.4" fill-rule="evenodd" clip-rule="evenodd" d="M61.1936 18.9866C58.4646 18.3568 55.7356 17.937 52.7967 17.727C52.2719 17.727 51.6421 17.6221 51.1173 17.6221C52.2719 18.2518 53.4265 19.4064 53.6364 20.6659C54.0562 22.7652 54.791 24.6545 55.1059 26.6487C55.5257 28.643 55.4207 31.1621 54.4761 32.9464C53.9513 34.101 53.2165 35.0456 52.2719 35.9903C51.6421 36.62 51.0124 37.0399 50.5925 37.8796C50.1727 38.7192 49.6479 39.454 49.1231 40.1887C48.3883 41.3433 47.5486 42.4979 46.604 43.5475C46.2891 43.9673 45.9742 44.1772 45.6594 44.5971C45.3445 45.1219 45.1345 45.6467 44.7147 46.0665C43.77 47.0112 42.4055 47.6409 41.251 48.0608C39.6766 48.6906 38.3121 49.3203 36.8426 50.16C34.7434 51.3146 32.959 52.6791 30.5449 52.784C29.7052 52.784 28.8656 52.6791 28.0259 52.784C26.9763 52.889 26.0316 53.3088 25.087 53.5188C24.2473 53.7287 23.3026 53.8336 22.4629 54.0436C20.9935 54.2535 19.8389 54.7783 18.4744 55.0932C16.6901 55.513 14.8008 55.4081 12.9115 55.7229C11.2321 55.9329 9.86761 56.1428 8.18823 55.7229C5.66917 55.0932 4.30466 53.9386 4.82946 51.2096C5.14435 49.4253 5.03941 48.0608 4.19972 46.8013C2.20546 51.1047 0.840948 55.8279 0.211182 60.6561C1.36575 61.1809 2.73025 61.3908 3.88482 61.4958C7.55846 61.9157 11.547 60.2363 14.9057 58.9767C16.5851 58.347 18.3695 57.4023 20.2588 57.1924C22.253 56.9825 23.9324 57.1924 25.9267 56.7726C32.6442 55.0932 39.2567 52.784 45.3445 49.2154C47.8635 47.7459 48.9131 45.6467 50.6975 43.5475C52.1669 41.6582 53.9513 40.1887 55.7356 38.6143C57.5199 37.0399 59.0944 35.5704 60.144 33.4712C61.2985 31.267 62.2432 28.7479 62.768 26.3338C63.2928 23.6049 62.5581 21.0858 61.1936 18.9866ZM60.8787 25.7041C60.7738 26.2289 60.6688 26.8586 60.5638 27.3835C60.144 28.7479 59.3043 30.1124 58.0448 30.7422C57.5199 31.0571 56.6803 30.8472 56.3654 30.3224C56.1554 30.0075 56.1555 29.5876 56.1555 29.2728C56.0505 28.538 55.9455 27.9083 55.9455 27.1735C55.9455 25.4942 55.9455 23.8148 55.7356 22.1354C55.9455 23.08 55.7356 20.6659 57.2051 20.0362C57.9398 19.7213 58.9894 20.0362 59.5142 20.561C60.144 21.2957 60.3539 22.4503 60.5638 23.29C60.7737 24.2346 60.9837 24.8644 60.8787 25.7041Z" fill="url(#paint4_linear_6_510)"/>
<path opacity="0.4" fill-rule="evenodd" clip-rule="evenodd" d="M53.6351 105.16C53.5301 105.16 53.3202 105.265 53.2152 105.265L54.1599 105.37C54.1599 105.265 53.95 105.16 53.6351 105.16ZM53.6351 105.16C53.5301 105.16 53.3202 105.265 53.2152 105.265L54.1599 105.37C54.1599 105.265 53.95 105.16 53.6351 105.16ZM97.9287 55.3032C97.9287 56.5628 97.5088 57.9273 97.5088 59.1868C97.5088 60.9711 97.1939 62.3356 96.7741 64.015C96.4592 65.1696 95.8295 66.0093 95.5146 67.1638C95.0947 68.4234 94.465 69.5779 93.8352 70.7325C92.5757 73.0417 91.2112 75.4558 90.6864 78.0798C90.1616 80.4939 90.0566 82.4881 88.902 84.6923C87.7474 86.7916 86.0681 88.5759 84.8085 90.6751C84.2837 91.6198 83.8639 91.6198 82.9193 92.2495C81.9746 92.9843 81.0299 94.0339 80.0853 94.7686C78.091 96.343 76.2017 97.4976 73.6827 98.4422C72.1082 99.072 70.6388 99.4918 68.9594 99.7018C67.9098 99.9117 66.8602 99.7018 65.8106 99.9117C64.1312 100.227 62.5568 100.646 60.8774 101.171C58.2534 102.011 55.5244 102.536 52.9004 103.375C51.0111 103.9 49.2267 104.32 47.3374 104.635C46.1828 104.845 45.2382 105.475 44.0836 105.265C42.9291 105.055 41.7745 104.635 40.6199 104.215C39.1505 103.795 37.8909 103.69 36.3165 103.69C34.2173 103.69 31.6982 104.005 29.494 103.585C27.0799 103.165 24.7708 102.431 22.3567 102.011C20.8872 101.696 19.8376 101.066 18.4731 100.541C17.2136 99.9117 15.9541 99.8067 14.5896 99.3869C13.2251 98.967 11.8606 98.3373 10.4961 98.0224C12.5953 100.751 15.0094 103.27 17.7384 105.475C24.7708 111.457 33.4825 115.446 43.139 116.705C44.3985 116.81 45.658 117.02 47.0225 117.02C49.8565 116.391 52.5855 115.551 55.4194 114.711C60.1427 113.242 64.2362 110.408 68.9594 109.043C70.7437 108.518 72.3182 107.994 73.8926 107.154C75.1521 106.524 76.4117 106.419 77.5662 105.894C81.9746 104.005 85.2284 99.8067 87.2226 95.6083C88.0623 93.719 88.902 91.6198 90.5814 90.1503C91.2112 89.5205 92.0508 89.1007 92.5757 88.366C93.2054 87.6312 93.6253 86.7916 94.255 85.9519C95.3046 84.5874 96.2493 83.1179 97.1939 81.7534C97.2989 81.5435 97.4039 81.4385 97.5088 81.2286C98.7684 76.8203 99.3981 72.202 99.3981 67.4787C99.3981 63.1753 98.8733 59.1868 97.9287 55.3032ZM52.2706 105.475C52.4805 105.37 52.6904 105.16 52.9004 105.055C53.1103 104.95 53.4252 105.055 53.6351 105.16C54.0549 105.055 54.3698 105.055 54.6847 105.265C54.8946 105.37 55.2095 105.58 55.3145 105.79C55.4194 105.999 55.3145 106.104 55.1046 106.314C54.8946 106.524 54.7897 106.524 54.4748 106.524C53.95 106.629 53.4252 106.734 52.7954 106.629C52.4805 106.629 51.9557 106.524 51.7458 106.314C51.7458 105.894 52.0607 105.685 52.2706 105.475ZM55.5244 111.982C55.2095 112.402 54.8946 112.822 54.4748 113.032C54.0549 113.347 53.6351 113.452 53.3202 113.767C52.2706 114.291 51.221 114.921 50.1714 115.236C49.7515 115.341 49.2267 115.341 48.8069 115.341C48.2821 115.446 47.6523 115.446 47.1275 115.446C46.4977 115.446 45.763 115.551 45.1333 115.656C44.5035 115.656 43.7687 115.761 43.139 115.761C41.9844 115.866 41.0397 115.656 39.9901 115.236C39.0455 114.921 38.1009 114.396 37.2612 113.872C36.6314 113.452 36.1066 112.927 35.6868 112.402C35.162 111.982 34.8471 111.457 34.5322 110.828C34.4272 110.618 34.3223 110.408 34.4272 110.093C34.4272 109.988 34.5322 109.883 34.5322 109.883C34.7421 109.778 34.952 109.568 35.057 109.568C35.3719 109.358 35.7917 109.358 36.2116 109.253C37.1562 109.148 38.1008 109.253 39.0455 109.358C39.5703 109.358 40.0951 109.463 40.6199 109.358C41.3546 109.253 42.0894 109.043 42.7191 108.833C44.3985 108.414 46.0779 107.994 47.7573 107.889C49.4367 107.679 51.326 107.469 53.0053 107.784C53.6351 107.889 54.4748 108.099 54.9996 108.414C55.4194 108.728 55.7343 109.148 55.9442 109.568C56.2591 110.408 56.0492 111.247 55.5244 111.982ZM68.7495 107.679C68.4346 107.994 68.0148 108.204 67.5949 108.518C67.0701 108.938 66.5453 109.148 66.0205 109.463C65.6007 109.778 65.0758 109.988 64.656 110.198C64.1312 110.408 63.7113 110.618 63.1865 110.933C62.6617 111.143 62.1369 111.352 61.6121 111.562C61.1923 111.667 60.7725 111.877 60.3526 111.772C60.0377 111.667 59.6179 111.562 59.4079 111.352C58.9881 110.933 59.0931 110.513 59.198 110.303C59.198 109.988 59.0931 109.463 59.198 109.043C59.303 108.833 59.5129 108.518 59.6179 108.309C60.0377 107.469 60.6675 106.944 61.2973 106.314C61.8221 105.79 62.4518 105.37 63.1865 105.055C64.0262 104.74 65.0759 104.635 65.9155 104.53C66.8602 104.425 68.5396 104.32 69.0644 105.475C69.3793 106.209 69.2743 106.944 68.7495 107.679ZM54.2649 105.265C54.1599 105.265 53.95 105.16 53.74 105.055C53.6351 105.055 53.4252 105.16 53.3202 105.16L54.2649 105.265Z" fill="url(#paint5_linear_6_510)"/>
<path opacity="0.4" fill-rule="evenodd" clip-rule="evenodd" d="M93.9407 44.702V44.9119C93.8357 46.2764 93.3109 47.2211 92.7861 48.4806C92.3662 49.5302 91.9464 50.3699 91.4216 51.3146C90.5819 52.889 90.162 54.3584 89.5323 56.1428C88.4827 58.7668 88.0628 61.6008 86.4884 64.0149C85.1239 66.219 84.7041 68.8431 83.6544 71.1522C82.3949 73.7762 80.4006 75.5606 78.3014 77.4499C77.3568 78.2896 76.5171 79.3392 75.6774 80.2838C74.7327 81.2285 74.103 82.488 72.9484 83.3277C70.6393 85.0071 68.0152 86.4765 65.7061 88.2609C64.3416 89.3105 63.397 90.7799 61.8225 91.6196C60.3531 92.5643 58.6737 93.194 57.2043 94.0337C55.8398 94.8734 54.4753 95.7131 53.0058 96.3429C51.3264 96.9727 49.9619 96.7627 48.1776 96.8677C46.2883 96.9727 44.2941 97.4975 42.5097 98.1272C41.0403 98.652 39.7807 99.1768 38.2063 98.652C37.1567 98.3371 36.317 97.6024 35.2674 97.3925C32.7483 96.8677 30.0193 97.3925 27.5003 97.2875C25.506 97.1826 23.4068 96.7627 21.4125 96.3429C19.5232 96.028 17.9488 94.6635 16.1645 94.1387C13.8553 93.5089 11.2313 94.0337 9.13206 93.1941C8.18741 92.8792 7.34773 92.1444 6.613 91.6196C6.40308 91.5147 6.29812 91.4097 6.0882 91.3047C5.77331 90.7799 5.45844 90.1502 5.14355 89.6254C5.66836 89.8353 6.19317 90.0452 6.71797 90.3601C9.55192 91.7246 13.1206 91.5147 16.1645 92.0395C19.6282 92.6692 23.0919 93.5089 26.5556 93.9288C28.0251 94.1387 29.3896 94.0337 30.859 93.9288C32.8533 93.7189 34.8475 93.7189 36.8418 93.404C40.2005 92.7742 43.5593 91.1998 47.023 91.6196C47.6528 91.7246 48.3875 92.0395 49.0173 92.0395C49.9619 92.0395 50.6967 91.1998 51.4314 90.675C52.7959 89.8353 54.2653 89.9403 55.5249 88.7857C56.6795 87.6311 58.0439 86.8964 59.5134 86.1617C63.292 84.2724 66.3359 81.1235 69.3797 78.0797C71.8988 75.5606 74.3129 72.9366 75.9923 69.8927C77.6717 66.8488 77.3568 63.1752 78.6163 60.0263C79.561 57.7172 80.2957 55.618 81.7652 53.6237C82.4999 52.6791 83.3396 51.8394 84.0743 50.8947C84.914 49.9501 85.3338 48.9005 85.9636 47.7459C86.5934 46.4864 87.538 45.4368 88.0628 44.0723C88.5876 42.8127 88.4827 41.7631 88.4827 40.3986C88.4827 39.0341 88.4827 37.5647 88.4827 36.0952C90.6868 39.1391 92.4712 41.8681 93.9407 44.702Z" fill="url(#paint6_linear_6_510)"/>
<path opacity="0.4" fill-rule="evenodd" clip-rule="evenodd" d="M86.0681 33.4712C85.5433 32.9464 85.0185 32.3166 84.4937 31.7918C80.7151 28.0132 76.3067 24.9693 71.4785 22.5552C71.3735 22.4503 71.2686 22.4503 71.0586 22.3453C70.3239 22.0304 69.5892 21.7156 68.8545 21.4007C67.8048 20.9808 66.8602 20.561 65.8106 20.2461C66.1255 20.456 66.5453 20.6659 66.6503 20.6659C67.2801 20.9808 67.8049 21.1907 68.2247 21.7156C68.6446 22.2404 68.8545 22.6602 68.8545 23.3949C68.8545 24.0247 68.9594 24.7594 69.0644 25.3892C69.1693 26.019 69.4842 26.5438 69.5892 27.1735C69.6942 27.4884 69.6942 27.8033 69.7991 28.2231C70.009 29.0628 70.3239 29.9025 70.5338 30.7422C70.8487 32.3166 70.009 33.5762 69.4842 34.9406C68.6445 37.1448 68.1197 39.349 67.385 41.6582C66.8602 43.4425 65.9156 45.2268 64.5511 46.5913C63.1866 47.8509 61.1923 48.1657 60.0377 49.5302C58.9881 50.7898 57.7286 51.9443 56.2591 52.5741C54.5797 53.4138 52.6905 54.0436 50.9061 54.5684C49.6466 54.9882 48.2821 54.9882 46.9176 55.3031C45.2382 55.7229 43.7688 56.5626 42.2993 57.1924C40.6199 57.9271 39.1505 58.7668 37.4711 59.5015C35.7917 60.2363 34.3223 61.1809 32.6429 61.8107C31.8032 62.1256 30.9635 62.3355 30.2288 62.5454C28.5494 63.1752 26.975 64.2248 25.1907 64.4347C24.5609 64.5397 23.9311 64.6446 23.3013 64.6446C22.7765 64.6446 22.3567 64.7496 21.9369 64.8546C20.3624 65.4843 19.4178 67.1637 17.6335 67.2687C15.9541 67.2687 14.3797 67.1637 12.8052 67.3736C11.9655 67.4786 11.2308 67.3736 10.4961 67.4786C10.2862 67.4786 9.97129 67.5835 9.76137 67.4786C9.55145 67.3736 9.23658 67.1637 8.92169 66.9538C8.29193 66.6389 7.76711 66.219 7.24231 65.7992C6.1927 64.9595 4.82821 65.4843 3.67364 65.1694C3.35876 65.0645 2.83394 65.1694 2.51906 64.9595C1.78433 64.5397 0.83967 63.595 0.209903 63.0702C0.104942 64.4347 0 65.7992 0 67.1637C0 69.5778 0.209922 71.8869 0.524805 74.1961C0.629767 75.2457 0.839689 76.2953 1.04961 77.4499C1.36449 78.9193 1.78431 80.4938 2.20416 81.8583C2.83392 83.8525 3.56866 85.8468 4.40835 87.7361C5.77284 87.946 7.13733 88.1559 8.50182 87.946C10.4961 87.6311 12.3854 87.3162 14.3797 87.4212C16.269 87.5261 17.9483 88.1559 19.7327 88.4708C21.7269 88.7857 23.8261 89.1006 25.9254 89.2055C27.8147 89.3105 29.704 89.5204 31.4883 89.7303C32.8528 89.9403 34.3223 90.1502 35.6868 90.2551C39.3604 90.4651 42.9291 89.5204 46.4978 89.2055C48.2821 88.9956 50.0664 88.5758 51.8508 88.1559C52.9004 87.946 53.95 87.6311 54.8946 87.0013C56.1542 86.1617 56.9939 85.0071 58.0435 84.0624C59.303 83.0128 60.5625 81.9632 61.8221 81.0186C62.8717 80.1789 63.9213 79.2342 65.0759 78.4995C65.9156 77.9747 66.8602 77.3449 67.6999 76.7152C69.2743 75.4556 70.6388 73.9862 72.0033 72.4118C73.8926 70.2076 74.6273 67.1637 75.3621 64.4347C76.0968 61.9156 76.5166 59.5015 77.8811 57.1924C78.5109 56.1428 79.0357 54.8833 79.3506 53.6237C79.5605 52.889 79.6655 51.9443 79.9803 51.2096C80.5051 50.055 81.6597 49.1104 82.2895 48.0608C82.8143 47.2211 83.4441 46.3814 83.7589 45.3318C84.4937 43.4425 85.0185 41.5532 85.3334 39.454C85.5433 37.9845 86.0681 36.5151 86.4879 35.0456C86.5929 34.8357 86.5929 34.5208 86.6978 34.3109C86.6978 34.2059 86.383 33.7861 86.0681 33.4712ZM21.3071 67.4786C21.4121 67.2687 23.3014 66.5339 23.5113 66.429C23.5113 66.429 23.5113 66.429 23.4063 66.429L22.1468 66.9538C23.5113 66.5339 25.9254 67.8984 24.7708 69.3679C24.4559 69.7877 23.5113 69.9977 22.9865 70.1026C22.4617 70.2076 22.1468 69.9977 21.8319 69.5778C21.517 69.158 21.3071 68.5282 21.3071 68.0034C21.3071 67.8984 21.3071 67.5835 21.3071 67.4786ZM6.50757 80.8086C5.03811 80.3888 4.09346 79.864 3.25377 78.6045C2.624 77.7648 2.20418 77.03 1.99425 76.0854C1.88929 75.2457 1.5744 74.6159 1.78432 73.7763C1.88928 73.1465 2.20418 72.4118 2.51906 71.8869C2.83394 71.2572 3.35874 70.5225 3.35874 70.3125C4.82819 70.2076 6.19269 70.1026 7.55718 70.1026C9.1316 70.1026 10.811 70.3125 12.3854 70.3125C13.1201 70.3125 13.8549 70.3125 14.5896 70.2076C15.3243 70.1026 15.9541 69.8927 16.6888 69.7877C17.9483 69.5778 19.1029 69.4728 20.2575 69.9976C21.0972 70.4175 21.517 71.4671 21.9369 72.3068C22.1468 72.8316 22.3567 73.1465 22.3567 73.7763C22.3567 74.511 22.3567 75.1407 22.2517 75.7705C22.2517 75.9804 22.1468 76.2953 22.1468 76.5052C21.0972 78.7094 18.3682 79.4441 16.269 80.2838C13.1201 81.5434 9.6564 81.6483 6.50757 80.8086ZM28.8643 85.6368C28.2345 87.3162 25.5055 87.841 23.9311 87.946C23.1964 87.946 22.2518 87.841 21.517 87.4212C21.0972 87.2113 20.7823 86.7914 20.4674 86.3716C20.2575 86.0567 19.9426 85.5319 19.1029 85.7418C19.3128 84.7972 19.5228 83.9575 19.9426 83.1178C20.2575 82.6979 20.6773 82.3831 21.0972 81.9632C21.8319 81.3334 22.6716 80.7037 23.5113 80.2838C24.8758 79.5491 26.3452 80.0739 27.6048 80.7037C28.5494 81.1235 29.1792 81.7533 29.3891 82.6979C29.704 83.8525 29.2841 84.5872 28.8643 85.6368ZM47.3374 85.322C46.8126 86.4765 46.0779 86.7914 45.0283 87.4212C43.7688 88.051 42.0894 88.5758 40.7249 88.5758C39.9902 88.5758 39.2554 88.2609 38.6257 87.946C38.2058 87.7361 37.681 87.6311 37.3661 87.3162C36.4215 86.3716 36.2116 85.112 36.8413 85.322C36.4215 84.4823 36.2116 83.6426 36.1066 82.8029C36.3165 82.6979 36.4215 82.488 36.4215 82.2781C36.9463 81.3334 37.8909 80.4938 38.9405 79.9689C40.6199 79.0243 42.8241 78.8144 44.7134 79.6541C45.5531 79.969 46.0779 80.3888 46.6027 81.0186C46.9176 81.3334 47.2325 81.5434 47.5474 81.9632C47.8622 82.8029 47.6523 84.3773 47.3374 85.322ZM52.9004 85.112C52.5855 85.322 52.0607 85.7418 51.7458 85.7418C51.4309 85.6368 50.9061 85.112 50.9061 84.6922L50.6962 84.4823C51.116 83.7476 51.5359 83.1178 51.9557 82.3831C52.5855 82.6979 53.2153 82.593 53.6351 83.3277C54.1599 84.0624 53.4252 84.6922 52.9004 85.112ZM67.0701 52.0493C66.5453 52.784 65.8106 53.5188 64.9709 53.8336C63.9213 54.2535 62.4518 54.6733 62.3469 52.994C62.3469 52.0493 62.4518 51.3146 62.8717 50.4749C63.5015 49.2154 64.0263 48.9005 65.2858 48.2707C65.7056 48.2707 66.2304 48.4806 66.5453 48.5856C67.1751 48.7955 67.8048 49.4253 67.9098 50.16C68.0148 50.8947 67.49 51.5245 67.0701 52.0493ZM80.1903 45.0169C79.6655 46.6963 78.9307 48.2707 78.196 49.7402C77.3563 51.6295 77.2513 53.6237 76.7265 55.618C76.5166 56.7726 75.8869 58.0321 74.8372 58.4519C74.3124 58.6618 73.8926 58.5569 73.3678 58.5569C72.843 58.5569 72.0033 58.7668 72.0033 59.1867C71.6884 58.347 71.2686 57.2974 71.0586 56.4577C70.8487 55.513 70.7438 54.4634 70.6388 53.4138C70.4289 52.3642 70.4289 51.3146 70.3239 50.265C70.219 49.3203 70.009 48.2707 70.009 47.3261C70.009 44.0723 71.8983 39.9788 74.9422 38.5093C75.8869 38.0895 76.8315 37.8796 77.8811 37.9845C79.0357 38.1944 79.7704 38.5093 80.2952 39.6639C80.925 41.2383 80.6101 43.3375 80.1903 45.0169Z" fill="url(#paint7_linear_6_510)"/>
<path opacity="0.4" fill-rule="evenodd" clip-rule="evenodd" d="M65.884 49.3315C65.7791 49.4365 65.5692 49.4365 65.4642 49.5415C65.1493 49.5415 64.9394 49.4365 64.7295 49.5415L65.884 49.3315Z" fill="url(#paint8_linear_6_510)"/>
<path fill-rule="evenodd" clip-rule="evenodd" d="M51.5054 73.4728C49.4062 72.4232 51.8203 63.0816 53.9195 60.9824C56.0187 58.8832 61.5817 63.7114 62.2114 67.595C62.9461 71.5835 56.4386 75.7819 51.5054 73.4728Z" fill="url(#paint9_linear_6_510)"/>
<path opacity="0.4" fill-rule="evenodd" clip-rule="evenodd" d="M3.25434 70.3126C3.14938 70.3126 3.04443 70.3126 3.04443 70.3126C3.25436 70.2076 3.25434 70.2076 3.25434 70.3126Z" fill="url(#paint10_linear_6_510)"/>
<path fill-rule="evenodd" clip-rule="evenodd" d="M59.1985 18.5667L67.9102 15.103C67.9102 15.103 81.7651 20.456 90.5818 32.3166L91.1067 39.8738C91.1067 39.8738 74.5228 33.4712 59.1985 18.5667Z" fill="url(#paint11_linear_6_510)"/>
<path fill-rule="evenodd" clip-rule="evenodd" d="M90.8969 95.2934C90.8969 95.2934 83.5497 103.27 78.0917 104.95L73.5783 106.314C73.5783 106.314 52.901 98.862 51.7464 85.9518C50.8018 75.0359 69.3799 58.347 74.418 56.3528C79.4562 54.3585 85.334 55.5131 85.334 55.5131L90.8969 95.2934Z" fill="url(#paint12_linear_6_510)"/>
<path fill-rule="evenodd" clip-rule="evenodd" d="M85.3343 55.5129C80.9259 54.1484 62.1379 62.8602 56.9948 82.278C55.9452 86.2665 65.4967 101.276 76.9374 104.95C80.716 106.209 98.1395 90.9897 98.8743 80.7036C99.609 70.4174 91.8419 57.6121 85.3343 55.5129Z" fill="url(#paint13_linear_6_510)"/>
<path fill-rule="evenodd" clip-rule="evenodd" d="M58.2539 84.5876C60.9829 62.5458 81.0305 55.3034 85.4388 56.6679C88.5877 57.7175 93.206 62.3358 95.9349 66.8492C93.206 61.1813 89.1125 56.563 85.4388 55.4084C81.0305 54.0439 62.2424 62.7557 57.0993 82.1735C56.7845 83.538 57.6241 86.267 59.5134 89.4158C58.3589 87.4215 58.044 85.6372 58.2539 84.5876Z" fill="url(#paint14_linear_6_510)"/>
<path opacity="0.3" fill-rule="evenodd" clip-rule="evenodd" d="M21.308 108.309C21.308 108.309 25.8213 109.988 29.0751 109.043C29.0751 109.043 30.3346 98.4422 26.3461 91.6198C22.3576 84.7973 15.5351 95.0835 15.5351 95.0835L13.9607 101.591C13.9607 101.591 17.7393 106.104 21.308 108.309Z" fill="black"/>
<path fill-rule="evenodd" clip-rule="evenodd" d="M25.1915 106.629L28.0254 105.895C28.0254 105.895 29.3899 100.017 26.9758 93.2993C24.2468 85.7421 14.1706 80.0742 12.7011 79.9692C11.2316 79.8642 9.76221 83.223 9.76221 83.223L25.1915 106.629Z" fill="url(#paint15_linear_6_510)"/>
<path fill-rule="evenodd" clip-rule="evenodd" d="M70.6389 112.402L65.8107 118.595C65.8107 118.595 57.5188 122.584 49.1219 120.694L43.0342 116.601L70.6389 112.402Z" fill="url(#paint16_linear_6_510)"/>
<path fill-rule="evenodd" clip-rule="evenodd" d="M7.663 87.841C8.18781 85.5318 10.1821 81.7532 11.9664 81.3334C13.7508 80.9136 22.3575 89.1005 24.3518 94.3486C26.3461 99.5966 25.2965 105.369 25.1915 106.524C25.0866 107.679 15.4301 104.425 10.497 100.436C5.66875 96.4478 7.663 87.841 7.663 87.841Z" fill="url(#paint17_linear_6_510)"/>
<path fill-rule="evenodd" clip-rule="evenodd" d="M24.3513 94.3483C22.3571 89.1003 13.8552 81.0183 11.9659 81.3332C11.2312 81.4381 10.4965 82.1728 9.8667 83.0125C10.2865 82.5927 10.7064 82.3828 11.1262 82.2778C12.9106 81.858 21.6223 88.3655 23.6166 93.6136C26.0307 100.016 24.6662 104.635 24.4563 106.734C24.8761 106.734 25.191 106.734 25.191 106.524C25.296 105.369 26.3456 99.5964 24.3513 94.3483Z" fill="url(#paint18_linear_6_510)"/>
<path fill-rule="evenodd" clip-rule="evenodd" d="M53.4262 71.467C51.7468 70.6273 53.6361 62.8602 55.3154 61.0759C56.9948 59.3965 61.4032 63.385 62.0329 66.6388C62.6627 69.8926 57.4147 73.3563 53.4262 71.467Z" fill="url(#paint19_linear_6_510)"/>
<path fill-rule="evenodd" clip-rule="evenodd" d="M67.9102 15.103C67.9102 15.103 68.3301 20.3511 74.3129 26.8587C80.2957 33.3663 90.5818 32.3166 90.5818 32.3166L91.1067 39.8738C91.1067 39.8738 69.2748 30.2174 59.1985 18.5667L67.9102 15.103Z" fill="url(#paint20_linear_6_510)"/>
<path fill-rule="evenodd" clip-rule="evenodd" d="M85.0197 62.0205C84.8098 62.2305 84.18 62.6503 84.7048 62.9652C84.8098 63.0702 84.9148 62.9652 85.0197 63.0702C85.1247 63.0702 85.1247 63.1751 85.2296 63.1751C85.5445 62.9652 85.4396 61.9156 85.0197 62.0205Z" fill="#0EDBFF"/>
<path fill-rule="evenodd" clip-rule="evenodd" d="M105.592 53.2039C105.382 53.4138 104.752 53.8337 105.277 54.1485C105.382 54.2535 105.487 54.1485 105.592 54.2535C105.697 54.2535 105.697 54.3585 105.802 54.3585C106.222 54.0436 106.012 53.0989 105.592 53.2039Z" fill="#0EDBFF"/>
<path fill-rule="evenodd" clip-rule="evenodd" d="M96.5654 89.7305C96.3555 89.9404 95.7257 90.3603 96.2505 90.6752C96.3554 90.7801 96.4604 90.6752 96.5654 90.7801C96.6703 90.7801 96.6703 90.8851 96.7753 90.8851C97.1951 90.6751 96.9852 89.6255 96.5654 89.7305Z" fill="#0EDBFF"/>
<path fill-rule="evenodd" clip-rule="evenodd" d="M86.804 65.6943C87.0139 65.5894 87.1188 65.5894 87.3288 65.5894C87.3288 65.7993 87.5387 66.2191 87.2238 66.429C87.0139 66.534 87.0139 66.1142 86.9089 66.0092L86.804 65.6943Z" fill="#0EDBFF"/>
<path fill-rule="evenodd" clip-rule="evenodd" d="M54.1611 67.8988C54.476 68.0037 54.7909 68.2137 55.1058 68.3186C55.2107 68.2137 55.3157 68.2137 55.5256 68.2137C55.7355 68.1087 55.8405 67.8988 55.8405 67.6889C55.9454 67.374 55.8405 67.1641 55.6306 66.9541C55.5256 66.8492 55.4206 66.6392 55.3157 66.5343C55.2107 66.4293 54.8958 66.4293 54.6859 66.5343C54.476 66.6392 54.371 66.8492 54.266 67.0591C54.1611 67.269 53.9512 67.4789 53.9512 67.6889C53.9512 67.8988 54.1611 68.1087 54.266 68.3186L54.1611 67.8988Z" fill="#0EDBFF"/>
<path fill-rule="evenodd" clip-rule="evenodd" d="M7.76828 92.6693C8.08317 92.7743 8.39804 92.9842 8.71293 93.0891C8.81789 92.9842 8.92284 92.9842 9.13277 92.9842C9.34269 92.8792 9.44767 92.6693 9.44767 92.4594C9.55263 92.1445 9.44766 91.9346 9.23773 91.7246C9.13277 91.6197 9.02782 91.4098 8.92286 91.3048C8.8179 91.1998 8.50301 91.1998 8.29309 91.3048C8.08317 91.4098 7.97821 91.6197 7.87325 91.8296C7.76829 92.0395 7.55835 92.2494 7.55835 92.4594C7.55835 92.6693 7.76829 92.8792 7.87325 93.0891L7.76828 92.6693Z" fill="#0EDBFF"/>
<path fill-rule="evenodd" clip-rule="evenodd" d="M98.1399 105.579C98.4547 105.684 98.7696 105.894 99.0845 105.999C99.1895 105.894 99.2944 105.894 99.5043 105.894C99.7143 105.789 99.8192 105.579 99.8192 105.37C99.9242 105.055 99.8192 104.845 99.6093 104.635C99.5044 104.53 99.3994 104.32 99.2944 104.215C99.1895 104.11 98.8746 104.11 98.6647 104.215C98.4547 104.32 98.3498 104.53 98.2448 104.74C98.1398 104.95 97.9299 105.16 97.9299 105.37C97.9299 105.579 98.1398 105.789 98.2448 105.999L98.1399 105.579Z" fill="#0EDBFF"/>
<path fill-rule="evenodd" clip-rule="evenodd" d="M91.6323 96.5531C91.9472 96.658 92.2621 96.868 92.5769 96.9729C92.6819 96.868 92.7869 96.868 92.9968 96.868C93.2067 96.763 93.3117 96.5531 93.3117 96.3432C93.4166 96.0283 93.3117 95.8184 93.1017 95.6084C92.9968 95.5035 92.8918 95.2935 92.7869 95.1886C92.6819 95.0836 92.367 95.0836 92.1571 95.1886C91.9472 95.2935 91.8422 95.5035 91.7373 95.7134C91.6323 95.9233 91.4224 96.1332 91.4224 96.3432C91.4224 96.5531 91.6323 96.763 91.7373 96.9729L91.6323 96.5531Z" fill="#0EDBFF"/>
<path fill-rule="evenodd" clip-rule="evenodd" d="M1.47068 33.9964C2.31037 34.3113 3.15005 34.6262 3.98974 35.046C4.30462 34.8361 4.6195 34.8361 4.93438 34.6262C5.35423 34.3113 5.6691 33.7865 5.87902 33.3667C6.08895 32.6319 5.77407 32.1071 5.45919 31.5823C5.24926 31.2674 5.03936 30.7426 4.72448 30.4277C4.30463 30.1129 3.56991 30.2178 3.15006 30.4277C2.62526 30.6377 2.31037 31.1625 1.99548 31.5823C1.6806 32.0022 1.3657 32.7369 1.26074 33.2617C1.26074 33.7865 1.68061 34.4163 2.10045 34.7311L1.47068 33.9964Z" fill="#0EDBFF"/>
<path fill-rule="evenodd" clip-rule="evenodd" d="M56.2602 3.76741C57.0999 4.08229 57.9396 4.39717 58.7793 4.81702C59.0942 4.6071 59.409 4.6071 59.7239 4.39718C60.1438 4.08229 60.4587 3.55749 60.6686 3.13764C60.8785 2.40291 60.5636 1.87811 60.2487 1.3533C60.0388 1.03842 59.8289 0.513616 59.514 0.198732C59.0942 -0.116151 58.3594 -0.0111898 57.9396 0.198732C57.4148 0.408655 57.0999 0.933458 56.785 1.3533C56.4701 1.77315 56.1553 2.50788 56.0503 3.03268C56.0503 3.55749 56.4701 4.18725 56.89 4.50214L56.2602 3.76741Z" fill="#0EDBFF"/>
<path fill-rule="evenodd" clip-rule="evenodd" d="M63.5026 76.0859C63.3977 76.1909 63.2927 76.2958 63.1877 76.5057C63.2927 76.7157 63.3977 76.8206 63.6076 76.9256C63.7125 76.9256 63.8175 76.9256 63.9225 76.9256C64.0274 76.8206 63.9225 76.7157 64.0275 76.6107C64.1324 76.4008 64.1324 76.2958 64.0275 76.0859C63.9225 75.9809 63.9225 75.876 63.8175 75.876C63.7126 75.876 63.5026 75.876 63.5026 75.9809V76.0859Z" fill="#0EDBFF"/>
<path fill-rule="evenodd" clip-rule="evenodd" d="M64.2374 81.3335C64.2374 81.4385 63.9225 82.0682 64.2374 81.8583C64.4473 81.7533 64.4473 81.4385 64.2374 81.3335C64.3423 81.3335 64.3423 81.3335 64.2374 81.3335Z" fill="#0EDBFF"/>
<path fill-rule="evenodd" clip-rule="evenodd" d="M80.7163 90.7804C80.5063 91.0953 80.5063 91.2003 80.4014 91.5152C80.5063 91.6201 80.7163 91.6201 80.8212 91.6201C81.0312 91.6201 81.0311 91.5152 81.0311 91.4102C81.0311 91.3052 81.1361 91.0953 81.0311 90.9904C80.9262 90.7804 80.8212 90.6755 80.7163 90.7804Z" fill="#0EDBFF"/>
<path fill-rule="evenodd" clip-rule="evenodd" d="M66.8613 76.7158C66.9663 76.8207 67.0713 76.9257 67.0713 77.1356C66.8613 77.1356 66.8613 77.0307 66.8613 76.8207C66.8613 76.6108 66.9663 76.7158 67.0713 76.5059C67.0713 76.5059 67.0713 76.5059 67.1762 76.5059L66.8613 76.7158Z" fill="#0EDBFF"/>
<path fill-rule="evenodd" clip-rule="evenodd" d="M82.6056 62.6506C82.5007 62.7556 82.3957 62.8606 82.2908 62.9655C82.3957 63.0705 82.2908 63.2804 82.5007 63.2804C82.6056 63.2804 82.7106 63.1754 82.8156 62.9655C82.9205 62.8606 82.9205 62.7556 82.9205 62.5457C82.9205 62.4407 82.9205 62.1258 82.8156 62.3358L82.6056 62.6506Z" fill="#0EDBFF"/>
<path fill-rule="evenodd" clip-rule="evenodd" d="M80.4014 26.019C80.6113 26.019 80.7163 25.9141 80.9262 25.9141C80.9262 25.9141 81.0311 25.9141 81.1361 25.9141C81.346 25.9141 81.346 25.9141 81.346 26.019C81.451 26.124 81.451 26.3339 81.451 26.4389C81.346 27.0686 80.5064 26.124 80.8212 25.9141L80.4014 26.019Z" fill="#0EDBFF"/>
<path fill-rule="evenodd" clip-rule="evenodd" d="M13.6461 27.1736C13.3312 27.2785 12.9114 27.2785 12.9114 27.5934C12.9114 27.9083 13.3312 28.1182 13.5411 28.2232C13.961 28.3281 14.5907 28.4331 14.8007 27.9083C14.9056 27.5934 14.8007 27.0686 14.6957 26.8587C14.3808 26.3339 13.6461 26.5438 13.1213 26.7537L13.6461 27.1736Z" fill="#0EDBFF"/>
<path fill-rule="evenodd" clip-rule="evenodd" d="M84.4948 91.41C84.3899 90.4654 84.1799 89.5207 85.0196 88.9959C85.4395 88.681 86.2791 88.681 86.8039 88.9959C87.1188 89.2059 87.4337 89.6257 87.5387 89.9406C87.8536 90.4654 87.7486 90.4654 87.6436 90.8852C87.3288 91.9348 87.0139 92.5646 86.0692 92.5646C84.7047 92.5646 84.4948 91.515 84.4948 90.2555V91.41Z" fill="#0EDBFF"/>
<path fill-rule="evenodd" clip-rule="evenodd" d="M85.1245 64.645C85.5444 64.54 85.8593 64.3301 86.0692 64.0152C85.7543 63.8053 85.2295 63.4904 85.1245 64.0152V64.645Z" fill="#0EDBFF"/>
<path fill-rule="evenodd" clip-rule="evenodd" d="M9.86743 88.8911C10.2873 88.7861 10.6022 88.5762 10.8121 88.2613C10.4972 88.0514 9.97239 87.7365 9.86743 88.2613V88.8911Z" fill="#0EDBFF"/>
<path fill-rule="evenodd" clip-rule="evenodd" d="M9.86743 96.8681C10.2873 96.7632 10.6022 96.5533 10.8121 96.2384C10.4972 96.0285 9.97239 95.7136 9.86743 96.2384V96.8681Z" fill="#0EDBFF"/>
<path fill-rule="evenodd" clip-rule="evenodd" d="M66.1268 68.3184C66.5466 67.8985 67.0714 67.0588 67.7012 67.4787C68.1211 67.7936 68.226 68.4233 67.8061 68.7382C67.4913 68.9481 67.1764 69.0531 66.7565 69.1581C66.4416 69.263 66.0218 69.0531 66.1268 68.6333V68.3184Z" fill="#0EDBFF"/>
<path fill-rule="evenodd" clip-rule="evenodd" d="M78.617 88.8906C79.0369 88.4708 79.5617 87.6311 80.1914 88.0509C80.6113 88.3658 80.7163 88.9956 80.2964 89.3105C79.9815 89.5204 79.6666 89.6254 79.2468 89.7303C78.9319 89.8353 78.5121 89.6254 78.617 89.2055V88.8906Z" fill="#0EDBFF"/>
<path fill-rule="evenodd" clip-rule="evenodd" d="M76.7278 20.666C77.2526 20.771 78.3022 20.771 78.1973 21.6107C78.1973 22.0305 77.5675 22.5553 77.1477 22.3454C76.7278 22.1355 76.5179 21.9255 76.203 21.6107C75.9931 21.4007 75.8881 20.8759 76.4129 20.771L76.7278 20.666Z" fill="#0EDBFF"/>
<path fill-rule="evenodd" clip-rule="evenodd" d="M74.6285 94.2437C75.0483 93.8238 75.5731 92.9841 76.2029 93.404C76.6228 93.7189 76.7277 94.3486 76.3079 94.6635C75.993 94.8734 75.6781 94.9784 75.2583 95.0834C74.9434 95.1883 74.5235 94.9784 74.6285 94.5585V94.2437Z" fill="#0EDBFF"/>
<path fill-rule="evenodd" clip-rule="evenodd" d="M57.6248 67.5837C57.2049 67.8986 56.3652 68.2135 56.2603 68.9482C56.2603 69.3681 56.3652 69.578 56.7851 69.7879C57.0999 69.8929 57.5198 69.8929 57.8347 69.7879C58.2545 69.578 58.7793 69.1581 58.9892 68.7383C59.0942 68.4234 59.0942 68.2135 58.9892 67.8986C58.8843 67.6887 58.7793 67.4788 58.5694 67.4788C57.9396 67.2689 57.6248 67.8986 57.2049 68.1085L57.6248 67.5837Z" fill="#0EDBFF"/>
<path fill-rule="evenodd" clip-rule="evenodd" d="M59.1992 65.9041C59.4091 66.009 59.724 66.114 59.829 66.3239C59.619 66.4289 59.3041 66.6388 58.9892 66.5338C58.6744 66.4289 58.5694 66.114 58.6744 65.7991C58.6744 65.5892 58.9893 65.2743 59.1992 65.3792C59.3041 65.3792 59.3041 65.5892 59.3041 65.5892C59.4091 65.7991 59.4091 65.6941 59.3041 65.9041H59.1992Z" fill="#0EDBFF"/>
<path fill-rule="evenodd" clip-rule="evenodd" d="M72.2145 63.0705C70.9549 64.1201 69.8004 65.4846 69.1706 67.059C68.8557 67.8987 69.3805 67.8987 70.1153 67.7937C71.4798 67.4788 72.9492 67.1639 74.3137 66.7441C75.1534 66.5342 76.308 66.1143 76.8328 65.3796C77.2526 64.8548 77.4625 63.9101 77.3576 63.2804C77.2526 62.3357 76.5179 62.0208 75.6782 61.706C73.6839 61.1812 70.955 63.2804 70.2202 65.0647L72.2145 63.0705Z" fill="#0EDBFF"/>
<path fill-rule="evenodd" clip-rule="evenodd" d="M65.2871 70.2075C65.7069 70.2075 66.0218 70.3125 66.4416 70.5224C66.3367 70.6274 66.3367 70.8373 66.3367 70.9422C66.2317 71.1522 66.0218 71.3621 65.9168 71.467C65.602 71.677 65.0771 71.7819 64.7623 71.572C63.7127 71.1522 65.2871 69.8926 65.7069 70.4174L65.2871 70.2075Z" fill="#0EDBFF"/>
<path fill-rule="evenodd" clip-rule="evenodd" d="M6.92864 109.988C6.82368 110.093 6.71873 110.198 6.61377 110.408C6.71873 110.618 6.82369 110.723 7.03361 110.828C7.13857 110.828 7.24355 110.828 7.34851 110.828C7.45347 110.723 7.34848 110.618 7.45345 110.513C7.55841 110.303 7.55841 110.198 7.45345 109.988C7.34848 109.883 7.3485 109.778 7.24354 109.778C7.13858 109.778 6.92864 109.778 6.92864 109.883V109.988Z" fill="#0EDBFF"/>
<path fill-rule="evenodd" clip-rule="evenodd" d="M7.76837 115.236C7.76837 115.341 7.45348 115.971 7.76837 115.761C7.97829 115.656 7.87333 115.341 7.76837 115.236C7.76837 115.341 7.76837 115.236 7.76837 115.236Z" fill="#0EDBFF"/>
<path fill-rule="evenodd" clip-rule="evenodd" d="M10.2874 110.618C10.3923 110.723 10.4973 110.828 10.4973 111.038C10.2874 111.038 10.2874 110.933 10.2874 110.723C10.2874 110.513 10.3923 110.618 10.4973 110.408C10.4973 110.408 10.4973 110.408 10.6022 110.408L10.2874 110.618Z" fill="#0EDBFF"/>
<path fill-rule="evenodd" clip-rule="evenodd" d="M8.71285 104.11C9.1327 104.11 9.44759 104.215 9.86743 104.425C9.76247 104.53 9.76246 104.74 9.76246 104.845C9.6575 105.055 9.44759 105.264 9.34262 105.369C9.02774 105.579 8.50293 105.684 8.18805 105.474C7.13844 105.055 8.71285 103.795 9.13269 104.32L8.71285 104.11Z" fill="#0EDBFF"/>
<path fill-rule="evenodd" clip-rule="evenodd" d="M74.6285 21.6106C74.9433 21.8206 75.3632 22.0305 75.6781 22.3454C75.993 22.7652 76.3079 23.0801 76.5178 23.4999C76.6227 23.7099 76.9376 24.2347 76.5178 24.2347C76.0979 24.3396 75.2582 23.7099 74.8384 23.395C74.2086 22.9751 73.6838 22.6603 73.264 22.0305C73.0541 21.7156 72.7392 21.1908 72.9491 20.8759C73.159 20.561 73.3689 20.561 73.6838 20.561C73.9987 20.561 74.2086 20.666 74.5235 20.8759C74.6285 20.9809 75.2583 21.6106 75.0483 21.7156L74.6285 21.6106Z" fill="#0EDBFF"/>
<path fill-rule="evenodd" clip-rule="evenodd" d="M79.2468 61.2861C79.0369 61.3911 77.7773 62.1258 78.4071 62.4407C78.722 62.6506 79.4567 62.5457 79.7716 62.4407C80.0865 62.3357 80.4014 62.1258 80.1915 61.8109C79.7716 61.0762 78.827 61.4961 78.3021 61.8109L79.2468 61.2861Z" fill="#0EDBFF"/>
<path fill-rule="evenodd" clip-rule="evenodd" d="M88.6932 18.147C88.2733 18.4619 84.9146 20.2462 86.489 21.0859C87.3287 21.5057 89.008 21.4008 89.8477 20.9809C90.5824 20.666 91.4221 20.1412 90.8973 19.3015C89.9527 17.5172 87.5386 18.5668 86.279 19.3015L88.6932 18.147Z" fill="#0EDBFF"/>
<path fill-rule="evenodd" clip-rule="evenodd" d="M10.3923 93.194C10.4973 93.9288 10.7072 94.7685 11.337 95.2933C12.0717 95.8181 12.8064 95.6081 13.5412 95.1883C14.066 94.8734 14.4858 94.5585 15.0106 94.2437C15.3255 94.0337 15.5354 94.0337 15.5354 93.6139C15.5354 93.194 15.1156 92.5643 14.9056 92.2494C14.5908 91.8296 13.961 91.4097 13.5412 91.1998C12.4916 90.7799 10.4973 91.1998 10.4973 92.5643L10.3923 93.194Z" fill="#0EDBFF"/>
<path fill-rule="evenodd" clip-rule="evenodd" d="M79.8767 94.7682C79.9817 95.293 80.0866 95.9228 80.5065 96.2377C81.0313 96.6575 81.5561 96.4476 82.0809 96.1327C82.3958 95.9228 82.8156 95.7129 83.1305 95.5029C83.3404 95.398 83.5503 95.398 83.5503 95.0831C83.5503 94.7682 83.2355 94.3484 83.1305 94.1385C82.9206 93.8236 82.5007 93.5087 82.1859 93.4037C81.4511 93.0888 80.0866 93.4037 80.0866 94.3484L79.8767 94.7682Z" fill="#0EDBFF"/>
<path fill-rule="evenodd" clip-rule="evenodd" d="M68.0156 15.9429C68.0156 15.9429 70.3248 25.5993 76.7274 29.2729C84.8094 33.8912 90.4773 32.3168 90.4773 32.3168C90.4773 32.3168 83.235 32.1069 76.5175 27.4886C70.9545 23.605 68.0156 15.9429 68.0156 15.9429Z" fill="url(#paint21_linear_6_510)"/>
<path opacity="0.2" fill-rule="evenodd" clip-rule="evenodd" d="M52.7961 90.6751L57.0996 84.3774C57.0996 84.3774 62.6625 100.122 76.9372 105.055L73.7884 107.049C73.8933 107.049 59.1988 102.851 52.7961 90.6751Z" fill="black"/>
<path opacity="0.3" fill-rule="evenodd" clip-rule="evenodd" d="M60.9832 20.666C60.9832 20.666 81.6605 41.4483 96.565 50.6849C96.565 50.6849 95.0955 45.017 91.107 39.7689C91.107 39.8739 78.6166 35.7804 60.9832 20.666Z" fill="black"/>
<defs>
<linearGradient id="paint0_linear_6_510" x1="16.6017" y1="40.6577" x2="16.6017" y2="23.4365" gradientUnits="userSpaceOnUse">
<stop stop-color="#9A00B3"/>
<stop offset="1" stop-color="#7F72FF"/>
</linearGradient>
<linearGradient id="paint1_linear_6_510" x1="12.7909" y1="41.53" x2="19.2617" y2="21.7752" gradientUnits="userSpaceOnUse">
<stop stop-color="#5B008B"/>
<stop offset="1" stop-color="#8E00FF"/>
</linearGradient>
<radialGradient id="paint2_radial_6_510" cx="0" cy="0" r="1" gradientUnits="userSpaceOnUse" gradientTransform="translate(18.8378 44.0786) scale(79.877 79.877)">
<stop offset="0.00558659" stop-color="#60DBFF"/>
<stop offset="0.0937306" stop-color="#60D5FF"/>
<stop offset="0.211" stop-color="#5FC4FF"/>
<stop offset="0.3446" stop-color="#5DA9FF"/>
<stop offset="0.4903" stop-color="#5A82FF"/>
<stop offset="0.6442" stop-color="#5751FF"/>
<stop offset="0.6844" stop-color="#5643FF"/>
<stop offset="0.7432" stop-color="#563DF8"/>
<stop offset="0.8282" stop-color="#552EE5"/>
<stop offset="0.9287" stop-color="#5315C6"/>
<stop offset="1" stop-color="#5200AB"/>
</radialGradient>
<linearGradient id="paint3_linear_6_510" x1="-0.0925757" y1="53.6945" x2="71.4382" y2="53.6945" gradientUnits="userSpaceOnUse">
<stop offset="0.0111732" stop-color="#81E0FF"/>
<stop offset="0.3224" stop-color="#82DDFF"/>
<stop offset="0.5506" stop-color="#86D4FF"/>
<stop offset="0.7523" stop-color="#8BC4FF"/>
<stop offset="0.9375" stop-color="#94ADFF"/>
<stop offset="1" stop-color="#97A4FF"/>
</linearGradient>
<linearGradient id="paint4_linear_6_510" x1="0.362221" y1="39.6199" x2="62.8989" y2="39.6199" gradientUnits="userSpaceOnUse">
<stop stop-color="#B8C2FF"/>
<stop offset="1" stop-color="#7D72B3"/>
</linearGradient>
<linearGradient id="paint5_linear_6_510" x1="10.5107" y1="86.1689" x2="99.3602" y2="86.1689" gradientUnits="userSpaceOnUse">
<stop stop-color="#B8C2FF"/>
<stop offset="1" stop-color="#7D72B3"/>
</linearGradient>
<linearGradient id="paint6_linear_6_510" x1="5.26311" y1="67.7909" x2="93.9344" y2="67.7909" gradientUnits="userSpaceOnUse">
<stop stop-color="#B8C2FF"/>
<stop offset="1" stop-color="#7D72B3"/>
</linearGradient>
<linearGradient id="paint7_linear_6_510" x1="-0.0903715" y1="55.3995" x2="87.0693" y2="55.3995" gradientUnits="userSpaceOnUse">
<stop stop-color="#B8C2FF"/>
<stop offset="1" stop-color="#7D72B3"/>
</linearGradient>
<linearGradient id="paint8_linear_6_510" x1="64.6602" y1="49.4857" x2="65.8566" y2="49.4857" gradientUnits="userSpaceOnUse">
<stop stop-color="#E8DDFF"/>
<stop offset="1" stop-color="#AA8AD8"/>
</linearGradient>
<linearGradient id="paint9_linear_6_510" x1="54.5729" y1="74.5309" x2="58.8272" y2="61.5432" gradientUnits="userSpaceOnUse">
<stop stop-color="#5B008B"/>
<stop offset="1" stop-color="#8E00FF"/>
</linearGradient>
<linearGradient id="paint10_linear_6_510" x1="3.02754" y1="70.3237" x2="3.27596" y2="70.3237" gradientUnits="userSpaceOnUse">
<stop stop-color="#E8DDFF"/>
<stop offset="1" stop-color="#AA8AD8"/>
</linearGradient>
<linearGradient id="paint11_linear_6_510" x1="59.167" y1="27.4696" x2="91.0811" y2="27.4696" gradientUnits="userSpaceOnUse">
<stop stop-color="#7F72FF"/>
<stop offset="1" stop-color="#9A00B3"/>
</linearGradient>
<linearGradient id="paint12_linear_6_510" x1="66.4162" y1="104.081" x2="82.6049" y2="54.6588" gradientUnits="userSpaceOnUse">
<stop stop-color="#280077"/>
<stop offset="1" stop-color="#812CFF"/>
</linearGradient>
<linearGradient id="paint13_linear_6_510" x1="71.0507" y1="103.075" x2="86.4938" y2="55.9321" gradientUnits="userSpaceOnUse">
<stop stop-color="#7A00B3"/>
<stop offset="1" stop-color="#B136FF"/>
</linearGradient>
<linearGradient id="paint14_linear_6_510" x1="76.3704" y1="89.5516" x2="76.3704" y2="55.4038" gradientUnits="userSpaceOnUse">
<stop stop-color="#8E00B3"/>
<stop offset="1" stop-color="#E05CFF"/>
</linearGradient>
<linearGradient id="paint15_linear_6_510" x1="15.9865" y1="103.559" x2="22.6736" y2="83.1439" gradientUnits="userSpaceOnUse">
<stop stop-color="#280077"/>
<stop offset="1" stop-color="#812CFF"/>
</linearGradient>
<linearGradient id="paint16_linear_6_510" x1="56.8739" y1="121.257" x2="56.8739" y2="112.413" gradientUnits="userSpaceOnUse">
<stop stop-color="#7A00B3"/>
<stop offset="0.9162" stop-color="#7006FC"/>
<stop offset="1" stop-color="#7006F9"/>
</linearGradient>
<linearGradient id="paint17_linear_6_510" x1="16.3877" y1="106.821" x2="16.3877" y2="81.4018" gradientUnits="userSpaceOnUse">
<stop stop-color="#7A00B3"/>
<stop offset="1" stop-color="#B136FF"/>
</linearGradient>
<linearGradient id="paint18_linear_6_510" x1="17.7195" y1="106.811" x2="17.7195" y2="81.4016" gradientUnits="userSpaceOnUse">
<stop stop-color="#8E00B3"/>
<stop offset="1" stop-color="#E05CFF"/>
</linearGradient>
<linearGradient id="paint19_linear_6_510" x1="55.8768" y1="72.3218" x2="59.3955" y2="61.5795" gradientUnits="userSpaceOnUse">
<stop stop-color="#A400CA"/>
<stop offset="1" stop-color="#B136FF"/>
</linearGradient>
<linearGradient id="paint20_linear_6_510" x1="73.5165" y1="34.0967" x2="78.5948" y2="18.5935" gradientUnits="userSpaceOnUse">
<stop stop-color="#5B008B"/>
<stop offset="1" stop-color="#8E00FF"/>
</linearGradient>
<linearGradient id="paint21_linear_6_510" x1="79.2896" y1="32.5795" x2="79.2896" y2="15.954" gradientUnits="userSpaceOnUse">
<stop stop-color="#B000D9"/>
<stop offset="1" stop-color="#E05CFF"/>
</linearGradient>
</defs>
</svg>
