<svg width="66" height="65" viewBox="0 0 66 65" fill="none" xmlns="http://www.w3.org/2000/svg">
<path fill-rule="evenodd" clip-rule="evenodd" d="M65.1102 39.4725L64.848 40.3249C64.848 40.3904 64.848 40.3904 64.7824 40.456C64.1267 42.6854 63.2743 44.7836 62.2252 46.7507C60.5204 49.9635 58.2255 52.9142 55.6027 55.4058C52.521 58.2908 48.8491 60.5858 44.7838 62.0938C41.1119 63.4708 37.1778 64.2576 33.0469 64.2576C32.4568 64.2576 31.8666 64.2576 31.2765 64.1921C30.4241 64.1265 29.5717 64.0609 28.7193 63.9298C23.1459 63.2085 18.0315 61.1103 13.704 57.963C13.3106 57.6351 12.9171 57.3729 12.5237 57.045C13.3106 56.3893 14.8842 56.3237 14.8842 56.3237L12.6549 54.5534L7.08147 51.5372C6.03236 50.1602 5.04883 48.7177 4.19643 47.2096C3.99972 46.8162 3.80302 46.4884 3.60631 46.095C3.60631 46.095 3.60631 46.095 3.60631 46.0294C3.4096 45.636 3.2129 45.2425 3.01619 44.8491C2.42607 43.6033 1.96707 42.2919 1.50808 40.915C1.18024 39.9314 0.917973 38.9479 0.721266 37.9644C0.590127 37.2431 0.458985 36.5219 0.327846 35.8006C0.131138 34.2925 0 32.7188 0 31.1452C0 30.7518 0 30.4239 0 30.0305C0 29.506 0.0655732 28.9158 0.0655732 28.3913C0.131142 27.8667 0.1967 27.3421 0.1967 26.8176C0.1967 26.752 0.1967 26.752 0.1967 26.6865C0.327838 25.9652 0.393411 25.2439 0.590119 24.5227C0.786827 23.4736 1.04911 22.49 1.37696 21.5065C1.77037 20.1295 2.29492 18.7526 2.88504 17.5068C3.47517 16.261 4.13086 15.0151 4.85212 13.8349C7.08147 12.6546 8.524 11.999 8.524 11.999C8.524 11.999 47.0131 4.39293 47.6033 3.73724C48.1934 3.08155 51.0784 3.47496 51.0784 3.47496C52.9144 4.6552 54.5536 6.03215 56.1273 7.54025C56.5207 7.86809 56.8485 8.26151 57.1764 8.58936C57.3731 8.85163 57.6353 9.11392 57.8321 9.3762C58.2255 9.83518 58.5533 10.2286 58.9467 10.6876C60.2581 12.3924 61.4384 14.1627 62.4219 16.0642C62.8153 16.7855 63.1432 17.5723 63.471 18.2936C66.4216 29.8993 62.7498 39.8003 62.7498 39.8003C63.7333 39.6036 64.5201 39.538 65.1102 39.4725Z" fill="url(#paint0_radial_6_462)"/>
<path fill-rule="evenodd" clip-rule="evenodd" d="M65.1102 39.4725L64.848 40.3249C64.848 40.3904 64.848 40.3904 64.7824 40.456C64.1267 42.6854 63.2743 44.7836 62.2252 46.7507C60.5204 49.9635 58.2255 52.9142 55.6027 55.4058C52.521 58.2908 48.8491 60.5858 44.7838 62.0938C41.1119 63.4708 37.1778 64.2576 33.0469 64.2576C32.4568 64.2576 31.8666 64.2576 31.2765 64.1921C30.4241 64.1265 29.5717 64.0609 28.7193 63.9298C23.1459 63.2085 18.0315 61.1103 13.704 57.963C13.3106 57.6351 12.9171 57.3729 12.5237 57.045C13.3106 56.3893 14.8842 56.3237 14.8842 56.3237L12.6549 54.5534L7.08147 51.5372C6.03236 50.1602 5.04883 48.7177 4.19643 47.2096C3.99972 46.8162 3.80302 46.4884 3.60631 46.095C3.60631 46.095 3.60631 46.095 3.60631 46.0294C3.4096 45.636 3.2129 45.2425 3.01619 44.8491C2.42607 43.6033 1.96707 42.2919 1.50808 40.915C1.18024 39.9314 0.917973 38.9479 0.721266 37.9644C0.590127 37.2431 0.458985 36.5219 0.327846 35.8006C0.131138 34.2925 0 32.7188 0 31.1452C0 30.7518 0 30.4239 0 30.0305C0 29.506 0.0655732 28.9158 0.0655732 28.3913C0.131142 27.8667 0.1967 27.3421 0.1967 26.8176C0.1967 26.752 0.1967 26.752 0.1967 26.6865C0.327838 25.9652 0.393411 25.2439 0.590119 24.5227C0.786827 23.4736 1.04911 22.49 1.37696 21.5065C1.77037 20.1295 2.29492 18.7526 2.88504 17.5068C3.47517 16.261 4.13086 15.0151 4.85212 13.8349C7.08147 12.6546 8.524 11.999 8.524 11.999C8.524 11.999 47.0131 4.39293 47.6033 3.73724C48.1934 3.08155 51.0784 3.47496 51.0784 3.47496C52.9144 4.6552 54.5536 6.03215 56.1273 7.54025C56.5207 7.86809 56.8485 8.26151 57.1764 8.58936C57.3731 8.85163 57.6353 9.11392 57.8321 9.3762C58.2255 9.83518 58.5533 10.2286 58.9467 10.6876C60.2581 12.3924 61.4384 14.1627 62.4219 16.0642C62.8153 16.7855 63.1432 17.5723 63.471 18.2936C66.4216 29.8993 62.7498 39.8003 62.7498 39.8003C63.7333 39.6036 64.5201 39.538 65.1102 39.4725Z" fill="url(#paint1_radial_6_462)"/>
<path fill-rule="evenodd" clip-rule="evenodd" d="M64.1927 31.211C64.1927 32.3912 64.1271 33.5714 63.996 34.6861C63.7993 36.4565 63.4714 38.1613 63.0124 39.8005C63.0124 39.8661 63.0124 39.8661 63.0124 39.9317C62.4223 42.0299 61.5699 43.997 60.5864 45.8329C58.9471 48.8491 56.8489 51.603 54.3573 53.9635C51.4722 56.6518 47.9971 58.8156 44.194 60.2581C40.7845 61.5695 37.047 62.2908 33.1784 62.2908C32.6539 62.2908 32.0637 62.2908 31.5392 62.2252C30.7524 62.1596 29.9 62.0941 29.1131 62.0285C23.8676 61.3728 19.081 59.3402 15.0157 56.3895C14.4256 55.9306 13.8355 55.4716 13.2454 55.0126C13.1142 54.8815 12.9175 54.7503 12.7864 54.6192C11.3439 53.3078 9.96691 51.9309 8.78666 50.3572C7.80312 49.1114 6.88514 47.7344 6.03274 46.2919C5.83604 45.964 5.63934 45.6362 5.5082 45.2428C5.5082 45.2428 5.5082 45.2428 5.5082 45.1772C5.31149 44.7838 5.11479 44.456 4.98365 44.0625C4.4591 42.8823 4.00011 41.6365 3.60669 40.3907C3.34442 39.4727 3.08214 38.5547 2.88543 37.6367C2.75429 36.981 2.62315 36.3254 2.55758 35.6041C2.36087 34.1616 2.22974 32.7191 2.22974 31.211C2.22974 30.8831 2.22974 30.4897 2.22974 30.1618C2.22974 29.6373 2.29531 29.1128 2.29531 28.6538C2.36088 28.1292 2.36087 27.6702 2.42644 27.1457C2.42644 27.0801 2.42644 27.0801 2.42644 27.0145C2.49201 26.3588 2.62314 25.6376 2.75428 24.9819C2.95099 23.9983 3.21327 23.0804 3.47555 22.0968C3.86896 20.7855 4.32796 19.5396 4.91808 18.2938C5.5082 16.9824 6.22945 15.671 7.01628 14.4252C7.54084 13.5728 8.13097 12.7204 8.78666 11.9336C9.63906 10.8189 10.6226 9.76981 11.6061 8.78627C17.1795 3.34403 24.8511 0 33.244 0C33.5718 0 33.8997 0 34.2275 0C34.5554 0 34.9488 4.00105e-06 35.2766 0.0655732C36.2602 0.131142 37.1781 0.262281 38.1617 0.393419C38.1617 0.393419 38.1617 0.393419 38.2272 0.393419C39.0141 0.524558 39.8009 0.655694 40.5222 0.852402C41.5057 1.11468 42.4892 1.37696 43.4072 1.7048C44.0629 1.90151 44.653 2.16379 45.3087 2.42607C45.7677 2.62278 46.2267 2.81948 46.6857 3.01619C46.7512 3.08176 46.8168 3.08176 46.948 3.14733C49.9641 4.58985 52.7181 6.55693 55.0785 8.91742C55.4064 9.24527 55.7342 9.57311 56.0621 9.90096C56.2588 10.1632 56.5211 10.3599 56.7178 10.6222C57.0456 11.0156 57.439 11.4746 57.7669 11.868C59.0127 13.4417 60.0618 15.1465 60.9798 16.9169C62.0289 19.0151 62.8813 21.2444 63.4714 23.5394C63.8648 24.9819 64.0615 26.49 64.2582 28.0636C64.1271 29.1783 64.1927 30.1619 64.1927 31.211Z" fill="url(#paint2_radial_6_462)"/>
<path fill-rule="evenodd" clip-rule="evenodd" d="M17.9658 18.8183C17.9658 18.8183 17.1134 20.6542 17.8347 22.4902C18.4904 24.3261 20.4575 23.1459 22.7524 22.4902C25.0473 21.8345 27.4078 19.474 28.9159 17.9659C30.424 16.4578 31.8665 14.4251 31.7354 12.4581C31.6042 10.491 29.506 9.17959 29.506 9.17959C29.506 9.17959 30.2928 8.19606 29.6372 12.1302C28.9815 15.9988 28.1291 17.4413 27.2767 18.0314C26.4243 18.6216 23.9326 20.1297 22.5557 20.9821C21.1787 21.8345 19.6051 22.6869 18.6871 22.4902C17.7036 22.1623 17.2446 20.1297 17.9658 18.8183Z" fill="url(#paint3_radial_6_462)"/>
<path fill-rule="evenodd" clip-rule="evenodd" d="M22.1624 17.4412C22.1624 17.4412 20.9821 18.4903 21.31 19.3427C21.6378 20.1951 23.8672 19.6706 25.3097 17.8346C26.7522 15.9987 25.6375 14.5562 25.6375 14.5562C25.6375 14.5562 25.113 17.5723 23.736 18.0969C22.3591 18.6214 21.9001 18.4247 21.9001 18.4247C21.9001 18.4247 21.5722 18.1625 22.1624 17.4412Z" fill="url(#paint4_radial_6_462)"/>
<path fill-rule="evenodd" clip-rule="evenodd" d="M18.6221 18.7527C18.6221 18.7527 19.7368 17.4413 21.0481 16.2611C22.3595 15.0153 24.5889 14.5563 24.5889 14.5563C24.5889 14.5563 23.2775 13.835 21.5727 14.8185C19.9335 15.8676 18.6221 18.7527 18.6221 18.7527Z" fill="url(#paint5_radial_6_462)"/>
<path fill-rule="evenodd" clip-rule="evenodd" d="M13.9009 18.8182C13.9009 18.8182 16.5892 15.8676 19.8021 14.6218C23.015 13.376 24.1297 12.9826 25.5722 11.8023C27.0147 10.6221 28.5884 9.7041 28.5884 9.7041C28.5884 9.7041 25.4411 9.83524 20.6545 12.917C15.868 15.8676 13.9009 17.8347 13.9009 18.8182Z" fill="url(#paint6_radial_6_462)"/>
<path fill-rule="evenodd" clip-rule="evenodd" d="M7.40967 18.2282C7.40967 18.2282 11.9995 13.6383 15.6058 11.8024C19.2121 9.96645 21.6382 8.85178 24.8511 7.99938C28.064 7.21255 33.0472 5.77003 33.0472 5.77003L33.9652 5.31104C33.9652 5.31104 23.6708 5.50774 16.9828 9.57304C10.2947 13.6383 7.40967 18.2282 7.40967 18.2282Z" fill="url(#paint7_radial_6_462)"/>
<path fill-rule="evenodd" clip-rule="evenodd" d="M12.9829 23.5395C12.9829 23.5395 13.7697 29.8997 14.8844 30.162C15.999 30.4243 19.9332 30.4243 25.8344 27.4081C31.7357 24.3919 32.9159 25.1132 36.1944 21.7691C39.4728 18.4251 40.8498 14.6221 41.8333 12.1304C42.8824 9.63881 43.1447 6.75377 42.8169 5.90137C42.8169 5.90137 43.9316 6.55707 43.9316 9.0487C43.9316 11.5403 43.2103 15.7368 42.1612 18.0972C41.1121 20.5233 38.3582 24.3263 35.0797 26.1623C31.8012 27.9982 25.1788 31.6045 18.753 31.5389C12.2616 31.4734 13.3107 31.0144 12.655 29.703C11.9338 28.3916 12.9829 23.5395 12.9829 23.5395Z" fill="url(#paint8_radial_6_462)"/>
<path opacity="0.5" fill-rule="evenodd" clip-rule="evenodd" d="M2.88525 28.9158C2.88525 28.9158 4.06551 31.473 4.65563 33.8334C5.31132 36.1939 5.18018 40.1281 7.86852 40.7838C10.5569 41.3739 14.2943 43.1443 15.6713 42.6853C17.1138 42.2263 22.3593 41.3083 25.3099 41.8985C28.2606 42.4886 33.5717 42.1607 35.4076 41.2428C37.2435 40.3248 41.3088 37.8987 43.2103 37.1775C45.1118 36.4562 47.7346 34.358 50.0295 32.0631C52.3245 29.7681 52.2589 27.1454 52.849 25.834C53.4391 24.5226 54.5538 19.3426 54.4227 16.9821C54.2915 14.6217 52.849 10.2285 52.849 10.2285L51.5376 8.85156C51.5376 8.85156 53.1769 14.8839 52.4556 19.2115C51.7343 23.4735 52.39 25.2439 49.4394 29.3092C46.4888 33.44 42.2924 36.6529 37.637 38.161C32.9815 39.7347 29.9653 39.538 25.1788 39.997C20.6545 40.3904 15.0156 40.1281 12.7862 39.538C10.7536 39.0134 8.06522 37.702 6.03257 34.4236C3.86878 31.014 2.88525 28.9158 2.88525 28.9158Z" fill="#7D72B3"/>
<path opacity="0.4" fill-rule="evenodd" clip-rule="evenodd" d="M13.1794 22.2278C13.1794 22.2278 13.6384 29.1125 14.4908 29.7027C15.3432 30.2928 17.2447 30.5551 18.9495 29.9649C20.7198 29.3748 26.6211 27.4077 27.6702 26.8176C28.7193 26.2275 34.9484 23.0802 36.1942 22.0966C37.44 21.1787 39.0792 17.8346 39.6694 17.1789C40.2595 16.5233 41.7676 12.3924 42.161 10.8187C42.62 9.24506 42.8822 7.40913 42.8822 7.40913C42.8822 7.40913 43.0134 6.55672 42.2921 6.22887C41.5709 5.9666 41.4397 6.22887 41.4397 6.22887C41.4397 6.22887 41.3086 7.27798 40.6529 10.2286C39.9972 13.1792 31.2109 23.2769 26.7522 25.9652C22.2935 28.588 18.0971 28.7191 16.589 28.5224C15.0153 28.3257 13.1138 23.408 13.1794 22.2278Z" fill="#7D72B3"/>
<path opacity="0.4" fill-rule="evenodd" clip-rule="evenodd" d="M12.983 23.5392C12.983 23.5392 13.1797 19.2772 14.2944 17.8346C15.409 16.3921 19.1465 13.4415 21.3103 12.3268C23.5396 11.2122 26.6869 9.63849 27.8016 9.37621C28.9163 9.11393 29.7031 9.37621 29.7031 9.37621C29.7031 9.37621 28.3918 8.65493 25.31 9.44176C22.2282 10.2286 18.7531 13.0481 17.0483 13.9661C15.3435 14.8185 12.7863 16.9822 12.1306 18.0969C11.5405 19.0805 12.983 23.5392 12.983 23.5392Z" fill="#7D72B3"/>
<path opacity="0.4" fill-rule="evenodd" clip-rule="evenodd" d="M5.37671 19.015L14.8842 10.6877L20.7855 7.9994C20.7855 7.9994 26.6211 6.03232 29.3095 5.37663C31.9978 4.72094 37.9646 4.58979 37.9646 4.58979L41.1119 4.91764C41.1119 4.91764 35.6697 1.96702 27.5391 4.13081C19.4741 6.29459 14.0974 9.04851 11.7369 11.2779C9.44201 13.4416 5.83569 17.9003 5.37671 19.015Z" fill="#7D72B3"/>
<path fill-rule="evenodd" clip-rule="evenodd" d="M5.11474 19.3429C5.11474 19.3429 0.000340164 25.5064 2.49197 29.3094C4.9836 33.1124 6.09828 38.6202 6.81954 39.866C7.54081 41.1118 15.8025 43.0789 17.5073 42.6855C19.2121 42.2921 23.343 41.243 26.0313 42.2265C26.0313 42.2265 30.8179 41.8331 32.1293 41.8331C33.5062 41.8331 35.9978 40.6529 36.588 40.3906C37.1781 40.1283 40.391 39.0792 42.0302 38.4235C43.6695 37.7678 46.3578 35.6696 47.4069 34.8828C48.456 34.0304 51.2755 30.6863 51.8656 29.6372C52.3902 28.5881 54.0294 22.5557 54.4228 19.6707C54.8162 16.7857 53.636 11.2778 52.6524 9.37634C51.6689 7.47483 48.7839 5.70446 48.7839 5.70446L48.9806 4.85205L51.2755 3.4751C51.2755 3.4751 55.2752 8.65507 55.6031 13.1793C55.7998 15.8021 56.4555 21.4411 55.7342 23.8671C55.2096 25.8342 53.3081 31.4732 51.6033 33.5058C49.9641 35.5385 44.9808 40.7184 42.3581 41.7675C39.7353 42.7511 31.867 44.128 27.2772 44.1936C23.8676 44.2592 16.3927 43.669 12.7208 43.5379C9.0489 43.4068 6.42614 41.1118 4.98361 39.9316C3.54109 38.7513 4.00007 35.604 2.55754 33.0468C1.04945 30.5552 0.262621 27.2112 0.590467 25.3752C0.918313 23.6704 5.11474 19.3429 5.11474 19.3429Z" fill="url(#paint9_radial_6_462)"/>
<path fill-rule="evenodd" clip-rule="evenodd" d="M14.0977 42.8823C13.3109 42.6856 12.5897 42.2922 11.8028 42.0955C11.3438 41.9644 10.9504 41.8988 10.4914 41.7677C10.0325 41.6365 9.57346 41.571 9.11448 41.571C8.19651 41.5054 7.27853 41.3087 6.68841 40.5874C6.16386 39.9317 5.83603 39.2105 5.63932 38.3581C5.31147 37.2434 5.04918 36.1287 4.72133 35.0796C4.39349 34.0305 4.00007 33.1781 3.40995 32.2601C3.21324 31.9323 3.01653 31.5389 2.75426 31.211C2.55755 30.8832 2.22972 30.6209 2.03301 30.2275C1.57403 29.3095 1.44287 28.326 1.44287 27.2769C1.44287 26.7523 1.57403 26.2278 1.70516 25.7032C1.8363 25.0475 2.03301 24.4574 2.36086 23.8673C2.6887 23.3427 2.95098 22.7526 3.27882 22.228C4.00008 20.9822 4.72134 19.7364 5.57374 18.6217C6.68842 17.2448 7.93424 15.8678 9.24563 14.622C9.96689 13.9008 10.8193 13.2451 11.6717 12.5894C12.3929 12.0648 13.0486 11.4747 13.7043 10.9501C14.8846 10.0322 16.2615 9.44203 17.6385 8.78634C19.2777 7.99951 20.9169 7.21269 22.6217 6.62256C24.6544 5.9013 26.687 5.31117 28.7852 4.85219C31.2113 4.3932 33.7029 4.26207 36.129 4.26207C37.4404 4.26207 38.8829 4.13093 40.1943 4.58991C40.9156 4.85219 41.768 5.18004 42.3581 5.57345C42.4892 5.70459 42.5548 5.70459 42.6859 5.83573C42.7515 5.90129 42.7515 6.03245 42.8171 6.09802C42.9482 6.3603 43.0138 6.68813 43.0138 6.95041C43.0138 7.21269 42.8826 7.47497 42.8826 7.73725C42.8826 8.13066 42.7515 8.52407 42.7515 8.91749C42.7515 9.37647 42.6204 9.70431 42.5548 10.1633C42.4236 10.9501 42.2925 11.737 41.9647 12.5238C41.5057 13.6385 41.1778 14.8187 40.7189 15.8678C40.5877 16.1957 40.3254 16.4579 40.1287 16.7858C39.9976 17.1136 39.8665 17.3103 39.6697 17.6382C39.3419 18.1627 39.0796 18.7529 38.6862 19.2119C37.8994 20.261 37.1781 21.3756 36.129 22.228C34.8832 23.2116 33.5718 24.064 32.1949 24.7852C31.2769 25.2442 30.3589 25.6376 29.4409 26.0966C28.6541 26.49 27.8017 26.949 26.9493 27.3424C24.8511 28.326 22.5562 29.0472 20.3268 29.7685C19.6711 29.9652 19.081 30.1619 18.4253 30.2931C17.8352 30.3586 17.1139 30.5553 16.5238 30.5553C15.8681 30.5553 15.2124 30.3586 14.5567 30.1619C13.5076 29.8341 13.3765 28.6538 13.3109 27.6703C13.2453 26.949 13.1798 26.2278 13.0486 25.5721C12.9175 24.9819 12.9175 24.4574 12.7864 23.8673C12.6552 23.2771 12.5896 22.687 12.5896 22.0969C12.5896 21.3101 12.8519 20.6544 13.0486 19.8676C13.1798 19.4086 13.1798 18.884 13.4421 18.425C13.7043 17.7693 14.2289 17.1792 14.819 16.7202C15.3436 16.2612 15.9337 15.7367 16.4582 15.2777C16.7861 14.9499 17.1795 14.7531 17.5073 14.4909C18.0975 14.0319 18.7531 13.6385 19.4744 13.3106C19.999 13.0484 20.3924 12.5894 20.9169 12.2615C21.4415 11.9337 22.0316 11.6058 22.5562 11.278C23.0152 11.0157 23.5397 10.8846 24.0643 10.6879C24.4577 10.5567 24.8511 10.2944 25.2445 10.1633C25.6379 10.0322 26.0313 9.96659 26.4248 9.83545C26.8182 9.70431 27.146 9.57317 27.5394 9.44203C27.9984 9.31089 28.4574 9.17976 28.8508 9.17976C29.7032 9.17976 30.0966 9.57317 30.3589 10.4256C30.6868 11.5402 30.2934 12.5238 29.8999 13.5729C29.5721 14.4253 29.1787 15.2121 28.9164 16.0645C28.523 17.1792 27.4739 17.7693 26.6215 18.5562C25.7035 19.343 24.5888 20.1298 23.5397 20.5888C23.2119 20.7199 22.8184 20.8511 22.4906 20.9822C22.2283 21.1134 21.9005 21.3101 21.6382 21.4412C21.4415 21.5724 21.3103 21.7035 21.1136 21.8346C20.9825 21.9658 20.7858 21.9658 20.5891 22.0969C20.1957 22.3592 19.8023 22.6215 19.3433 22.8182C18.9499 23.0149 18.0975 23.146 17.8352 22.6215C17.704 22.3592 17.704 22.0313 17.6385 21.7691C17.5729 21.4412 17.5729 21.1134 17.5729 20.7855C17.5729 20.4577 17.6385 20.1954 17.7041 19.8676C17.7696 19.5397 17.9008 19.2774 18.0319 18.9496C18.3597 18.0316 18.9499 17.3759 19.4744 16.6546C19.8023 16.1957 20.1301 15.7367 20.5235 15.2777C21.1136 14.622 21.966 14.3597 22.7529 14.0975C23.4741 13.9007 24.5888 13.704 25.3101 14.0975C25.9002 14.4909 25.5068 15.2777 25.3101 15.7367C25.1789 15.999 25.1134 16.2612 24.9822 16.5235C24.9167 16.7202 24.9167 16.9825 24.7855 17.1792C24.5232 17.5726 24.0643 17.8349 23.6709 18.1628C23.5397 18.2939 23.2774 18.4906 23.0807 18.5562C22.8184 18.6217 22.5562 18.6217 22.2939 18.6873C22.1628 18.6873 22.0972 18.884 21.9661 18.8184C21.8349 18.7529 21.8349 18.6217 21.8349 18.4906C21.8349 18.3595 21.9005 18.2283 21.9661 18.0972C21.9661 18.0972 21.9661 18.0316 21.9661 17.966C22.0972 17.5726 22.5562 17.1136 22.7529 16.7858C23.0807 16.9169 22.884 17.1136 22.8184 17.3103C22.7529 17.4415 22.7529 17.5726 22.7529 17.7038C22.7529 17.8349 22.5562 18.0316 22.6873 18.1628C22.7529 18.2283 23.0807 18.0972 23.1463 18.0972C23.9331 17.8349 24.3921 16.9825 24.6544 16.2612C24.7855 15.7367 24.7855 14.9498 24.261 14.6876C23.8676 14.5564 23.343 14.622 22.9496 14.622C21.4415 14.622 20.5235 16.2612 19.6711 17.3103C19.1466 18.0316 18.6876 18.8184 18.3597 19.6708C18.163 20.261 18.0319 20.8511 17.9008 21.4412C17.7696 21.9002 17.6385 22.5559 18.2942 22.4903C18.6876 22.4248 19.081 22.228 19.4744 22.0969C19.8023 21.9658 20.0646 21.9002 20.3924 21.7035C20.8514 21.4412 21.4415 21.3756 21.9005 21.1134C22.2939 20.9167 22.6873 20.72 23.0807 20.5233C24.0643 19.9987 25.1134 19.0152 25.7691 18.1628C26.228 17.5726 26.9493 17.1136 27.4739 16.5891C28.064 16.0645 28.3263 15.3433 28.7197 14.6876C29.1131 13.9663 29.3098 13.3106 29.5065 12.5894C29.6377 11.9337 30.0966 11.1468 29.8344 10.4256C29.6377 9.70431 28.6541 9.70431 28.064 9.76988C27.5394 9.83545 27.0149 9.96659 26.4903 10.0977C25.5724 10.4256 24.72 10.819 23.8676 11.2124C22.4906 11.8025 21.3104 12.7205 20.0646 13.5073C19.4089 13.9007 18.6876 14.2286 18.0975 14.6876C17.6385 15.0154 17.2451 15.4744 16.7861 15.8023C16.4582 16.0645 16.2615 16.3924 15.8681 16.5891C15.4091 16.9169 15.0157 17.2448 14.6879 17.6382C14.4256 17.966 14.0977 18.425 13.9666 18.8184C13.8355 19.1463 13.9666 19.4741 13.9666 19.802C13.9666 20.261 13.8355 20.72 13.8355 21.1789C13.8355 21.6379 13.8355 22.1625 13.8355 22.6215C13.8355 23.605 13.7043 24.523 13.7043 25.4409C13.7043 26.0311 13.8355 26.6867 13.9666 27.2113C14.0322 27.6703 14.2289 28.0637 14.2944 28.5227C14.2944 28.8505 14.36 29.2439 14.6223 29.4406C14.7534 29.5062 14.9501 29.5718 15.0813 29.6374C15.2124 29.7029 15.3436 29.7685 15.4747 29.7685C15.5403 29.7685 15.6058 29.8341 15.737 29.8341C15.8025 29.8341 15.8681 29.9652 15.8681 29.9652C15.9992 30.0308 16.2615 29.9652 16.3927 29.9652C16.7861 29.8996 17.1795 29.8341 17.5073 29.7029C18.4909 29.5718 19.4089 29.5718 20.3268 29.2439C21.3759 28.8505 22.3595 28.2604 23.343 27.867C24.8511 27.2113 26.5559 26.7523 27.9984 25.9655C28.6541 25.6376 29.3754 25.2442 30.0311 24.9819C31.6703 24.2607 33.3751 23.6706 34.7521 22.5559C35.2766 22.1625 35.7356 21.6379 36.1946 21.1789C36.4568 20.9167 36.7191 20.6544 36.9814 20.3265C37.7027 19.4086 38.3584 18.425 38.8829 17.4415C39.1452 17.0481 39.2763 16.5235 39.473 16.1301C39.8664 15.4744 40.2599 14.8843 40.6533 14.2286C40.9811 13.5729 41.1778 12.9172 41.3745 12.1959C41.5057 11.737 41.6368 11.4091 41.5713 10.9501C41.5713 10.0322 41.6368 9.24534 42.0302 8.39294C42.227 7.93396 42.5548 7.27826 42.3581 6.75371C42.2925 6.49143 41.8991 6.42586 41.7024 6.36029C41.1778 6.16358 40.6533 6.03243 40.1287 5.83573C39.6697 5.63902 39.3419 5.37675 38.8173 5.31118C38.6206 5.24561 38.4239 5.24561 38.2272 5.24561C37.7027 5.24561 37.3093 5.63902 36.7847 5.57345C36.6536 5.57345 36.5224 5.50788 36.3257 5.50788C36.0634 5.44231 35.8012 5.50788 35.5389 5.50788C34.9487 5.50788 34.4242 5.37675 33.8341 5.37675C33.1784 5.37675 32.5227 5.44231 31.867 5.50788C31.2113 5.57345 30.6212 5.50788 29.9655 5.50788C29.5721 5.50788 29.3098 5.70459 28.9819 5.83573C28.6541 5.96686 28.3263 6.03243 27.9984 6.16357C27.6706 6.29471 27.4083 6.3603 27.0804 6.42586C26.6215 6.42586 26.228 6.36028 25.7691 6.49142C25.2445 6.62256 24.72 6.81928 24.1954 7.01598C22.8184 7.60611 21.4415 8.39293 19.999 8.85191C19.2777 9.04862 18.5564 9.17976 17.9008 9.44203C17.6385 9.57317 17.4418 9.70432 17.1795 9.90103C16.7205 10.2289 16.2615 10.4911 15.8025 10.7534C14.7534 11.4091 13.7699 12.1304 12.7208 12.9172C11.5405 13.7696 10.4259 14.6876 9.44233 15.8023C7.73753 17.7693 5.96715 19.7364 4.45906 21.9002C3.7378 22.8837 2.95097 23.9984 2.49198 25.1131V25.1786C2.22971 25.8343 2.09857 26.49 2.16414 27.2113C2.16414 27.2113 2.16414 27.2113 2.16414 27.2769C2.22971 27.867 2.49199 28.5227 2.6887 29.0473C2.95098 29.5718 3.0821 30.0964 3.40995 30.6209C3.73779 31.1455 4.19678 31.6044 4.39349 32.1946C4.65576 32.9158 4.91805 33.7027 5.18033 34.4895C5.4426 35.4075 5.70488 36.391 5.83602 37.3745C5.96716 37.9647 6.03272 38.6204 6.36056 39.1449C6.75398 39.9317 7.60638 40.194 8.32764 40.653C8.72106 40.9153 8.91777 40.9808 9.37675 40.9808C9.96688 41.0464 10.6226 41.1776 11.2127 41.3743C12.4585 41.7677 13.7699 42.0299 15.0813 42.0299C15.8681 42.0299 16.6549 41.8332 17.3762 41.7021C18.0975 41.6365 18.8187 41.571 19.54 41.4398C20.1957 41.3087 20.8514 41.1776 21.5071 41.1776C22.1628 41.1776 22.884 41.3087 23.4741 41.4398C24.5888 41.7677 25.6379 41.9644 26.7526 41.9644C27.4739 41.9644 28.1296 41.7677 28.8508 41.7677C29.5065 41.7021 30.0966 41.8332 30.7523 41.8988C31.867 41.9644 32.9817 41.7021 34.0308 41.3087C34.752 41.0464 35.3422 40.7186 35.9979 40.3251C36.5224 39.9973 37.047 39.9317 37.5715 39.8006C38.6862 39.4728 39.8009 39.0793 40.85 38.4892C42.1614 37.7024 43.2761 36.5877 44.5874 35.8009C45.3087 35.3419 46.1611 35.014 46.8824 34.5551C47.4725 34.1616 48.0626 33.7027 48.5216 33.1781C49.1117 32.588 49.6363 31.9979 50.2264 31.4077C50.6854 30.9487 50.8821 30.3586 51.0788 29.8341C51.4722 28.9817 51.6033 28.1293 51.7345 27.2113C51.8656 26.2933 52.259 25.5065 52.6524 24.7197C53.177 23.6706 53.5704 22.687 53.636 21.5068C53.7016 20.5888 53.8327 19.7364 53.8327 18.8184C53.8327 18.2283 53.7671 17.7038 53.636 17.1136C53.5704 16.5891 53.4393 16.0645 53.3737 15.54C53.2426 14.8843 53.2426 14.2286 53.1114 13.5729C52.9803 13.0484 52.8492 12.4582 52.718 11.8681C52.5869 11.4747 52.4557 11.0813 52.3246 10.6879C52.0623 10.0322 51.6689 9.37646 51.2099 8.78634C51.0132 8.52406 50.7509 8.45851 50.5542 8.32737C50.3575 8.19623 50.3575 8.06509 50.1608 7.99952C49.8985 7.86838 49.6363 7.73724 49.374 7.6061C48.915 7.34383 48.456 7.27826 47.997 7.01598C47.6036 6.81928 47.2102 6.49142 46.8168 6.22915C46.3578 5.96687 45.8988 5.77017 45.5054 5.37675C45.112 4.98334 44.8497 4.52435 44.5219 4.1965C44.1284 3.80309 43.6039 3.54081 43.2105 3.21297C42.4892 2.62284 41.5712 2.55727 40.7844 2.22943C40.391 2.03272 39.932 2.03272 39.5386 1.90158C39.014 1.77044 38.6862 1.50817 38.1616 1.4426C37.7027 1.37703 37.2437 1.37703 36.7191 1.24589C36.4569 1.18032 36.1946 1.11475 35.8667 1.11475C35.3422 1.04918 34.752 1.11475 34.2275 1.18032C33.7685 1.24589 33.244 1.18032 32.785 1.18032C32.3916 1.18032 31.9326 1.24589 31.5392 1.18032C30.3589 0.983608 29.1131 1.04918 27.9329 1.11475C26.8182 1.18032 25.7035 1.24588 24.6544 1.6393C23.7364 1.96714 22.884 2.22943 21.9661 2.55727C21.3759 2.81955 20.8514 3.14739 20.2612 3.47524C18.8843 4.26207 17.6385 5.18005 16.3927 6.03244C14.9501 7.01598 13.5732 8.06508 12.1962 9.11419C11.2783 9.76988 10.3603 10.4911 9.5079 11.1468C9.11448 11.4747 8.72106 11.8025 8.39321 12.1304C9.24561 11.0157 10.2292 9.9666 11.2127 8.98306C16.7861 3.54081 24.4577 0.196777 32.8505 0.196777C33.1784 0.196777 33.5062 0.196777 33.8341 0.196777C34.1619 0.196777 34.5553 0.196781 34.8832 0.262351C35.8667 0.32792 36.7847 0.459058 37.7682 0.590197C37.7682 0.590197 37.7682 0.590197 37.8338 0.590197C38.8829 0.852474 39.932 1.18032 41.0467 1.50816C41.9647 1.77044 42.8171 2.03271 43.6695 2.29499C44.2596 2.4917 44.7841 2.75398 45.3743 2.95068C45.8988 3.14739 46.4234 3.3441 46.8824 3.60638C47.6692 4.06536 48.3904 4.58993 49.0461 5.11448C49.5051 5.44233 49.9641 5.9013 50.3575 6.29472C50.9476 6.88484 51.4722 7.54053 51.9312 8.19622C52.9803 9.83545 53.8327 11.6714 54.2261 13.6385C54.554 15.2777 54.554 16.9825 54.4884 18.6217C54.4228 19.4741 54.2917 20.4577 54.095 21.3101C53.8983 22.2936 53.5704 23.146 53.4393 24.1296C53.3737 24.5885 53.4393 25.1131 53.3737 25.5721C53.3081 25.9655 53.177 26.3589 53.1114 26.7523C52.9803 27.5392 52.718 28.3915 52.3246 29.1128C51.8 30.1619 51.1444 31.0143 50.3575 31.8667C49.5051 32.8503 48.6527 33.8338 47.7348 34.7518C46.8824 35.7353 45.8332 36.5221 44.7186 37.1778C43.8662 37.7024 42.9482 38.3581 42.0302 38.6859C41.1123 39.0138 40.1287 39.5383 39.1452 39.6695C38.4239 39.735 37.8338 39.9973 37.2437 40.4563C36.9158 40.7186 36.588 41.0464 36.2601 41.3743C35.9323 41.6365 35.6044 41.7021 35.211 41.8333C34.3586 42.0955 33.5062 42.0299 32.5883 42.0299C31.2769 42.0299 30.0311 42.1611 28.7852 42.2922C28.1296 42.3578 27.4739 42.4234 26.8837 42.3578C26.2936 42.2922 25.7035 42.1611 25.1789 42.0955C24.5232 42.03 23.9331 42.0299 23.2774 41.8988C22.7529 41.8332 22.3595 41.8332 21.9005 41.8988C21.5071 41.9644 21.1137 41.8988 20.6547 41.8988C20.2613 41.9644 19.8023 42.03 19.4089 42.0955C17.8352 42.4889 16.0648 43.3413 14.0977 42.8823Z" fill="#00C4FF"/>
<path fill-rule="evenodd" clip-rule="evenodd" d="M12.5894 57.1108C12.5894 57.1108 19.8675 58.3566 23.146 58.291C28.1293 58.1599 33.8994 58.75 38.3581 58.8812C42.8168 59.0123 50.6195 55.3404 52.062 54.6847C53.5046 54.029 56.9142 52.062 59.9304 48.7179C62.9465 45.3739 64.1268 39.9316 64.1268 39.9316H62.881C62.881 39.9316 62.422 42.2921 60.586 44.9149C59.4714 46.4886 57.8977 47.8655 55.7339 49.767C52.5866 52.4554 48.5213 54.5536 44.3904 55.6027C38.8826 56.9797 34.0305 56.5862 30.6209 57.1108C25.7688 57.8321 14.8843 56.1272 14.8843 56.1272L12.5894 57.1108Z" fill="url(#paint10_radial_6_462)"/>
<path fill-rule="evenodd" clip-rule="evenodd" d="M10.6882 53.5044C10.6882 53.5044 11.8685 56.5206 12.5897 57.1107C12.5897 57.1107 14.1634 57.1763 14.9502 56.3894L12.7209 54.6191L10.6882 53.5044Z" fill="url(#paint11_radial_6_462)"/>
<path fill-rule="evenodd" clip-rule="evenodd" d="M64.2577 34.2925C64.2577 34.2925 65.0445 37.7021 65.1101 39.538C65.1101 39.538 63.8643 40.3248 62.9463 39.9314C62.9463 39.9314 64.061 35.735 64.2577 34.2925Z" fill="url(#paint12_radial_6_462)"/>
<path fill-rule="evenodd" clip-rule="evenodd" d="M43.2102 1.83594C43.2102 1.83594 49.7016 2.49163 51.2097 3.54074C51.2097 3.54074 50.1606 4.72098 48.9147 4.91769C48.9803 4.85212 43.7348 1.96708 43.2102 1.83594Z" fill="#EE8CFF"/>
<path fill-rule="evenodd" clip-rule="evenodd" d="M4.91772 13.9004L7.60607 13.507L8.65516 12.13C8.65516 12.0644 6.75366 12.9169 4.91772 13.9004Z" fill="#FF61C7"/>
<path opacity="0.5" fill-rule="evenodd" clip-rule="evenodd" d="M7.08203 51.6028C7.08203 51.6028 19.6713 55.2746 29.4411 55.4713C39.2765 55.668 42.9484 53.5043 47.2104 51.7995C51.4724 50.1602 58.4227 46.4228 60.521 43.6033C62.6192 40.8494 64.2584 34.2925 64.2584 34.2925C64.2584 34.2925 62.2258 44.1278 60.521 45.8326C58.7506 47.5374 51.0134 52.8486 49.6365 53.5043C48.2595 54.16 44.5876 56.9794 37.834 56.1926C37.834 56.1926 33.3097 56.8483 31.6705 56.7171C30.0313 56.586 27.4741 58.2252 22.8186 56.7171C22.8186 56.7171 16.3273 56.3893 14.9503 56.0615C13.5078 55.7992 7.08203 51.6028 7.08203 51.6028Z" fill="#54469B"/>
<path fill-rule="evenodd" clip-rule="evenodd" d="M10.1633 38.3581C10.1633 38.3581 20.5888 40.1941 28.1293 39.4072C35.6698 38.6204 39.7351 36.7189 41.8988 35.3419C44.0626 33.965 48.2591 29.4407 49.8327 27.3425C51.4064 25.3099 52.1932 20.1299 52.1932 20.1299C52.1932 20.1299 52.4555 25.1131 51.2097 27.3425C49.8983 29.5063 45.5051 33.6371 43.6692 34.8174C41.8333 35.9976 36.6533 38.8827 33.965 39.3417C31.2766 39.8006 26.8179 41.1776 23.5394 40.5875C20.3921 40.0629 12.5238 40.1941 10.1633 38.3581Z" fill="#B04FE2"/>
<path fill-rule="evenodd" clip-rule="evenodd" d="M24.5884 55.0783C24.5884 55.0783 35.4073 54.357 39.1447 53.5046C42.8822 52.6522 47.7999 50.6851 51.2095 49.3738C54.6191 48.1279 57.2418 45.6363 59.1434 44.2593C61.0449 42.8824 63.4709 37.1123 63.4709 37.1123C63.4709 37.1123 61.8973 42.8168 59.5368 44.6528C57.1763 46.4887 51.0784 49.8983 44.2591 52.9801C36.5875 56.3897 30.6863 55.4061 24.5884 55.0783Z" fill="#8B40E0"/>
<path fill-rule="evenodd" clip-rule="evenodd" d="M62.4222 41.4397C62.6189 40.9152 62.75 40.3906 62.9467 39.9316C62.3566 42.0299 61.5042 43.9969 60.5207 45.8329C60.2584 46.0951 59.865 46.3574 59.6027 46.6197C59.3404 46.9476 59.0781 47.2098 58.8159 47.5377C57.3733 48.9146 55.7997 50.1604 54.0949 51.2096C52.3901 52.3242 50.6853 53.3733 48.7838 54.2257C47.3413 54.8814 45.8332 55.406 44.3251 55.7994C43.0793 56.1273 41.7679 56.2584 40.5221 56.3239C39.8664 56.3895 39.2762 56.4551 38.6206 56.5207C37.8337 56.5862 36.9813 56.5862 36.2601 56.7174C34.8831 56.9796 33.5062 57.1764 32.1292 57.2419C30.949 57.3075 29.7687 57.5042 28.5885 57.5042C27.0804 57.5042 25.5723 57.2419 24.0642 57.2419C22.6217 57.2419 21.1136 57.1764 19.671 57.0452C18.8186 56.9796 17.9663 56.7829 17.1139 56.7174C16.3926 56.6518 15.6713 56.4551 14.9501 56.3895C14.3599 55.9305 13.7698 55.4715 13.1797 55.0126C13.0486 54.8814 12.8518 54.7503 12.7207 54.6192C13.5731 54.8814 14.3599 55.1437 15.2123 55.406C16.3926 55.7994 17.704 55.9961 18.8842 56.1273C19.8677 56.2584 21.1136 56.324 22.0971 56.0617C23.1462 55.7994 23.8675 56.1273 24.7854 56.5207C25.2444 56.7174 25.6378 56.783 26.0968 56.9141C26.7525 57.1108 27.2115 57.0452 27.8672 56.9796C28.4573 56.9141 29.0475 56.7829 29.572 56.7174C30.031 56.5862 30.5555 56.3895 31.0145 56.3239C31.8669 56.1928 32.7849 56.0617 33.6373 56.2584C34.6208 56.4551 35.6044 56.5207 36.5879 56.3895C37.637 56.1928 38.555 56.1273 39.6041 56.1273C39.9319 56.1273 40.2598 56.1928 40.5876 56.1928C40.981 56.2584 41.3089 56.1273 41.7023 56.1273C42.358 56.0617 43.0137 55.9305 43.6694 55.7338C44.2595 55.5371 44.8496 55.2748 45.4398 55.0781C46.62 54.6192 47.6035 54.2257 48.6526 53.5045C49.505 52.9144 50.4886 52.5209 51.341 51.9308C52.1934 51.4063 52.9146 50.685 53.7671 50.226C54.685 49.7015 55.4718 48.9802 56.3242 48.3901C56.8488 47.9967 57.3734 47.5377 57.8979 47.1443C58.3569 46.8164 58.8815 46.5541 59.3404 46.1607C60.0617 45.505 60.783 44.8493 61.3075 43.9314C61.7665 43.1445 62.1599 42.2921 62.4222 41.4397Z" fill="#00C4FF"/>
<path fill-rule="evenodd" clip-rule="evenodd" d="M29.113 24.1948C29.113 24.1948 36.5879 18.0313 39.7353 12.0645C39.8008 12.0645 31.0145 21.0474 29.113 24.1948Z" fill="#FF77F4"/>
<path fill-rule="evenodd" clip-rule="evenodd" d="M21.2446 31.4734C21.2446 31.4734 25.9656 31.4734 31.2112 29.3097C36.4567 27.1459 39.0795 22.6216 39.0795 22.6216C39.0795 22.6216 35.5387 26.0312 31.6701 27.9327C27.8015 29.8342 24.9165 30.2932 21.2446 31.4734Z" fill="#F9C6FF"/>
<path fill-rule="evenodd" clip-rule="evenodd" d="M39.9319 21.5724C39.9319 21.5724 40.4564 20.1955 41.44 17.835C42.4235 15.4745 43.2103 14.1631 43.2103 14.1631C43.2103 14.1631 42.9481 17.835 39.9319 21.5724Z" fill="#EA9CF4"/>
<path fill-rule="evenodd" clip-rule="evenodd" d="M19.6055 43.9967C19.6055 43.9967 26.1624 45.5703 34.752 43.9967C43.3415 42.423 43.6694 41.8984 46.0299 39.9969C48.3904 38.161 50.0952 35.8005 51.0131 34.8825C51.9311 33.9646 53.1114 30.8828 53.1114 30.8828C53.1114 30.8828 50.6853 35.2104 47.2101 38.161C43.735 41.046 40.8499 42.4886 35.0142 43.4065C29.2441 44.2589 22.5561 44.1278 19.6055 43.9967Z" fill="#D374F4"/>
<path fill-rule="evenodd" clip-rule="evenodd" d="M25.3755 58.2908C25.3755 58.2908 31.3423 58.8153 33.7684 59.2743C36.1944 59.7989 40.8498 59.7333 43.5382 58.7498C46.2265 57.7662 51.4721 54.9468 51.4721 54.9468C51.4721 54.9468 46.5544 57.7007 40.6531 58.3564C34.8175 58.9465 31.2111 57.9629 25.3755 58.2908Z" fill="#D374F4"/>
<path fill-rule="evenodd" clip-rule="evenodd" d="M53.2424 54.0946C53.2424 54.0946 57.0455 51.5374 58.8814 49.8981C58.8814 49.8326 56.9143 52.5865 53.2424 54.0946Z" fill="#D374F4"/>
<path fill-rule="evenodd" clip-rule="evenodd" d="M24.4578 21.7033C24.4578 21.7033 28.7853 18.4248 30.1623 16.1299C31.5392 13.7694 31.6704 12.458 31.6704 12.458C31.6704 12.458 32.2605 14.7529 29.7033 17.638C27.0805 20.523 24.4578 21.7033 24.4578 21.7033Z" fill="#F2C4F8"/>
<path fill-rule="evenodd" clip-rule="evenodd" d="M4.13117 38.8169C4.0656 40.2594 4.85244 41.8986 7.40964 42.8822C9.96684 43.8657 11.9339 43.6034 11.9339 43.6034C11.9339 43.6034 8.98329 43.0133 7.34406 41.8986C5.70483 40.6528 4.13117 38.8169 4.13117 38.8169Z" fill="#F5CEFA"/>
<defs>
<radialGradient id="paint0_radial_6_462" cx="0" cy="0" r="1" gradientUnits="userSpaceOnUse" gradientTransform="translate(12.4412 19.5955) scale(50.7627 50.7627)">
<stop offset="0.00558659" stop-color="#FF9AFF"/>
<stop offset="0.0930098" stop-color="#FB94FF"/>
<stop offset="0.2093" stop-color="#F183FF"/>
<stop offset="0.3418" stop-color="#E068FF"/>
<stop offset="0.4864" stop-color="#C841FF"/>
<stop offset="0.639" stop-color="#A910FF"/>
<stop offset="0.6844" stop-color="#9F00FF"/>
<stop offset="0.7432" stop-color="#9900F8"/>
<stop offset="0.8282" stop-color="#8700E5"/>
<stop offset="0.9287" stop-color="#6A00C6"/>
<stop offset="1" stop-color="#5200AB"/>
</radialGradient>
<radialGradient id="paint1_radial_6_462" cx="0" cy="0" r="1" gradientUnits="userSpaceOnUse" gradientTransform="translate(12.4412 19.5955) scale(50.7627 50.7627)">
<stop offset="0.00558659" stop-color="#FF9AFF"/>
<stop offset="0.0930098" stop-color="#FB94FF"/>
<stop offset="0.2093" stop-color="#F183FF"/>
<stop offset="0.3418" stop-color="#E068FF"/>
<stop offset="0.4864" stop-color="#C841FF"/>
<stop offset="0.639" stop-color="#A910FF"/>
<stop offset="0.6844" stop-color="#9F00FF"/>
<stop offset="0.7432" stop-color="#9900F8"/>
<stop offset="0.8282" stop-color="#8700E5"/>
<stop offset="0.9287" stop-color="#6A00C6"/>
<stop offset="1" stop-color="#5200AB"/>
</radialGradient>
<radialGradient id="paint2_radial_6_462" cx="0" cy="0" r="1" gradientUnits="userSpaceOnUse" gradientTransform="translate(13.8811 16.6584) scale(49.8992 49.8992)">
<stop offset="0.00558659" stop-color="#FF9AFF"/>
<stop offset="0.0930098" stop-color="#FB94FF"/>
<stop offset="0.2093" stop-color="#F183FF"/>
<stop offset="0.3418" stop-color="#E068FF"/>
<stop offset="0.4864" stop-color="#C841FF"/>
<stop offset="0.639" stop-color="#A910FF"/>
<stop offset="0.6844" stop-color="#9F00FF"/>
<stop offset="0.7432" stop-color="#9900F8"/>
<stop offset="0.8282" stop-color="#8700E5"/>
<stop offset="0.9287" stop-color="#6A00C6"/>
<stop offset="1" stop-color="#5200AB"/>
</radialGradient>
<radialGradient id="paint3_radial_6_462" cx="0" cy="0" r="1" gradientUnits="userSpaceOnUse" gradientTransform="translate(20.4425 11.3809) scale(11.1577 11.1577)">
<stop offset="0.630208" stop-color="white"/>
<stop offset="1" stop-color="#EF9AFF"/>
</radialGradient>
<radialGradient id="paint4_radial_6_462" cx="0" cy="0" r="1" gradientUnits="userSpaceOnUse" gradientTransform="translate(22.2178 15.4142) scale(3.88157 3.88156)">
<stop stop-color="white"/>
<stop offset="1" stop-color="#F7ABFF"/>
</radialGradient>
<radialGradient id="paint5_radial_6_462" cx="0" cy="0" r="1" gradientUnits="userSpaceOnUse" gradientTransform="translate(19.831 15.055) scale(4.09021 4.09021)">
<stop stop-color="white"/>
<stop offset="1" stop-color="#F9D0FD"/>
</radialGradient>
<radialGradient id="paint6_radial_6_462" cx="0" cy="0" r="1" gradientUnits="userSpaceOnUse" gradientTransform="translate(16.9378 11.1157) scale(9.44821 9.4482)">
<stop stop-color="white"/>
<stop offset="1" stop-color="#F7C2FC"/>
</radialGradient>
<radialGradient id="paint7_radial_6_462" cx="0" cy="0" r="1" gradientUnits="userSpaceOnUse" gradientTransform="translate(12.8995 7.44341) scale(16.019 16.019)">
<stop stop-color="white"/>
<stop offset="1" stop-color="#F5AEFE"/>
</radialGradient>
<radialGradient id="paint8_radial_6_462" cx="0" cy="0" r="1" gradientUnits="userSpaceOnUse" gradientTransform="translate(18.8366 9.98089) scale(22.3205)">
<stop offset="0.744792" stop-color="white"/>
<stop offset="0.9998" stop-color="#E886FF"/>
<stop offset="0.9999" stop-color="#ED8CFF"/>
</radialGradient>
<radialGradient id="paint9_radial_6_462" cx="0" cy="0" r="1" gradientUnits="userSpaceOnUse" gradientTransform="translate(11.8768 10.1449) scale(37.7095 37.7095)">
<stop offset="0.84375" stop-color="#EEADFE"/>
<stop offset="1" stop-color="#B439EE"/>
</radialGradient>
<radialGradient id="paint10_radial_6_462" cx="0" cy="0" r="1" gradientUnits="userSpaceOnUse" gradientTransform="translate(23.18 42.9868) scale(29.7206 29.7206)">
<stop offset="0.572917" stop-color="#EEB9FF"/>
<stop offset="1" stop-color="#7801BD"/>
</radialGradient>
<radialGradient id="paint11_radial_6_462" cx="0" cy="0" r="1" gradientUnits="userSpaceOnUse" gradientTransform="translate(11.4769 54.4534) scale(3.20765)">
<stop stop-color="#6D00C2"/>
<stop offset="0.3995" stop-color="#6600BC"/>
<stop offset="0.976" stop-color="#5300AC"/>
<stop offset="1" stop-color="#5200AB"/>
</radialGradient>
<radialGradient id="paint12_radial_6_462" cx="0" cy="0" r="1" gradientUnits="userSpaceOnUse" gradientTransform="translate(63.354 35.8025) scale(3.35038 3.35038)">
<stop stop-color="#1F0081"/>
<stop offset="0.73" stop-color="#260087"/>
<stop offset="1" stop-color="#2A008B"/>
</radialGradient>
</defs>
</svg>
