<svg width="12" height="14" viewBox="0 0 12 14" fill="none" xmlns="http://www.w3.org/2000/svg">
<path fill-rule="evenodd" clip-rule="evenodd" d="M10.9001 3.49998L6.30008 0.599976H5.40008L0.700081 3.49998C0.577405 3.5708 0.475732 3.67292 0.405454 3.7959C0.335176 3.91889 0.298813 4.05833 0.300081 4.19998V9.79998C0.325338 10.1082 0.468635 10.3948 0.700081 10.6L5.40008 13.4H6.30008L10.9001 10.6C11.0307 10.5131 11.1363 10.3935 11.2065 10.2532C11.2767 10.1129 11.3089 9.95662 11.3001 9.79998V4.19998C11.3137 4.05629 11.2826 3.91192 11.211 3.78661C11.1394 3.6613 11.0308 3.56118 10.9001 3.49998ZM7.80008 7.49998H6.30008V8.99998C6.30008 9.13258 6.2474 9.25976 6.15363 9.35353C6.05987 9.4473 5.93269 9.49998 5.80008 9.49998C5.66747 9.49998 5.5403 9.4473 5.44653 9.35353C5.35276 9.25976 5.30008 9.13258 5.30008 8.99998V7.49998H3.80008C3.66747 7.49998 3.5403 7.4473 3.44653 7.35353C3.35276 7.25976 3.30008 7.13258 3.30008 6.99998C3.30008 6.86737 3.35276 6.74019 3.44653 6.64642C3.5403 6.55265 3.66747 6.49998 3.80008 6.49998H5.30008V4.99998C5.30008 4.86737 5.35276 4.74019 5.44653 4.64642C5.5403 4.55265 5.66747 4.49998 5.80008 4.49998C5.93269 4.49998 6.05987 4.55265 6.15363 4.64642C6.2474 4.74019 6.30008 4.86737 6.30008 4.99998V6.49998H7.80008C7.93269 6.49998 8.05987 6.55265 8.15363 6.64642C8.2474 6.74019 8.30008 6.86737 8.30008 6.99998C8.30008 7.13258 8.2474 7.25976 8.15363 7.35353C8.05987 7.4473 7.93269 7.49998 7.80008 7.49998Z" fill="#00F0FF"/>
</svg>
