<svg width="24" height="24" viewBox="0 0 24 24" fill="none" xmlns="http://www.w3.org/2000/svg">
<path fill-rule="evenodd" clip-rule="evenodd" d="M12.415 21.7413C12.2775 21.7471 12.1392 21.75 12.0002 21.75C10.5877 21.75 9.24529 21.4496 8.03344 20.9092C7.80165 20.8059 7.57463 20.6937 7.35282 20.5732C4.31349 18.9222 2.25024 15.702 2.25024 12C2.25024 6.61522 6.61547 2.25 12.0002 2.25C14.8901 2.25 17.4863 3.50727 19.2718 5.50466C20.2941 6.64833 21.0505 8.03465 21.4441 9.56655C21.4639 9.64337 21.4827 9.72055 21.5006 9.79809C21.6639 10.5057 21.7502 11.2428 21.7502 12C21.7502 17.2458 17.6074 21.524 12.415 21.7413ZM20.2502 12C20.2502 16.5563 16.5566 20.25 12.0002 20.25C11.9114 20.25 11.8229 20.2486 11.7348 20.2458C11.4534 19.4148 11.3008 18.5243 11.3008 17.5983C11.3008 13.0419 14.9944 9.34827 19.5508 9.34827C19.6396 9.34827 19.7281 9.34967 19.8163 9.35246C20.0977 10.1835 20.2502 11.0739 20.2502 12ZM8.94092 19.6642C9.31675 19.8143 9.70621 19.9376 10.1069 20.0317C9.90708 19.2539 9.8008 18.4385 9.8008 17.5983C9.8008 12.3524 13.9437 8.07422 19.1361 7.85693C18.9088 7.46637 18.6504 7.09617 18.3643 6.74973C17.4183 6.37176 16.3859 6.16388 15.3049 6.16388C10.7486 6.16388 7.05495 9.85753 7.05495 14.4139C7.05495 16.4085 7.76277 18.2377 8.94092 19.6642ZM6.17447 17.8415C5.77399 16.7752 5.55495 15.6201 5.55495 14.4139C5.55495 9.0291 9.92017 4.66388 15.3049 4.66388C15.4717 4.66388 15.6375 4.66807 15.8022 4.67634C14.6644 4.0845 13.3714 3.75 12.0002 3.75C7.44389 3.75 3.75024 7.44365 3.75024 12C3.75024 14.2822 4.6769 16.3479 6.17447 17.8415Z" fill="#F2F2F2"/>
</svg>
