<svg width="50" height="50" viewBox="0 0 50 50" fill="none" xmlns="http://www.w3.org/2000/svg">
<g clip-path="url(#clip0_6_5562)">
<path d="M16.66 1C14.8506 1.46561 13.1513 2.28468 11.66 3.41C9.91997 4.92 2.37997 13.89 0.319974 18.48C0.0793011 18.9875 -0.0303243 19.5472 0.00112034 20.1079C0.032565 20.6687 0.204076 21.2126 0.499974 21.69L0.649974 21.89C1.06997 22.39 0.649974 25.17 0.649974 27.49C0.657084 28.6083 0.573476 29.7253 0.399974 30.83C0.395092 30.8799 0.395092 30.9301 0.399974 30.98C0.279974 31.85 -0.190026 35.51 1.60997 36.79C3.40997 38.07 5.45997 39.27 6.29997 40.69C6.99997 41.89 7.83997 44.58 14.81 48C17.3972 49.2876 20.2612 49.9195 23.15 49.84C24.2 49.84 25.43 49.84 26.76 49.84C28.35 49.92 29.76 49.93 30.88 49.91C33.1926 49.886 35.4415 49.1491 37.32 47.8C40.4108 45.5164 43.0008 42.6236 44.93 39.3C49.93 30.96 49.37 33.21 49.93 28.37C50.1517 26.126 49.8996 23.8604 49.19 21.72C48.553 19.6633 48.0946 17.5555 47.82 15.42C47.6594 13.9872 47.3852 12.5694 47 11.18C46.17 8.9 35 0.13 32.49 0C30.3304 0.0212884 28.1776 0.245609 26.06 0.67C26.06 0.67 17.38 0.81 16.66 1Z" fill="#19A6B8"/>
<path d="M0.319974 18.4804C0.0793011 18.9879 -0.0303243 19.5476 0.00112034 20.1083C0.032565 20.6691 0.204076 21.213 0.499974 21.6904L0.649974 21.8904C1.06997 22.3904 0.649974 25.1704 0.649974 27.4904C0.657084 28.6087 0.573476 29.7256 0.399974 30.8304C0.395092 30.8803 0.395092 30.9305 0.399974 30.9804C0.279974 31.8504 -0.190026 35.5104 1.60997 36.7904C3.40997 38.0704 5.45997 39.2704 6.29997 40.6904C6.99997 41.8904 7.83997 44.5804 14.81 48.0004C17.3972 49.288 20.2612 49.9199 23.15 49.8404C24.2 49.8404 25.43 49.8404 26.76 49.8404C28.35 49.9204 29.76 49.9304 30.88 49.9104C33.1926 49.8864 35.4415 49.1495 37.32 47.8004C40.4108 45.5168 43.0008 42.624 44.93 39.3004C47.04 35.7704 48.15 34.1404 48.78 33.0704C48.67 33.3304 7.23997 8.42039 7.21997 8.40039C4.53997 11.7004 1.50997 15.8204 0.319974 18.4804Z" fill="#2EA5B1"/>
<path d="M48.6699 27.3401C48.3399 25.6801 48.5299 25.5701 48.2399 24.5301C47.963 23.7019 47.7392 22.8569 47.5699 22.0001C47.2899 20.4901 47.6699 20.1801 46.8099 17.4101C45.9499 14.6401 46.6699 16.2701 46.4799 14.7001C46.2899 13.1301 46.4799 13.2901 46.0999 12.4301C45.7199 11.5701 40.4999 7.18014 35.9399 4.00014C34.6699 3.13014 35.1399 2.10014 32.2299 1.37014C29.3199 0.640141 28.5799 2.12014 26.1499 1.66014C23.7199 1.20014 24.0799 1.98014 21.8599 2.03014C19.6399 2.08014 16.8599 2.49014 15.3299 3.82014C13.7999 5.15014 10.7399 8.56014 10.6999 8.61014C10.6999 8.61014 7.75992 14.0001 7.39992 16.7301C7.17691 18.4797 7.17691 20.2506 7.39992 22.0001C7.46992 23.6501 7.17992 23.4101 7.85992 25.4501C8.53992 27.4901 8.25992 27.8201 8.95992 30.1401C9.65992 32.4601 10.9999 32.2201 11.8299 34.8001C12.6599 37.3801 14.9999 34.5701 14.9999 36.5301C14.9999 38.4901 17.9099 38.3701 18.5499 38.8701C19.1899 39.3701 15.4299 43.1501 17.1299 44.0001C18.8299 44.8501 24.6999 44.8201 27.9499 45.6601C31.1999 46.5001 36.9499 45.4001 38.1199 45.3301C39.2899 45.2601 41.2799 42.1301 42.2099 41.4201C43.1399 40.7101 48.8099 33.2701 48.8099 33.2701C49.028 32.0729 49.1251 30.8568 49.0999 29.6401C49.1499 27.4501 48.9999 29.0001 48.6699 27.3401Z" fill="#1C6B77"/>
<path d="M38.9999 19.2901C35.3399 8.06013 25.4599 1.25013 16.9999 4.08013C8.5399 6.91013 4.4999 18.3001 8.1599 29.5401C8.75104 31.3395 9.52159 33.0749 10.4599 34.7201C12.2399 33.4001 11.9999 32.2701 11.9999 32.2701C11.9999 32.2701 13.6399 30.0001 14.2999 30.8501C14.9599 31.7001 14.9599 31.4001 15.1199 32.2701C15.2799 33.1401 16.9899 32.7001 15.1199 34.0601C13.2499 35.4201 16.2499 33.8601 13.2499 35.4101C12.6408 35.7229 12.0049 35.9806 11.3499 36.1801C16.0599 43.2701 23.5499 46.9701 30.2199 44.7501C38.7399 41.9201 42.6699 30.5201 38.9999 19.2901Z" fill="#138297"/>
<path d="M9.54003 35.3097C7.35003 36.5397 9.06003 36.8597 11.35 36.1797C11.04 35.7097 10.75 35.1797 10.46 34.7197C10.1669 34.9367 9.8595 35.1338 9.54003 35.3097Z" fill="#207A87"/>
<path d="M15.12 34.0599C16.99 32.6999 15.27 33.1299 15.12 32.2699C14.97 31.4099 14.27 32.2698 13.61 31.3998C12.95 30.5298 12.02 32.2699 12.02 32.2699C12.02 32.2699 12.24 33.3999 10.46 34.7199C10.75 35.2199 11.04 35.7199 11.35 36.1799C12.005 35.9804 12.6409 35.7227 13.25 35.4099C16.25 33.8599 13.25 35.4099 15.12 34.0599Z" fill="#0A6977"/>
<path d="M33.6499 32.6303C33.6499 32.6303 38.1699 34.3703 40.0899 33.9503C42.0099 33.5303 42.0899 32.1703 43.3099 30.6103C43.7799 30.0203 43.5699 29.1203 45.0799 28.6803C46.5899 28.2403 43.5099 24.7803 43.5099 24.7803L33.6499 32.6303Z" fill="#144C54"/>
<path d="M34.6401 8.78027C34.6401 8.78027 27.7901 10.3203 27.5301 15.0003C27.4201 17.1003 26.1401 17.7103 25.6701 18.9303C25.3861 19.8447 24.9537 20.7062 24.3901 21.4803C23.6501 22.5403 23.6501 25.6103 23.8701 26.6903C24.0949 27.7487 24.6952 28.69 25.5601 29.3403C26.5601 30.3403 27.3201 30.4103 29.7801 31.1103C32.2401 31.8103 32.3701 32.4503 34.0001 32.7003C35.2687 32.9402 36.5776 32.8521 37.8026 32.4444C39.0277 32.0366 40.1283 31.3227 41.0001 30.3703L34.6401 8.78027Z" fill="#3DAAB2"/>
<path d="M30.67 44.4396C30.347 44.8592 29.9927 45.2537 29.61 45.6196C28.2821 47.0458 26.4793 47.9384 24.54 48.1296C22.28 48.1296 17.22 47.9796 15.35 46.9596C13.6989 45.8653 12.2843 44.4507 11.19 42.7996C11.1245 41.8274 11.1245 40.8518 11.19 39.8796C11.19 39.8796 11.86 38.5896 14.56 38.8796C14.8913 38.9259 15.2254 38.9492 15.56 38.9496C18.61 38.9496 20.3 37.1796 21.78 37.4696C23.42 37.7796 28.25 39.1996 29.03 39.8296C29.81 40.4596 32.05 42.6296 30.67 44.4396Z" fill="#59BBCE"/>
<path d="M30.3101 44.5603C29.0001 46.2703 26.6501 48.0003 24.6701 48.0003C21.3501 48.0003 17.2701 47.7103 15.7801 46.9003C14.2681 45.8734 12.9566 44.5788 11.9101 43.0803C11.8659 42.2476 11.8659 41.4131 11.9101 40.5803C12.1719 40.3615 12.4749 40.1973 12.8013 40.0977C13.1276 39.9981 13.4707 39.965 13.8101 40.0003C14.0743 39.9983 14.3383 40.015 14.6001 40.0503C14.9681 40.0985 15.3389 40.1219 15.7101 40.1203C17.1579 40.082 18.5817 39.7414 19.8901 39.1203C20.4243 38.8565 20.9989 38.6841 21.5901 38.6103C21.663 38.5999 21.7371 38.5999 21.8101 38.6103C23.0363 38.8816 24.2479 39.2153 25.4401 39.6103C26.5951 39.9101 27.7148 40.3325 28.7801 40.8703C29.0801 41.0903 31.4501 43.0703 30.3101 44.5603Z" fill="#15424D"/>
<path d="M25.9201 42.6401C25.6595 43.3925 25.2322 44.0762 24.6701 44.6401C24.3383 44.9037 23.9556 45.0957 23.546 45.2042C23.1364 45.3126 22.7088 45.3351 22.2901 45.2701C21.1567 44.9009 19.9864 44.6561 18.8001 44.5401C17.8001 44.5401 15.8001 45.0601 14.8601 44.5401C13.9201 44.0201 14.3401 43.5401 13.8601 42.8501C13.3801 42.1601 13.8601 40.0501 13.8601 40.0501C14.1242 40.0481 14.3882 40.0648 14.6501 40.1001C15.0181 40.1484 15.3889 40.1717 15.7601 40.1701C17.2079 40.1318 18.6317 39.7912 19.9401 39.1701C20.4742 38.9063 21.0489 38.7339 21.6401 38.6601C21.713 38.6497 21.7871 38.6497 21.8601 38.6601C23.0863 38.9314 24.2979 39.2651 25.4901 39.6601L25.9501 40.4501C26.068 41.1763 26.0579 41.9175 25.9201 42.6401Z" fill="#002931"/>
<path d="M4 36.84H3.79C3.41 36.72 1.6 35.72 1.39 35.18C1.35079 35.0769 1.35079 34.963 1.39 34.86C1.42899 34.501 1.42899 34.1389 1.39 33.78V33.64L1.46 33.53C1.47544 33.3937 1.47544 33.2562 1.46 33.12C1.38323 32.7176 1.44676 32.3011 1.64 31.94C1.72614 31.8277 1.83893 31.7387 1.96815 31.6811C2.09737 31.6235 2.23894 31.599 2.38 31.61C2.59281 31.6151 2.80426 31.6453 3.01 31.7C3.55798 31.8276 4.112 31.9278 4.67 32C5.85 32.2 6.67 32.33 6.67 33.12C6.6883 33.3065 6.72515 33.4907 6.78 33.67C6.92587 33.9808 6.95669 34.3334 6.86696 34.6648C6.77722 34.9963 6.57277 35.2851 6.29 35.48L5.91 35.78C5.38001 36.2983 4.72026 36.6645 4 36.84Z" fill="#299781"/>
<path d="M1.60997 33.7103C1.90997 33.2603 1.00997 31.4803 2.92997 31.9803C4.84997 32.4803 6.38997 32.3703 6.42997 33.1503C6.46997 33.9303 7.06997 34.5503 6.16997 35.2203C5.26997 35.8903 4.37997 36.6803 3.86997 36.5103C3.35997 36.3403 1.52997 35.2203 1.60997 34.9403C1.65629 34.5316 1.65629 34.119 1.60997 33.7103Z" fill="#167280"/>
<path d="M11.64 18.1401L11 18.6801H10.88H10.75C10.4235 18.7666 10.0877 18.8136 9.75 18.8201C9.29201 18.8522 8.83779 18.7183 8.4705 18.4428C8.10321 18.1673 7.84743 17.7688 7.75 17.3201C7.75 17.3201 7.78 21.0001 13 21.0001C15.0571 20.9863 17.1099 20.8124 19.14 20.4801C19.0397 18.2311 18.6292 16.0067 17.92 13.8701C15.7402 15.1619 13.6428 16.588 11.64 18.1401Z" fill="#358891"/>
<path d="M17.7099 13.2702C17.3838 12.3842 16.9893 11.525 16.5299 10.7002C16.3199 10.3402 16.1199 9.9902 15.9099 9.7002C14.6099 9.8902 12.5099 12.0702 11.2699 14.0402C11.0581 14.3843 10.8996 14.7586 10.7999 15.1502C10.7018 15.5866 10.6928 16.0383 10.7736 16.4782C10.8543 16.9181 11.0232 17.3371 11.2699 17.7102C11.2699 17.7102 12.9599 16.3802 15.0099 14.9902C16.0099 14.3302 16.9499 13.7802 17.7299 13.3402L17.7099 13.2702Z" fill="#0F363F"/>
<path d="M16 5.51979C18.2002 5.48963 20.3996 5.62333 22.58 5.91979C24.15 6.30979 25.37 5.91979 25.87 7.29979C26.03 7.71979 25.98 7.87979 26.21 8.77979C26.5147 9.66758 26.5735 10.6213 26.38 11.5398C26.09 12.7298 24.71 17.9098 21.23 19.5998" fill="#1C6B77"/>
<path d="M23.4799 11.6699C23.2399 7.28992 21.6799 6.66992 21.6799 6.66992C22.0014 6.90965 22.2534 7.23064 22.4099 7.59992C22.5132 7.86078 22.5641 8.1394 22.5599 8.41992C22.5599 11.9499 20.1699 12.7399 20.0599 12.7699C19.3138 13.0752 18.5918 13.4362 17.8999 13.8499C18.6091 15.9866 19.0196 18.2109 19.1199 20.4599C20.198 20.2866 21.1956 19.7826 21.9749 19.0176C22.7541 18.2527 23.2766 17.2646 23.4699 16.1899C23.6268 14.6875 23.6302 13.173 23.4799 11.6699Z" fill="#247275"/>
<path d="M22.5201 7.77011C22.3689 7.39771 22.1159 7.07541 21.7901 6.84011C20.5701 5.90011 18.2501 5.71011 16.1001 5.71011C15.1098 5.66606 14.1199 5.80505 13.1801 6.12011C13.0901 6.12011 12.8801 6.29011 12.8801 6.29011C12.3901 6.48011 10.6901 7.20011 9.19007 10.0901C8.08655 12.0443 7.58881 14.2824 7.76007 16.5201C7.7638 16.8844 7.8108 17.2469 7.90007 17.6001C7.99441 18.0408 8.24231 18.4336 8.59951 18.7083C8.95671 18.9831 9.39994 19.122 9.85007 19.1001C10.1887 19.0962 10.5252 19.0458 10.8501 18.9501H10.9801H11.1101L11.7401 18.4101C13.7372 16.817 15.8276 15.3444 18.0001 14.0001C18.692 13.5893 19.414 13.2316 20.1601 12.9301C20.2701 12.9301 22.6501 12.1001 22.6501 8.57011C22.6593 8.29752 22.6152 8.02574 22.5201 7.77011ZM20.0001 12.3401C20.0001 12.3401 19.1501 12.7301 17.8301 13.4701C17.0601 13.9001 16.1301 14.4701 15.1201 15.1201C13.1201 16.5101 11.3801 17.8401 11.3801 17.8401L10.8201 18.3101C9.24007 18.7901 8.49007 18.0901 8.17007 17.4101C8.05208 17.1684 7.9776 16.9077 7.95007 16.6401C7.78338 14.3866 8.25103 12.1315 9.30007 10.1301C10.9001 7.00011 12.8801 6.41011 12.8801 6.41011C13.7901 5.63011 19.3501 5.52011 21.3301 7.21011C21.5457 7.37315 21.7216 7.58291 21.8445 7.82365C21.9675 8.06439 22.0344 8.32985 22.0401 8.60011C22.0501 11.6901 20.0001 12.3401 20.0001 12.3401Z" fill="#1298B3"/>
<path d="M22.41 7.57038C22.2535 7.20109 22.0016 6.88011 21.68 6.64038C20.45 5.71038 18.13 5.52038 15.98 5.52038C14.9938 5.47769 14.0081 5.61319 13.07 5.92038L12.77 6.09038C12.24 6.30038 10.53 7.00038 9.00001 9.91038C7.9106 11.8728 7.42366 14.1128 7.60001 16.3504C7.63128 16.6882 7.69151 17.0228 7.78001 17.3504C7.87744 17.799 8.13321 18.1976 8.5005 18.473C8.86779 18.7485 9.32202 18.8825 9.78 18.8504C10.1177 18.8439 10.4535 18.7969 10.78 18.7104H10.91H11.03L11.67 18.1704C13.6649 16.6018 15.7557 15.159 17.93 13.8504C18.6219 13.4367 19.3439 13.0757 20.09 12.7704C20.2 12.7704 22.59 11.9504 22.59 8.42038C22.5888 8.12771 22.5275 7.83842 22.41 7.57038ZM19.88 12.1404C19.88 12.1404 19.02 12.5404 17.71 13.2704C16.93 13.7104 16 14.2704 14.99 14.9204C12.94 16.3104 11.25 17.6404 11.25 17.6404L10.7 18.1204C9.11001 18.5904 8.36001 17.8904 8.04001 17.2104C7.92424 16.9678 7.84988 16.7075 7.82001 16.4404C7.65305 14.1901 8.12078 11.9381 9.17001 9.94037C10.78 6.84037 12.76 6.21038 12.76 6.21038C13.66 5.44038 19.22 5.33038 21.2 7.01038C21.4156 7.17342 21.5915 7.38318 21.7145 7.62391C21.8375 7.86465 21.9043 8.13011 21.91 8.40037C21.93 11.5004 19.88 12.1404 19.88 12.1404Z" fill="#59BBCE"/>
<path d="M21.22 7.00047C19.22 5.32047 13.68 5.43047 12.78 6.20047C14.0312 7.12717 15.0937 8.28463 15.91 9.61047C16.5549 9.5418 17.2052 9.5418 17.85 9.61047H18.14C18.4189 9.66209 18.6848 9.76836 18.9224 9.92317C19.16 10.078 19.3646 10.2783 19.5245 10.5125C19.6844 10.7467 19.7963 11.0103 19.8539 11.288C19.9115 11.5656 19.9136 11.852 19.86 12.1305C19.86 12.1305 21.91 11.4905 21.91 8.38047C21.9052 8.11355 21.8407 7.85109 21.7213 7.61231C21.602 7.37353 21.4307 7.16448 21.22 7.00047Z" fill="#115965"/>
<path d="M15.8899 9.62973C15.0736 8.30389 14.0111 7.14643 12.7599 6.21973C12.7599 6.21973 10.7599 6.84973 9.16992 9.94973C8.1207 11.9474 7.65297 14.1994 7.81992 16.4497C7.8498 16.7169 7.92416 16.9771 8.03992 17.2197C8.35992 17.8997 9.10992 18.5997 10.6999 18.1297L11.2499 17.6497C11.0032 17.2767 10.8344 16.8576 10.7536 16.4177C10.6728 15.9778 10.6818 15.5261 10.7799 15.0897C10.8815 14.705 11.0399 14.3377 11.2499 13.9997C12.4899 11.9997 14.5899 9.84973 15.8899 9.65973V9.62973Z" fill="#196C7B"/>
<path d="M18.1599 9.61986H17.8699C17.2251 9.55119 16.5748 9.55119 15.9299 9.61986C16.1399 9.92986 16.3399 10.2799 16.5499 10.6199C17.0093 11.4446 17.4038 12.3039 17.7299 13.1899C19.0399 12.4599 19.8999 12.0599 19.8999 12.0599C19.9845 11.5067 19.85 10.9424 19.5251 10.4867C19.2002 10.0311 18.7105 9.72015 18.1599 9.61986Z" fill="#0F363F"/>
<path d="M43.7699 25.2C42.0899 22.5 40.1399 21.08 40.1399 19.82C40.1399 18.56 41.0699 16.51 40.1399 13.74C39.2099 10.97 39.5299 9.45004 36.8899 8.82004C36.1012 8.64469 35.2838 8.64331 34.4946 8.81601C33.7054 8.98871 32.9632 9.33134 32.3199 9.82004C32.0205 10.0907 31.7399 10.3814 31.4799 10.69L31.3899 10.81C31.4899 10.92 31.5999 11.06 31.7399 11.2C32.0424 10.7879 32.3768 10.4 32.7399 10.04C33.6838 9.39168 34.7952 9.03047 35.9399 9.00004C36.2767 9.00181 36.6122 9.04207 36.9399 9.12004C38.6999 9.54004 38.9399 10.45 39.4699 12.28C39.6099 12.76 39.7599 13.28 39.9399 13.84C40.4005 15.3122 40.449 16.8823 40.0799 18.38C40.0184 18.8206 39.9917 19.2653 39.9999 19.71C39.9999 20.71 40.6999 21.51 41.6599 22.66C42.383 23.5098 43.051 24.405 43.6599 25.34C44.5199 26.7 44.0399 27.12 42.8799 28.13C42.2162 28.6699 41.6306 29.2992 41.1399 30C40.9776 30.244 40.7665 30.4517 40.5199 30.61C40.5263 30.6732 40.5263 30.7369 40.5199 30.8C40.8205 30.5827 41.0782 30.3114 41.2799 30C42.6899 27.79 45.2799 27.61 43.7699 25.2Z" fill="#59BBCE"/>
<path d="M33 12.81L33.24 12.72C33.7918 12.5868 34.3687 12.5978 34.9151 12.7519C35.4615 12.906 35.959 13.198 36.36 13.6C36.8629 14.5664 37.1237 15.6405 37.12 16.73C36.9511 17.8738 36.9511 19.0362 37.12 20.18C37.98 20.7855 38.7024 21.5659 39.24 22.47C39.3088 23.6583 39.1873 24.85 38.88 26C38.98 26.19 39.12 26.41 39.31 26.7C40.09 27.91 39.83 28.32 40.2 29.24C40.3778 29.6909 40.4857 30.1664 40.52 30.65C40.7666 30.4917 40.9777 30.284 41.14 30.04C41.6246 29.3405 42.2034 28.7112 42.86 28.17C44.02 27.17 44.5 26.74 43.64 25.38C43.0311 24.4449 42.3631 23.5497 41.64 22.7C40.64 21.55 39.98 20.7 39.98 19.75C39.9994 19.2894 40.0562 18.8313 40.15 18.38C40.5233 16.8687 40.4714 15.2836 40 13.8C39.82 13.24 39.67 12.72 39.53 12.24C39 10.41 38.74 9.49996 37 9.07996C36.6723 9.00199 36.3368 8.96173 36 8.95996C34.8279 8.97483 33.6865 9.33673 32.72 9.99996C32.3569 10.3599 32.0225 10.7478 31.72 11.16C32.12 11.65 32.58 12.22 33 12.81Z" fill="#196C7B"/>
<path d="M34.17 19.6403C34.7435 20.3677 35.3866 21.0376 36.09 21.6403C36.87 22.4303 37.34 22.6403 37.65 23.4003C37.8014 23.8705 38.0096 24.3205 38.27 24.7403C38.59 25.2603 38.57 25.3703 38.88 25.9203C39.1865 24.7837 39.3113 23.6058 39.25 22.4303C38.7124 21.5262 37.99 20.7458 37.13 20.1403C36.9611 18.9965 36.9611 17.8341 37.13 16.6903C37.1338 15.6008 36.873 14.5267 36.37 13.5603C35.9691 13.1583 35.4715 12.8663 34.9251 12.7122C34.3787 12.5581 33.8019 12.5471 33.25 12.6803L33.01 12.7703C33.5505 13.4379 33.9456 14.2111 34.17 15.0403C34.37 16.6503 33.34 18.5403 34.17 19.6403Z" fill="#0F363F"/>
<path d="M40.3701 30.6103C39.3451 31.1898 38.1758 31.4639 37.0001 31.4003C35.9752 31.4322 34.9545 31.2553 34.0001 30.8803C33.2601 30.5136 32.4434 29.297 31.5501 27.2303L31.4501 26.9903C31.0901 26.1303 30.7101 25.1303 30.3201 23.9903C29.9363 22.3457 29.9363 20.6349 30.3201 18.9903C30.4991 17.9801 30.5894 16.9562 30.5901 15.9303C30.5838 15.5353 30.5301 15.1425 30.4301 14.7603C30.4245 14.6737 30.4245 14.5869 30.4301 14.5003C30.4247 13.2865 30.8499 12.1102 31.6301 11.1803C31.5001 11.0403 31.5001 10.9303 31.4001 10.8203C30.5901 11.8203 29.4801 13.3503 29.8701 14.9103C30.4701 17.4303 28.7601 21.1903 29.7701 24.1703C30.1101 25.1703 30.4801 26.1703 30.8901 27.1703C31.7301 29.1703 32.7101 30.9003 33.7601 31.4303C34.8462 31.8256 36.007 31.9733 37.1575 31.8626C38.308 31.7519 39.4193 31.3855 40.4101 30.7903C40.4101 30.7903 40.3801 30.7303 40.3701 30.6103Z" fill="#1298B3"/>
<path d="M40.5199 30.61C39.5033 31.1829 38.3455 31.4568 37.1799 31.4C36.1552 31.4292 35.1351 31.2524 34.1799 30.88C33.4499 30.51 32.6299 29.29 31.7399 27.23L31.6399 26.99C31.2799 26.13 30.8999 25.13 30.5099 23.99C30.1261 22.3455 30.1261 20.6346 30.5099 18.99C30.6839 17.9792 30.7742 16.9557 30.7799 15.93C30.7638 15.5359 30.7102 15.1441 30.6199 14.76C30.6096 14.6737 30.6096 14.5864 30.6199 14.5C30.6093 13.2854 31.0351 12.1072 31.8199 11.18C31.6799 11.04 31.5699 10.9 31.4699 10.79C30.6599 11.79 29.6699 13.35 30.0599 14.91C30.6699 17.43 28.9499 21.19 29.9699 24.17C30.3099 25.17 30.6799 26.17 31.0899 27.17C31.9299 29.17 32.9099 30.9 33.9499 31.43C35.0361 31.8253 36.1968 31.973 37.3473 31.8623C38.4979 31.7516 39.6091 31.3852 40.5999 30.79C40.5796 30.7274 40.5528 30.6671 40.5199 30.61Z" fill="#59BBCE"/>
<path d="M39.3099 26.66C39.1199 26.37 38.9799 26.15 38.8799 25.96C38.8799 26.18 38.8099 26.39 38.7799 26.56C38.6299 27.66 34.5699 29.19 32.5399 27.56C32.2508 27.3321 31.9392 27.1344 31.6099 26.97L31.7099 27.21C32.5999 29.27 33.4199 30.49 34.1499 30.86C35.105 31.2323 36.1251 31.4091 37.1499 31.38C38.3154 31.4367 39.4733 31.1629 40.4899 30.59C40.4556 30.1064 40.3477 29.6309 40.1699 29.18C39.8299 28.28 40.0899 27.87 39.3099 26.66Z" fill="#0E5A65"/>
<path d="M30.54 14.5104C30.5296 14.5968 30.5296 14.6841 30.54 14.7704C30.6303 15.1545 30.6838 15.5462 30.7 15.9404C30.7 15.7904 31.47 13.5004 32.97 12.8104C32.54 12.2204 32.08 11.6504 31.7 11.1904C30.9296 12.1232 30.5182 13.3008 30.54 14.5104Z" fill="#0E5A65"/>
<path d="M38.78 26.5596C38.78 26.3896 38.84 26.1796 38.88 25.9596C38.57 25.4096 38.59 25.2996 38.27 24.7796C38.0096 24.3598 37.8014 23.9098 37.65 23.4396C37.34 22.6796 36.87 22.4396 36.09 21.6796C35.3865 21.0768 34.7435 20.407 34.17 19.6796C33.34 18.5796 34.37 16.6796 34.17 15.1196C33.9478 14.2755 33.549 13.4881 33 12.8096C31.5 13.4996 30.77 15.8096 30.73 15.9396C30.7276 16.965 30.6406 17.9885 30.47 18.9996C30.0862 20.6441 30.0862 22.355 30.47 23.9996C30.86 25.1396 31.24 26.1396 31.6 26.9996C31.9293 27.164 32.2409 27.3617 32.53 27.5896C34.57 29.1896 38.63 27.6596 38.78 26.5596Z" fill="#032C35"/>
<path d="M49.17 21.8C48.533 19.7433 48.0746 17.6355 47.8 15.5C47.6501 14.0408 47.3826 12.5961 47 11.18C46.17 8.9 35 0.13 32.49 0C30.3304 0.0212884 28.1776 0.245609 26.06 0.67C26.06 0.67 17.38 0.8 16.66 1.01C14.8506 1.47561 13.1513 2.29468 11.66 3.42C10.0709 4.98648 8.58759 6.65683 7.21997 8.42C7.21997 8.42 10.59 5.02 12.22 3.64C13.85 2.26 17 1.88 19.4 1.82C21.8 1.76 21.74 1.99 24.4 2.46C27.06 2.93 27.4 0.97 30.53 1.7C33.66 2.43 33.38 2.93 34.76 3.8C39.76 6.97 45.42 11.34 45.83 12.21C46.24 13.08 46.04 12.93 46.25 14.5C46.46 16.07 45.68 14.45 46.61 17.23C47.54 20.01 47.13 20.32 47.45 21.84C47.6276 22.7129 47.8682 23.5718 48.17 24.41C48.48 25.46 48.28 25.56 48.64 27.24C49 28.92 48.08 27.56 48.52 29.67C48.8444 30.7998 48.9363 31.9837 48.79 33.15C49.66 31.68 49.61 31.24 49.92 28.45C50.1385 26.2053 49.883 23.9397 49.17 21.8Z" fill="#41D6E1"/>
<path d="M10.3 24.8802C11.0235 24.8802 11.61 24.2892 11.61 23.5602C11.61 22.8312 11.0235 22.2402 10.3 22.2402C9.5765 22.2402 8.98999 22.8312 8.98999 23.5602C8.98999 24.2892 9.5765 24.8802 10.3 24.8802Z" fill="#136470"/>
<path d="M19.7299 22.8502C19.5599 21.8502 18.5999 20.8502 19.7299 21.0102C20.8599 21.1702 21.4299 20.1202 22.3099 20.7502C23.1899 21.3802 22.9799 20.8502 23.3099 22.3202C23.6399 23.7902 23.1299 24.5002 22.5099 24.8802C21.8899 25.2602 21.7799 24.7802 20.8999 25.2802C20.0199 25.7802 19.5299 26.5702 19.2199 25.5702C19.12 25.2184 19.1184 24.8459 19.2154 24.4933C19.3124 24.1407 19.5042 23.8214 19.7699 23.5702C19.9199 23.4202 19.7299 22.8502 19.7299 22.8502Z" fill="#1E4E57"/>
<path d="M17.51 37.3398C17.51 37.3398 19.65 31.8398 23.05 31.9098C26.45 31.9798 26 35.4098 27 36.1798C28 36.9498 28.46 38.1798 26.48 38.1798C24.5 38.1798 23.57 36.6498 22.24 36.6298C20.91 36.6098 20.13 36.4498 19.12 37.0798C18.11 37.7098 18.07 37.4698 17.71 37.4698C17.35 37.4698 17.51 37.3398 17.51 37.3398Z" fill="#084F59"/>
<path d="M43.3599 33.43C43.3599 33.43 43.3599 32.83 43.8799 32.8C44.3999 32.77 44.8799 32.8 45.0399 33.12C45.1184 33.7873 44.9855 34.4623 44.6599 35.05C44.3499 35.47 43.5299 36.05 43.0999 36.53C42.6699 37.01 42.0999 37.99 41.8999 37.17C41.6999 36.35 41.7199 35.86 42.2399 35.43C42.6267 35.0372 42.8908 34.5404 42.9999 34C43.0825 33.7889 43.2047 33.5954 43.3599 33.43Z" fill="#14869A"/>
<path d="M45.54 31.91C45.7112 31.91 45.85 31.6593 45.85 31.35C45.85 31.0408 45.7112 30.79 45.54 30.79C45.3688 30.79 45.23 31.0408 45.23 31.35C45.23 31.6593 45.3688 31.91 45.54 31.91Z" fill="#14869A"/>
</g>
<defs>
<clipPath id="clip0_6_5562">
<rect width="50" height="50" fill="white"/>
</clipPath>
</defs>
</svg>
