<svg width="32" height="32" viewBox="0 0 32 32" fill="none" xmlns="http://www.w3.org/2000/svg">
<path d="M26.6667 20.4134L29.2 17.88C30.24 16.84 30.24 15.1467 29.2 14.1067L26.6667 11.5867V8.00002C26.6667 6.53335 25.4667 5.33335 24 5.33335H20.4134L17.88 2.80002C16.84 1.76002 15.1467 1.76002 14.1067 2.80002L11.5867 5.33335H8.00002C6.53335 5.33335 5.33335 6.53335 5.33335 8.00002V11.5867L2.80002 14.12C1.76002 15.16 1.76002 16.8534 2.80002 17.8934L5.33335 20.4267V24C5.33335 25.4667 6.53335 26.6667 8.00002 26.6667H11.5867L14.12 29.2C15.16 30.24 16.8534 30.24 17.8934 29.2L20.4267 26.6667H24C25.4667 26.6667 26.6667 25.4667 26.6667 24V20.4134Z" fill="white"/>
<path d="M23.6299 19.1569L25.4421 17.3448C26.186 16.6009 26.186 15.3896 25.4421 14.6457L23.6299 12.8431V10.2775C23.6299 9.22842 22.7716 8.37005 21.7225 8.37005H19.1569L17.3448 6.55794C16.6009 5.81402 15.3896 5.81402 14.6457 6.55794L12.8431 8.37005H10.2775C9.22842 8.37005 8.37005 9.22842 8.37005 10.2775V12.8431L6.55794 14.6552C5.81402 15.3991 5.81402 16.6104 6.55794 17.3543L8.37005 19.1664V21.7225C8.37005 22.7716 9.22842 23.6299 10.2775 23.6299H12.8431L14.6552 25.4421C15.3991 26.186 16.6104 26.186 17.3543 25.4421L19.1664 23.6299H21.7225C22.7716 23.6299 23.6299 22.7716 23.6299 21.7225V19.1569Z" fill="white"/>
</svg>
