<svg width="32" height="32" viewBox="0 0 32 32" fill="none" xmlns="http://www.w3.org/2000/svg">
<path d="M7.1067 21.2385C6.81318 19.9575 6.66558 18.6474 6.6667 17.3332C6.6667 10.5492 10.5374 4.75183 16 2.42383C21.4627 4.75183 25.3334 10.5492 25.3334 17.3332C25.3334 18.6798 25.1814 19.9878 24.8934 21.2385L27.5867 23.6332C27.7026 23.7363 27.779 23.8766 27.8026 24.0299C27.8262 24.1832 27.7956 24.34 27.716 24.4732L24.4387 29.9345C24.3865 30.0213 24.3153 30.095 24.2304 30.1502C24.1454 30.2053 24.0491 30.2404 23.9486 30.2527C23.8481 30.265 23.7461 30.2543 23.6504 30.2214C23.5546 30.1884 23.4676 30.1341 23.396 30.0625L20.3907 27.0572C20.1407 26.8071 19.8016 26.6666 19.448 26.6665H12.552C12.1984 26.6666 11.8594 26.8071 11.6094 27.0572L8.60404 30.0625C8.53243 30.1341 8.44546 30.1884 8.34972 30.2214C8.25398 30.2543 8.152 30.265 8.0515 30.2527C7.951 30.2404 7.85464 30.2053 7.76971 30.1502C7.68479 30.095 7.61354 30.0213 7.56137 29.9345L4.28404 24.4745C4.20414 24.3412 4.17333 24.1841 4.19695 24.0305C4.22057 23.8769 4.29712 23.7363 4.41337 23.6332L7.1067 21.2385ZM16 17.3332C16.7073 17.3332 17.3856 17.0522 17.8857 16.5521C18.3858 16.052 18.6667 15.3737 18.6667 14.6665C18.6667 13.9593 18.3858 13.281 17.8857 12.7809C17.3856 12.2808 16.7073 11.9998 16 11.9998C15.2928 11.9998 14.6145 12.2808 14.1144 12.7809C13.6143 13.281 13.3334 13.9593 13.3334 14.6665C13.3334 15.3737 13.6143 16.052 14.1144 16.5521C14.6145 17.0522 15.2928 17.3332 16 17.3332Z" fill="white"/>
</svg>
